G04 #@! TF.GenerationSoftware,KiCad,Pcbnew,5.1.5-52549c5~84~ubuntu19.10.1*
G04 #@! TF.CreationDate,2020-02-18T09:16:58-05:00*
G04 #@! TF.ProjectId,adapter,61646170-7465-4722-9e6b-696361645f70,rev?*
G04 #@! TF.SameCoordinates,Original*
G04 #@! TF.FileFunction,Paste,Top*
G04 #@! TF.FilePolarity,Positive*
%FSLAX46Y46*%
G04 Gerber Fmt 4.6, Leading zero omitted, Abs format (unit mm)*
G04 Created by KiCad (PCBNEW 5.1.5-52549c5~84~ubuntu19.10.1) date 2020-02-18 09:16:58*
%MOMM*%
%LPD*%
G04 APERTURE LIST*
%ADD10C,0.100000*%
%ADD11R,0.900000X0.800000*%
%ADD12R,0.700000X0.450000*%
%ADD13R,0.450000X0.300000*%
%ADD14R,2.000000X3.800000*%
%ADD15R,2.000000X1.500000*%
G04 APERTURE END LIST*
D10*
G36*
X93579505Y-71866204D02*
G01*
X93603773Y-71869804D01*
X93627572Y-71875765D01*
X93650671Y-71884030D01*
X93672850Y-71894520D01*
X93693893Y-71907132D01*
X93713599Y-71921747D01*
X93731777Y-71938223D01*
X93748253Y-71956401D01*
X93762868Y-71976107D01*
X93775480Y-71997150D01*
X93785970Y-72019329D01*
X93794235Y-72042428D01*
X93800196Y-72066227D01*
X93803796Y-72090495D01*
X93805000Y-72114999D01*
X93805000Y-72665001D01*
X93803796Y-72689505D01*
X93800196Y-72713773D01*
X93794235Y-72737572D01*
X93785970Y-72760671D01*
X93775480Y-72782850D01*
X93762868Y-72803893D01*
X93748253Y-72823599D01*
X93731777Y-72841777D01*
X93713599Y-72858253D01*
X93693893Y-72872868D01*
X93672850Y-72885480D01*
X93650671Y-72895970D01*
X93627572Y-72904235D01*
X93603773Y-72910196D01*
X93579505Y-72913796D01*
X93555001Y-72915000D01*
X92979999Y-72915000D01*
X92955495Y-72913796D01*
X92931227Y-72910196D01*
X92907428Y-72904235D01*
X92884329Y-72895970D01*
X92862150Y-72885480D01*
X92841107Y-72872868D01*
X92821401Y-72858253D01*
X92803223Y-72841777D01*
X92786747Y-72823599D01*
X92772132Y-72803893D01*
X92759520Y-72782850D01*
X92749030Y-72760671D01*
X92740765Y-72737572D01*
X92734804Y-72713773D01*
X92731204Y-72689505D01*
X92730000Y-72665001D01*
X92730000Y-72114999D01*
X92731204Y-72090495D01*
X92734804Y-72066227D01*
X92740765Y-72042428D01*
X92749030Y-72019329D01*
X92759520Y-71997150D01*
X92772132Y-71976107D01*
X92786747Y-71956401D01*
X92803223Y-71938223D01*
X92821401Y-71921747D01*
X92841107Y-71907132D01*
X92862150Y-71894520D01*
X92884329Y-71884030D01*
X92907428Y-71875765D01*
X92931227Y-71869804D01*
X92955495Y-71866204D01*
X92979999Y-71865000D01*
X93555001Y-71865000D01*
X93579505Y-71866204D01*
G37*
G36*
X95004505Y-71866204D02*
G01*
X95028773Y-71869804D01*
X95052572Y-71875765D01*
X95075671Y-71884030D01*
X95097850Y-71894520D01*
X95118893Y-71907132D01*
X95138599Y-71921747D01*
X95156777Y-71938223D01*
X95173253Y-71956401D01*
X95187868Y-71976107D01*
X95200480Y-71997150D01*
X95210970Y-72019329D01*
X95219235Y-72042428D01*
X95225196Y-72066227D01*
X95228796Y-72090495D01*
X95230000Y-72114999D01*
X95230000Y-72665001D01*
X95228796Y-72689505D01*
X95225196Y-72713773D01*
X95219235Y-72737572D01*
X95210970Y-72760671D01*
X95200480Y-72782850D01*
X95187868Y-72803893D01*
X95173253Y-72823599D01*
X95156777Y-72841777D01*
X95138599Y-72858253D01*
X95118893Y-72872868D01*
X95097850Y-72885480D01*
X95075671Y-72895970D01*
X95052572Y-72904235D01*
X95028773Y-72910196D01*
X95004505Y-72913796D01*
X94980001Y-72915000D01*
X94404999Y-72915000D01*
X94380495Y-72913796D01*
X94356227Y-72910196D01*
X94332428Y-72904235D01*
X94309329Y-72895970D01*
X94287150Y-72885480D01*
X94266107Y-72872868D01*
X94246401Y-72858253D01*
X94228223Y-72841777D01*
X94211747Y-72823599D01*
X94197132Y-72803893D01*
X94184520Y-72782850D01*
X94174030Y-72760671D01*
X94165765Y-72737572D01*
X94159804Y-72713773D01*
X94156204Y-72689505D01*
X94155000Y-72665001D01*
X94155000Y-72114999D01*
X94156204Y-72090495D01*
X94159804Y-72066227D01*
X94165765Y-72042428D01*
X94174030Y-72019329D01*
X94184520Y-71997150D01*
X94197132Y-71976107D01*
X94211747Y-71956401D01*
X94228223Y-71938223D01*
X94246401Y-71921747D01*
X94266107Y-71907132D01*
X94287150Y-71894520D01*
X94309329Y-71884030D01*
X94332428Y-71875765D01*
X94356227Y-71869804D01*
X94380495Y-71866204D01*
X94404999Y-71865000D01*
X94980001Y-71865000D01*
X95004505Y-71866204D01*
G37*
G36*
X105567005Y-76311204D02*
G01*
X105591273Y-76314804D01*
X105615072Y-76320765D01*
X105638171Y-76329030D01*
X105660350Y-76339520D01*
X105681393Y-76352132D01*
X105701099Y-76366747D01*
X105719277Y-76383223D01*
X105735753Y-76401401D01*
X105750368Y-76421107D01*
X105762980Y-76442150D01*
X105773470Y-76464329D01*
X105781735Y-76487428D01*
X105787696Y-76511227D01*
X105791296Y-76535495D01*
X105792500Y-76559999D01*
X105792500Y-77110001D01*
X105791296Y-77134505D01*
X105787696Y-77158773D01*
X105781735Y-77182572D01*
X105773470Y-77205671D01*
X105762980Y-77227850D01*
X105750368Y-77248893D01*
X105735753Y-77268599D01*
X105719277Y-77286777D01*
X105701099Y-77303253D01*
X105681393Y-77317868D01*
X105660350Y-77330480D01*
X105638171Y-77340970D01*
X105615072Y-77349235D01*
X105591273Y-77355196D01*
X105567005Y-77358796D01*
X105542501Y-77360000D01*
X104967499Y-77360000D01*
X104942995Y-77358796D01*
X104918727Y-77355196D01*
X104894928Y-77349235D01*
X104871829Y-77340970D01*
X104849650Y-77330480D01*
X104828607Y-77317868D01*
X104808901Y-77303253D01*
X104790723Y-77286777D01*
X104774247Y-77268599D01*
X104759632Y-77248893D01*
X104747020Y-77227850D01*
X104736530Y-77205671D01*
X104728265Y-77182572D01*
X104722304Y-77158773D01*
X104718704Y-77134505D01*
X104717500Y-77110001D01*
X104717500Y-76559999D01*
X104718704Y-76535495D01*
X104722304Y-76511227D01*
X104728265Y-76487428D01*
X104736530Y-76464329D01*
X104747020Y-76442150D01*
X104759632Y-76421107D01*
X104774247Y-76401401D01*
X104790723Y-76383223D01*
X104808901Y-76366747D01*
X104828607Y-76352132D01*
X104849650Y-76339520D01*
X104871829Y-76329030D01*
X104894928Y-76320765D01*
X104918727Y-76314804D01*
X104942995Y-76311204D01*
X104967499Y-76310000D01*
X105542501Y-76310000D01*
X105567005Y-76311204D01*
G37*
G36*
X106992005Y-76311204D02*
G01*
X107016273Y-76314804D01*
X107040072Y-76320765D01*
X107063171Y-76329030D01*
X107085350Y-76339520D01*
X107106393Y-76352132D01*
X107126099Y-76366747D01*
X107144277Y-76383223D01*
X107160753Y-76401401D01*
X107175368Y-76421107D01*
X107187980Y-76442150D01*
X107198470Y-76464329D01*
X107206735Y-76487428D01*
X107212696Y-76511227D01*
X107216296Y-76535495D01*
X107217500Y-76559999D01*
X107217500Y-77110001D01*
X107216296Y-77134505D01*
X107212696Y-77158773D01*
X107206735Y-77182572D01*
X107198470Y-77205671D01*
X107187980Y-77227850D01*
X107175368Y-77248893D01*
X107160753Y-77268599D01*
X107144277Y-77286777D01*
X107126099Y-77303253D01*
X107106393Y-77317868D01*
X107085350Y-77330480D01*
X107063171Y-77340970D01*
X107040072Y-77349235D01*
X107016273Y-77355196D01*
X106992005Y-77358796D01*
X106967501Y-77360000D01*
X106392499Y-77360000D01*
X106367995Y-77358796D01*
X106343727Y-77355196D01*
X106319928Y-77349235D01*
X106296829Y-77340970D01*
X106274650Y-77330480D01*
X106253607Y-77317868D01*
X106233901Y-77303253D01*
X106215723Y-77286777D01*
X106199247Y-77268599D01*
X106184632Y-77248893D01*
X106172020Y-77227850D01*
X106161530Y-77205671D01*
X106153265Y-77182572D01*
X106147304Y-77158773D01*
X106143704Y-77134505D01*
X106142500Y-77110001D01*
X106142500Y-76559999D01*
X106143704Y-76535495D01*
X106147304Y-76511227D01*
X106153265Y-76487428D01*
X106161530Y-76464329D01*
X106172020Y-76442150D01*
X106184632Y-76421107D01*
X106199247Y-76401401D01*
X106215723Y-76383223D01*
X106233901Y-76366747D01*
X106253607Y-76352132D01*
X106274650Y-76339520D01*
X106296829Y-76329030D01*
X106319928Y-76320765D01*
X106343727Y-76314804D01*
X106367995Y-76311204D01*
X106392499Y-76310000D01*
X106967501Y-76310000D01*
X106992005Y-76311204D01*
G37*
G36*
X113419505Y-72501204D02*
G01*
X113443773Y-72504804D01*
X113467572Y-72510765D01*
X113490671Y-72519030D01*
X113512850Y-72529520D01*
X113533893Y-72542132D01*
X113553599Y-72556747D01*
X113571777Y-72573223D01*
X113588253Y-72591401D01*
X113602868Y-72611107D01*
X113615480Y-72632150D01*
X113625970Y-72654329D01*
X113634235Y-72677428D01*
X113640196Y-72701227D01*
X113643796Y-72725495D01*
X113645000Y-72749999D01*
X113645000Y-73300001D01*
X113643796Y-73324505D01*
X113640196Y-73348773D01*
X113634235Y-73372572D01*
X113625970Y-73395671D01*
X113615480Y-73417850D01*
X113602868Y-73438893D01*
X113588253Y-73458599D01*
X113571777Y-73476777D01*
X113553599Y-73493253D01*
X113533893Y-73507868D01*
X113512850Y-73520480D01*
X113490671Y-73530970D01*
X113467572Y-73539235D01*
X113443773Y-73545196D01*
X113419505Y-73548796D01*
X113395001Y-73550000D01*
X112819999Y-73550000D01*
X112795495Y-73548796D01*
X112771227Y-73545196D01*
X112747428Y-73539235D01*
X112724329Y-73530970D01*
X112702150Y-73520480D01*
X112681107Y-73507868D01*
X112661401Y-73493253D01*
X112643223Y-73476777D01*
X112626747Y-73458599D01*
X112612132Y-73438893D01*
X112599520Y-73417850D01*
X112589030Y-73395671D01*
X112580765Y-73372572D01*
X112574804Y-73348773D01*
X112571204Y-73324505D01*
X112570000Y-73300001D01*
X112570000Y-72749999D01*
X112571204Y-72725495D01*
X112574804Y-72701227D01*
X112580765Y-72677428D01*
X112589030Y-72654329D01*
X112599520Y-72632150D01*
X112612132Y-72611107D01*
X112626747Y-72591401D01*
X112643223Y-72573223D01*
X112661401Y-72556747D01*
X112681107Y-72542132D01*
X112702150Y-72529520D01*
X112724329Y-72519030D01*
X112747428Y-72510765D01*
X112771227Y-72504804D01*
X112795495Y-72501204D01*
X112819999Y-72500000D01*
X113395001Y-72500000D01*
X113419505Y-72501204D01*
G37*
G36*
X111994505Y-72501204D02*
G01*
X112018773Y-72504804D01*
X112042572Y-72510765D01*
X112065671Y-72519030D01*
X112087850Y-72529520D01*
X112108893Y-72542132D01*
X112128599Y-72556747D01*
X112146777Y-72573223D01*
X112163253Y-72591401D01*
X112177868Y-72611107D01*
X112190480Y-72632150D01*
X112200970Y-72654329D01*
X112209235Y-72677428D01*
X112215196Y-72701227D01*
X112218796Y-72725495D01*
X112220000Y-72749999D01*
X112220000Y-73300001D01*
X112218796Y-73324505D01*
X112215196Y-73348773D01*
X112209235Y-73372572D01*
X112200970Y-73395671D01*
X112190480Y-73417850D01*
X112177868Y-73438893D01*
X112163253Y-73458599D01*
X112146777Y-73476777D01*
X112128599Y-73493253D01*
X112108893Y-73507868D01*
X112087850Y-73520480D01*
X112065671Y-73530970D01*
X112042572Y-73539235D01*
X112018773Y-73545196D01*
X111994505Y-73548796D01*
X111970001Y-73550000D01*
X111394999Y-73550000D01*
X111370495Y-73548796D01*
X111346227Y-73545196D01*
X111322428Y-73539235D01*
X111299329Y-73530970D01*
X111277150Y-73520480D01*
X111256107Y-73507868D01*
X111236401Y-73493253D01*
X111218223Y-73476777D01*
X111201747Y-73458599D01*
X111187132Y-73438893D01*
X111174520Y-73417850D01*
X111164030Y-73395671D01*
X111155765Y-73372572D01*
X111149804Y-73348773D01*
X111146204Y-73324505D01*
X111145000Y-73300001D01*
X111145000Y-72749999D01*
X111146204Y-72725495D01*
X111149804Y-72701227D01*
X111155765Y-72677428D01*
X111164030Y-72654329D01*
X111174520Y-72632150D01*
X111187132Y-72611107D01*
X111201747Y-72591401D01*
X111218223Y-72573223D01*
X111236401Y-72556747D01*
X111256107Y-72542132D01*
X111277150Y-72529520D01*
X111299329Y-72519030D01*
X111322428Y-72510765D01*
X111346227Y-72504804D01*
X111370495Y-72501204D01*
X111394999Y-72500000D01*
X111970001Y-72500000D01*
X111994505Y-72501204D01*
G37*
G36*
X99359505Y-70026204D02*
G01*
X99383773Y-70029804D01*
X99407572Y-70035765D01*
X99430671Y-70044030D01*
X99452850Y-70054520D01*
X99473893Y-70067132D01*
X99493599Y-70081747D01*
X99511777Y-70098223D01*
X99528253Y-70116401D01*
X99542868Y-70136107D01*
X99555480Y-70157150D01*
X99565970Y-70179329D01*
X99574235Y-70202428D01*
X99580196Y-70226227D01*
X99583796Y-70250495D01*
X99585000Y-70274999D01*
X99585000Y-70850001D01*
X99583796Y-70874505D01*
X99580196Y-70898773D01*
X99574235Y-70922572D01*
X99565970Y-70945671D01*
X99555480Y-70967850D01*
X99542868Y-70988893D01*
X99528253Y-71008599D01*
X99511777Y-71026777D01*
X99493599Y-71043253D01*
X99473893Y-71057868D01*
X99452850Y-71070480D01*
X99430671Y-71080970D01*
X99407572Y-71089235D01*
X99383773Y-71095196D01*
X99359505Y-71098796D01*
X99335001Y-71100000D01*
X98784999Y-71100000D01*
X98760495Y-71098796D01*
X98736227Y-71095196D01*
X98712428Y-71089235D01*
X98689329Y-71080970D01*
X98667150Y-71070480D01*
X98646107Y-71057868D01*
X98626401Y-71043253D01*
X98608223Y-71026777D01*
X98591747Y-71008599D01*
X98577132Y-70988893D01*
X98564520Y-70967850D01*
X98554030Y-70945671D01*
X98545765Y-70922572D01*
X98539804Y-70898773D01*
X98536204Y-70874505D01*
X98535000Y-70850001D01*
X98535000Y-70274999D01*
X98536204Y-70250495D01*
X98539804Y-70226227D01*
X98545765Y-70202428D01*
X98554030Y-70179329D01*
X98564520Y-70157150D01*
X98577132Y-70136107D01*
X98591747Y-70116401D01*
X98608223Y-70098223D01*
X98626401Y-70081747D01*
X98646107Y-70067132D01*
X98667150Y-70054520D01*
X98689329Y-70044030D01*
X98712428Y-70035765D01*
X98736227Y-70029804D01*
X98760495Y-70026204D01*
X98784999Y-70025000D01*
X99335001Y-70025000D01*
X99359505Y-70026204D01*
G37*
G36*
X99359505Y-68601204D02*
G01*
X99383773Y-68604804D01*
X99407572Y-68610765D01*
X99430671Y-68619030D01*
X99452850Y-68629520D01*
X99473893Y-68642132D01*
X99493599Y-68656747D01*
X99511777Y-68673223D01*
X99528253Y-68691401D01*
X99542868Y-68711107D01*
X99555480Y-68732150D01*
X99565970Y-68754329D01*
X99574235Y-68777428D01*
X99580196Y-68801227D01*
X99583796Y-68825495D01*
X99585000Y-68849999D01*
X99585000Y-69425001D01*
X99583796Y-69449505D01*
X99580196Y-69473773D01*
X99574235Y-69497572D01*
X99565970Y-69520671D01*
X99555480Y-69542850D01*
X99542868Y-69563893D01*
X99528253Y-69583599D01*
X99511777Y-69601777D01*
X99493599Y-69618253D01*
X99473893Y-69632868D01*
X99452850Y-69645480D01*
X99430671Y-69655970D01*
X99407572Y-69664235D01*
X99383773Y-69670196D01*
X99359505Y-69673796D01*
X99335001Y-69675000D01*
X98784999Y-69675000D01*
X98760495Y-69673796D01*
X98736227Y-69670196D01*
X98712428Y-69664235D01*
X98689329Y-69655970D01*
X98667150Y-69645480D01*
X98646107Y-69632868D01*
X98626401Y-69618253D01*
X98608223Y-69601777D01*
X98591747Y-69583599D01*
X98577132Y-69563893D01*
X98564520Y-69542850D01*
X98554030Y-69520671D01*
X98545765Y-69497572D01*
X98539804Y-69473773D01*
X98536204Y-69449505D01*
X98535000Y-69425001D01*
X98535000Y-68849999D01*
X98536204Y-68825495D01*
X98539804Y-68801227D01*
X98545765Y-68777428D01*
X98554030Y-68754329D01*
X98564520Y-68732150D01*
X98577132Y-68711107D01*
X98591747Y-68691401D01*
X98608223Y-68673223D01*
X98626401Y-68656747D01*
X98646107Y-68642132D01*
X98667150Y-68629520D01*
X98689329Y-68619030D01*
X98712428Y-68610765D01*
X98736227Y-68604804D01*
X98760495Y-68601204D01*
X98784999Y-68600000D01*
X99335001Y-68600000D01*
X99359505Y-68601204D01*
G37*
G36*
X93579505Y-98536204D02*
G01*
X93603773Y-98539804D01*
X93627572Y-98545765D01*
X93650671Y-98554030D01*
X93672850Y-98564520D01*
X93693893Y-98577132D01*
X93713599Y-98591747D01*
X93731777Y-98608223D01*
X93748253Y-98626401D01*
X93762868Y-98646107D01*
X93775480Y-98667150D01*
X93785970Y-98689329D01*
X93794235Y-98712428D01*
X93800196Y-98736227D01*
X93803796Y-98760495D01*
X93805000Y-98784999D01*
X93805000Y-99335001D01*
X93803796Y-99359505D01*
X93800196Y-99383773D01*
X93794235Y-99407572D01*
X93785970Y-99430671D01*
X93775480Y-99452850D01*
X93762868Y-99473893D01*
X93748253Y-99493599D01*
X93731777Y-99511777D01*
X93713599Y-99528253D01*
X93693893Y-99542868D01*
X93672850Y-99555480D01*
X93650671Y-99565970D01*
X93627572Y-99574235D01*
X93603773Y-99580196D01*
X93579505Y-99583796D01*
X93555001Y-99585000D01*
X92979999Y-99585000D01*
X92955495Y-99583796D01*
X92931227Y-99580196D01*
X92907428Y-99574235D01*
X92884329Y-99565970D01*
X92862150Y-99555480D01*
X92841107Y-99542868D01*
X92821401Y-99528253D01*
X92803223Y-99511777D01*
X92786747Y-99493599D01*
X92772132Y-99473893D01*
X92759520Y-99452850D01*
X92749030Y-99430671D01*
X92740765Y-99407572D01*
X92734804Y-99383773D01*
X92731204Y-99359505D01*
X92730000Y-99335001D01*
X92730000Y-98784999D01*
X92731204Y-98760495D01*
X92734804Y-98736227D01*
X92740765Y-98712428D01*
X92749030Y-98689329D01*
X92759520Y-98667150D01*
X92772132Y-98646107D01*
X92786747Y-98626401D01*
X92803223Y-98608223D01*
X92821401Y-98591747D01*
X92841107Y-98577132D01*
X92862150Y-98564520D01*
X92884329Y-98554030D01*
X92907428Y-98545765D01*
X92931227Y-98539804D01*
X92955495Y-98536204D01*
X92979999Y-98535000D01*
X93555001Y-98535000D01*
X93579505Y-98536204D01*
G37*
G36*
X95004505Y-98536204D02*
G01*
X95028773Y-98539804D01*
X95052572Y-98545765D01*
X95075671Y-98554030D01*
X95097850Y-98564520D01*
X95118893Y-98577132D01*
X95138599Y-98591747D01*
X95156777Y-98608223D01*
X95173253Y-98626401D01*
X95187868Y-98646107D01*
X95200480Y-98667150D01*
X95210970Y-98689329D01*
X95219235Y-98712428D01*
X95225196Y-98736227D01*
X95228796Y-98760495D01*
X95230000Y-98784999D01*
X95230000Y-99335001D01*
X95228796Y-99359505D01*
X95225196Y-99383773D01*
X95219235Y-99407572D01*
X95210970Y-99430671D01*
X95200480Y-99452850D01*
X95187868Y-99473893D01*
X95173253Y-99493599D01*
X95156777Y-99511777D01*
X95138599Y-99528253D01*
X95118893Y-99542868D01*
X95097850Y-99555480D01*
X95075671Y-99565970D01*
X95052572Y-99574235D01*
X95028773Y-99580196D01*
X95004505Y-99583796D01*
X94980001Y-99585000D01*
X94404999Y-99585000D01*
X94380495Y-99583796D01*
X94356227Y-99580196D01*
X94332428Y-99574235D01*
X94309329Y-99565970D01*
X94287150Y-99555480D01*
X94266107Y-99542868D01*
X94246401Y-99528253D01*
X94228223Y-99511777D01*
X94211747Y-99493599D01*
X94197132Y-99473893D01*
X94184520Y-99452850D01*
X94174030Y-99430671D01*
X94165765Y-99407572D01*
X94159804Y-99383773D01*
X94156204Y-99359505D01*
X94155000Y-99335001D01*
X94155000Y-98784999D01*
X94156204Y-98760495D01*
X94159804Y-98736227D01*
X94165765Y-98712428D01*
X94174030Y-98689329D01*
X94184520Y-98667150D01*
X94197132Y-98646107D01*
X94211747Y-98626401D01*
X94228223Y-98608223D01*
X94246401Y-98591747D01*
X94266107Y-98577132D01*
X94287150Y-98564520D01*
X94309329Y-98554030D01*
X94332428Y-98545765D01*
X94356227Y-98539804D01*
X94380495Y-98536204D01*
X94404999Y-98535000D01*
X94980001Y-98535000D01*
X95004505Y-98536204D01*
G37*
G36*
X107069505Y-102981204D02*
G01*
X107093773Y-102984804D01*
X107117572Y-102990765D01*
X107140671Y-102999030D01*
X107162850Y-103009520D01*
X107183893Y-103022132D01*
X107203599Y-103036747D01*
X107221777Y-103053223D01*
X107238253Y-103071401D01*
X107252868Y-103091107D01*
X107265480Y-103112150D01*
X107275970Y-103134329D01*
X107284235Y-103157428D01*
X107290196Y-103181227D01*
X107293796Y-103205495D01*
X107295000Y-103229999D01*
X107295000Y-103780001D01*
X107293796Y-103804505D01*
X107290196Y-103828773D01*
X107284235Y-103852572D01*
X107275970Y-103875671D01*
X107265480Y-103897850D01*
X107252868Y-103918893D01*
X107238253Y-103938599D01*
X107221777Y-103956777D01*
X107203599Y-103973253D01*
X107183893Y-103987868D01*
X107162850Y-104000480D01*
X107140671Y-104010970D01*
X107117572Y-104019235D01*
X107093773Y-104025196D01*
X107069505Y-104028796D01*
X107045001Y-104030000D01*
X106469999Y-104030000D01*
X106445495Y-104028796D01*
X106421227Y-104025196D01*
X106397428Y-104019235D01*
X106374329Y-104010970D01*
X106352150Y-104000480D01*
X106331107Y-103987868D01*
X106311401Y-103973253D01*
X106293223Y-103956777D01*
X106276747Y-103938599D01*
X106262132Y-103918893D01*
X106249520Y-103897850D01*
X106239030Y-103875671D01*
X106230765Y-103852572D01*
X106224804Y-103828773D01*
X106221204Y-103804505D01*
X106220000Y-103780001D01*
X106220000Y-103229999D01*
X106221204Y-103205495D01*
X106224804Y-103181227D01*
X106230765Y-103157428D01*
X106239030Y-103134329D01*
X106249520Y-103112150D01*
X106262132Y-103091107D01*
X106276747Y-103071401D01*
X106293223Y-103053223D01*
X106311401Y-103036747D01*
X106331107Y-103022132D01*
X106352150Y-103009520D01*
X106374329Y-102999030D01*
X106397428Y-102990765D01*
X106421227Y-102984804D01*
X106445495Y-102981204D01*
X106469999Y-102980000D01*
X107045001Y-102980000D01*
X107069505Y-102981204D01*
G37*
G36*
X105644505Y-102981204D02*
G01*
X105668773Y-102984804D01*
X105692572Y-102990765D01*
X105715671Y-102999030D01*
X105737850Y-103009520D01*
X105758893Y-103022132D01*
X105778599Y-103036747D01*
X105796777Y-103053223D01*
X105813253Y-103071401D01*
X105827868Y-103091107D01*
X105840480Y-103112150D01*
X105850970Y-103134329D01*
X105859235Y-103157428D01*
X105865196Y-103181227D01*
X105868796Y-103205495D01*
X105870000Y-103229999D01*
X105870000Y-103780001D01*
X105868796Y-103804505D01*
X105865196Y-103828773D01*
X105859235Y-103852572D01*
X105850970Y-103875671D01*
X105840480Y-103897850D01*
X105827868Y-103918893D01*
X105813253Y-103938599D01*
X105796777Y-103956777D01*
X105778599Y-103973253D01*
X105758893Y-103987868D01*
X105737850Y-104000480D01*
X105715671Y-104010970D01*
X105692572Y-104019235D01*
X105668773Y-104025196D01*
X105644505Y-104028796D01*
X105620001Y-104030000D01*
X105044999Y-104030000D01*
X105020495Y-104028796D01*
X104996227Y-104025196D01*
X104972428Y-104019235D01*
X104949329Y-104010970D01*
X104927150Y-104000480D01*
X104906107Y-103987868D01*
X104886401Y-103973253D01*
X104868223Y-103956777D01*
X104851747Y-103938599D01*
X104837132Y-103918893D01*
X104824520Y-103897850D01*
X104814030Y-103875671D01*
X104805765Y-103852572D01*
X104799804Y-103828773D01*
X104796204Y-103804505D01*
X104795000Y-103780001D01*
X104795000Y-103229999D01*
X104796204Y-103205495D01*
X104799804Y-103181227D01*
X104805765Y-103157428D01*
X104814030Y-103134329D01*
X104824520Y-103112150D01*
X104837132Y-103091107D01*
X104851747Y-103071401D01*
X104868223Y-103053223D01*
X104886401Y-103036747D01*
X104906107Y-103022132D01*
X104927150Y-103009520D01*
X104949329Y-102999030D01*
X104972428Y-102990765D01*
X104996227Y-102984804D01*
X105020495Y-102981204D01*
X105044999Y-102980000D01*
X105620001Y-102980000D01*
X105644505Y-102981204D01*
G37*
G36*
X111917005Y-99171204D02*
G01*
X111941273Y-99174804D01*
X111965072Y-99180765D01*
X111988171Y-99189030D01*
X112010350Y-99199520D01*
X112031393Y-99212132D01*
X112051099Y-99226747D01*
X112069277Y-99243223D01*
X112085753Y-99261401D01*
X112100368Y-99281107D01*
X112112980Y-99302150D01*
X112123470Y-99324329D01*
X112131735Y-99347428D01*
X112137696Y-99371227D01*
X112141296Y-99395495D01*
X112142500Y-99419999D01*
X112142500Y-99970001D01*
X112141296Y-99994505D01*
X112137696Y-100018773D01*
X112131735Y-100042572D01*
X112123470Y-100065671D01*
X112112980Y-100087850D01*
X112100368Y-100108893D01*
X112085753Y-100128599D01*
X112069277Y-100146777D01*
X112051099Y-100163253D01*
X112031393Y-100177868D01*
X112010350Y-100190480D01*
X111988171Y-100200970D01*
X111965072Y-100209235D01*
X111941273Y-100215196D01*
X111917005Y-100218796D01*
X111892501Y-100220000D01*
X111317499Y-100220000D01*
X111292995Y-100218796D01*
X111268727Y-100215196D01*
X111244928Y-100209235D01*
X111221829Y-100200970D01*
X111199650Y-100190480D01*
X111178607Y-100177868D01*
X111158901Y-100163253D01*
X111140723Y-100146777D01*
X111124247Y-100128599D01*
X111109632Y-100108893D01*
X111097020Y-100087850D01*
X111086530Y-100065671D01*
X111078265Y-100042572D01*
X111072304Y-100018773D01*
X111068704Y-99994505D01*
X111067500Y-99970001D01*
X111067500Y-99419999D01*
X111068704Y-99395495D01*
X111072304Y-99371227D01*
X111078265Y-99347428D01*
X111086530Y-99324329D01*
X111097020Y-99302150D01*
X111109632Y-99281107D01*
X111124247Y-99261401D01*
X111140723Y-99243223D01*
X111158901Y-99226747D01*
X111178607Y-99212132D01*
X111199650Y-99199520D01*
X111221829Y-99189030D01*
X111244928Y-99180765D01*
X111268727Y-99174804D01*
X111292995Y-99171204D01*
X111317499Y-99170000D01*
X111892501Y-99170000D01*
X111917005Y-99171204D01*
G37*
G36*
X113342005Y-99171204D02*
G01*
X113366273Y-99174804D01*
X113390072Y-99180765D01*
X113413171Y-99189030D01*
X113435350Y-99199520D01*
X113456393Y-99212132D01*
X113476099Y-99226747D01*
X113494277Y-99243223D01*
X113510753Y-99261401D01*
X113525368Y-99281107D01*
X113537980Y-99302150D01*
X113548470Y-99324329D01*
X113556735Y-99347428D01*
X113562696Y-99371227D01*
X113566296Y-99395495D01*
X113567500Y-99419999D01*
X113567500Y-99970001D01*
X113566296Y-99994505D01*
X113562696Y-100018773D01*
X113556735Y-100042572D01*
X113548470Y-100065671D01*
X113537980Y-100087850D01*
X113525368Y-100108893D01*
X113510753Y-100128599D01*
X113494277Y-100146777D01*
X113476099Y-100163253D01*
X113456393Y-100177868D01*
X113435350Y-100190480D01*
X113413171Y-100200970D01*
X113390072Y-100209235D01*
X113366273Y-100215196D01*
X113342005Y-100218796D01*
X113317501Y-100220000D01*
X112742499Y-100220000D01*
X112717995Y-100218796D01*
X112693727Y-100215196D01*
X112669928Y-100209235D01*
X112646829Y-100200970D01*
X112624650Y-100190480D01*
X112603607Y-100177868D01*
X112583901Y-100163253D01*
X112565723Y-100146777D01*
X112549247Y-100128599D01*
X112534632Y-100108893D01*
X112522020Y-100087850D01*
X112511530Y-100065671D01*
X112503265Y-100042572D01*
X112497304Y-100018773D01*
X112493704Y-99994505D01*
X112492500Y-99970001D01*
X112492500Y-99419999D01*
X112493704Y-99395495D01*
X112497304Y-99371227D01*
X112503265Y-99347428D01*
X112511530Y-99324329D01*
X112522020Y-99302150D01*
X112534632Y-99281107D01*
X112549247Y-99261401D01*
X112565723Y-99243223D01*
X112583901Y-99226747D01*
X112603607Y-99212132D01*
X112624650Y-99199520D01*
X112646829Y-99189030D01*
X112669928Y-99180765D01*
X112693727Y-99174804D01*
X112717995Y-99171204D01*
X112742499Y-99170000D01*
X113317501Y-99170000D01*
X113342005Y-99171204D01*
G37*
G36*
X99359505Y-95271204D02*
G01*
X99383773Y-95274804D01*
X99407572Y-95280765D01*
X99430671Y-95289030D01*
X99452850Y-95299520D01*
X99473893Y-95312132D01*
X99493599Y-95326747D01*
X99511777Y-95343223D01*
X99528253Y-95361401D01*
X99542868Y-95381107D01*
X99555480Y-95402150D01*
X99565970Y-95424329D01*
X99574235Y-95447428D01*
X99580196Y-95471227D01*
X99583796Y-95495495D01*
X99585000Y-95519999D01*
X99585000Y-96095001D01*
X99583796Y-96119505D01*
X99580196Y-96143773D01*
X99574235Y-96167572D01*
X99565970Y-96190671D01*
X99555480Y-96212850D01*
X99542868Y-96233893D01*
X99528253Y-96253599D01*
X99511777Y-96271777D01*
X99493599Y-96288253D01*
X99473893Y-96302868D01*
X99452850Y-96315480D01*
X99430671Y-96325970D01*
X99407572Y-96334235D01*
X99383773Y-96340196D01*
X99359505Y-96343796D01*
X99335001Y-96345000D01*
X98784999Y-96345000D01*
X98760495Y-96343796D01*
X98736227Y-96340196D01*
X98712428Y-96334235D01*
X98689329Y-96325970D01*
X98667150Y-96315480D01*
X98646107Y-96302868D01*
X98626401Y-96288253D01*
X98608223Y-96271777D01*
X98591747Y-96253599D01*
X98577132Y-96233893D01*
X98564520Y-96212850D01*
X98554030Y-96190671D01*
X98545765Y-96167572D01*
X98539804Y-96143773D01*
X98536204Y-96119505D01*
X98535000Y-96095001D01*
X98535000Y-95519999D01*
X98536204Y-95495495D01*
X98539804Y-95471227D01*
X98545765Y-95447428D01*
X98554030Y-95424329D01*
X98564520Y-95402150D01*
X98577132Y-95381107D01*
X98591747Y-95361401D01*
X98608223Y-95343223D01*
X98626401Y-95326747D01*
X98646107Y-95312132D01*
X98667150Y-95299520D01*
X98689329Y-95289030D01*
X98712428Y-95280765D01*
X98736227Y-95274804D01*
X98760495Y-95271204D01*
X98784999Y-95270000D01*
X99335001Y-95270000D01*
X99359505Y-95271204D01*
G37*
G36*
X99359505Y-96696204D02*
G01*
X99383773Y-96699804D01*
X99407572Y-96705765D01*
X99430671Y-96714030D01*
X99452850Y-96724520D01*
X99473893Y-96737132D01*
X99493599Y-96751747D01*
X99511777Y-96768223D01*
X99528253Y-96786401D01*
X99542868Y-96806107D01*
X99555480Y-96827150D01*
X99565970Y-96849329D01*
X99574235Y-96872428D01*
X99580196Y-96896227D01*
X99583796Y-96920495D01*
X99585000Y-96944999D01*
X99585000Y-97520001D01*
X99583796Y-97544505D01*
X99580196Y-97568773D01*
X99574235Y-97592572D01*
X99565970Y-97615671D01*
X99555480Y-97637850D01*
X99542868Y-97658893D01*
X99528253Y-97678599D01*
X99511777Y-97696777D01*
X99493599Y-97713253D01*
X99473893Y-97727868D01*
X99452850Y-97740480D01*
X99430671Y-97750970D01*
X99407572Y-97759235D01*
X99383773Y-97765196D01*
X99359505Y-97768796D01*
X99335001Y-97770000D01*
X98784999Y-97770000D01*
X98760495Y-97768796D01*
X98736227Y-97765196D01*
X98712428Y-97759235D01*
X98689329Y-97750970D01*
X98667150Y-97740480D01*
X98646107Y-97727868D01*
X98626401Y-97713253D01*
X98608223Y-97696777D01*
X98591747Y-97678599D01*
X98577132Y-97658893D01*
X98564520Y-97637850D01*
X98554030Y-97615671D01*
X98545765Y-97592572D01*
X98539804Y-97568773D01*
X98536204Y-97544505D01*
X98535000Y-97520001D01*
X98535000Y-96944999D01*
X98536204Y-96920495D01*
X98539804Y-96896227D01*
X98545765Y-96872428D01*
X98554030Y-96849329D01*
X98564520Y-96827150D01*
X98577132Y-96806107D01*
X98591747Y-96786401D01*
X98608223Y-96768223D01*
X98626401Y-96751747D01*
X98646107Y-96737132D01*
X98667150Y-96724520D01*
X98689329Y-96714030D01*
X98712428Y-96705765D01*
X98736227Y-96699804D01*
X98760495Y-96696204D01*
X98784999Y-96695000D01*
X99335001Y-96695000D01*
X99359505Y-96696204D01*
G37*
D11*
X103775000Y-68900000D03*
X103775000Y-70800000D03*
X105775000Y-69850000D03*
D10*
G36*
X81672691Y-62391053D02*
G01*
X81693926Y-62394203D01*
X81714750Y-62399419D01*
X81734962Y-62406651D01*
X81754368Y-62415830D01*
X81772781Y-62426866D01*
X81790024Y-62439654D01*
X81805930Y-62454070D01*
X81820346Y-62469976D01*
X81833134Y-62487219D01*
X81844170Y-62505632D01*
X81853349Y-62525038D01*
X81860581Y-62545250D01*
X81865797Y-62566074D01*
X81868947Y-62587309D01*
X81870000Y-62608750D01*
X81870000Y-63121250D01*
X81868947Y-63142691D01*
X81865797Y-63163926D01*
X81860581Y-63184750D01*
X81853349Y-63204962D01*
X81844170Y-63224368D01*
X81833134Y-63242781D01*
X81820346Y-63260024D01*
X81805930Y-63275930D01*
X81790024Y-63290346D01*
X81772781Y-63303134D01*
X81754368Y-63314170D01*
X81734962Y-63323349D01*
X81714750Y-63330581D01*
X81693926Y-63335797D01*
X81672691Y-63338947D01*
X81651250Y-63340000D01*
X81213750Y-63340000D01*
X81192309Y-63338947D01*
X81171074Y-63335797D01*
X81150250Y-63330581D01*
X81130038Y-63323349D01*
X81110632Y-63314170D01*
X81092219Y-63303134D01*
X81074976Y-63290346D01*
X81059070Y-63275930D01*
X81044654Y-63260024D01*
X81031866Y-63242781D01*
X81020830Y-63224368D01*
X81011651Y-63204962D01*
X81004419Y-63184750D01*
X80999203Y-63163926D01*
X80996053Y-63142691D01*
X80995000Y-63121250D01*
X80995000Y-62608750D01*
X80996053Y-62587309D01*
X80999203Y-62566074D01*
X81004419Y-62545250D01*
X81011651Y-62525038D01*
X81020830Y-62505632D01*
X81031866Y-62487219D01*
X81044654Y-62469976D01*
X81059070Y-62454070D01*
X81074976Y-62439654D01*
X81092219Y-62426866D01*
X81110632Y-62415830D01*
X81130038Y-62406651D01*
X81150250Y-62399419D01*
X81171074Y-62394203D01*
X81192309Y-62391053D01*
X81213750Y-62390000D01*
X81651250Y-62390000D01*
X81672691Y-62391053D01*
G37*
G36*
X80097691Y-62391053D02*
G01*
X80118926Y-62394203D01*
X80139750Y-62399419D01*
X80159962Y-62406651D01*
X80179368Y-62415830D01*
X80197781Y-62426866D01*
X80215024Y-62439654D01*
X80230930Y-62454070D01*
X80245346Y-62469976D01*
X80258134Y-62487219D01*
X80269170Y-62505632D01*
X80278349Y-62525038D01*
X80285581Y-62545250D01*
X80290797Y-62566074D01*
X80293947Y-62587309D01*
X80295000Y-62608750D01*
X80295000Y-63121250D01*
X80293947Y-63142691D01*
X80290797Y-63163926D01*
X80285581Y-63184750D01*
X80278349Y-63204962D01*
X80269170Y-63224368D01*
X80258134Y-63242781D01*
X80245346Y-63260024D01*
X80230930Y-63275930D01*
X80215024Y-63290346D01*
X80197781Y-63303134D01*
X80179368Y-63314170D01*
X80159962Y-63323349D01*
X80139750Y-63330581D01*
X80118926Y-63335797D01*
X80097691Y-63338947D01*
X80076250Y-63340000D01*
X79638750Y-63340000D01*
X79617309Y-63338947D01*
X79596074Y-63335797D01*
X79575250Y-63330581D01*
X79555038Y-63323349D01*
X79535632Y-63314170D01*
X79517219Y-63303134D01*
X79499976Y-63290346D01*
X79484070Y-63275930D01*
X79469654Y-63260024D01*
X79456866Y-63242781D01*
X79445830Y-63224368D01*
X79436651Y-63204962D01*
X79429419Y-63184750D01*
X79424203Y-63163926D01*
X79421053Y-63142691D01*
X79420000Y-63121250D01*
X79420000Y-62608750D01*
X79421053Y-62587309D01*
X79424203Y-62566074D01*
X79429419Y-62545250D01*
X79436651Y-62525038D01*
X79445830Y-62505632D01*
X79456866Y-62487219D01*
X79469654Y-62469976D01*
X79484070Y-62454070D01*
X79499976Y-62439654D01*
X79517219Y-62426866D01*
X79535632Y-62415830D01*
X79555038Y-62406651D01*
X79575250Y-62399419D01*
X79596074Y-62394203D01*
X79617309Y-62391053D01*
X79638750Y-62390000D01*
X80076250Y-62390000D01*
X80097691Y-62391053D01*
G37*
G36*
X80097691Y-58581053D02*
G01*
X80118926Y-58584203D01*
X80139750Y-58589419D01*
X80159962Y-58596651D01*
X80179368Y-58605830D01*
X80197781Y-58616866D01*
X80215024Y-58629654D01*
X80230930Y-58644070D01*
X80245346Y-58659976D01*
X80258134Y-58677219D01*
X80269170Y-58695632D01*
X80278349Y-58715038D01*
X80285581Y-58735250D01*
X80290797Y-58756074D01*
X80293947Y-58777309D01*
X80295000Y-58798750D01*
X80295000Y-59311250D01*
X80293947Y-59332691D01*
X80290797Y-59353926D01*
X80285581Y-59374750D01*
X80278349Y-59394962D01*
X80269170Y-59414368D01*
X80258134Y-59432781D01*
X80245346Y-59450024D01*
X80230930Y-59465930D01*
X80215024Y-59480346D01*
X80197781Y-59493134D01*
X80179368Y-59504170D01*
X80159962Y-59513349D01*
X80139750Y-59520581D01*
X80118926Y-59525797D01*
X80097691Y-59528947D01*
X80076250Y-59530000D01*
X79638750Y-59530000D01*
X79617309Y-59528947D01*
X79596074Y-59525797D01*
X79575250Y-59520581D01*
X79555038Y-59513349D01*
X79535632Y-59504170D01*
X79517219Y-59493134D01*
X79499976Y-59480346D01*
X79484070Y-59465930D01*
X79469654Y-59450024D01*
X79456866Y-59432781D01*
X79445830Y-59414368D01*
X79436651Y-59394962D01*
X79429419Y-59374750D01*
X79424203Y-59353926D01*
X79421053Y-59332691D01*
X79420000Y-59311250D01*
X79420000Y-58798750D01*
X79421053Y-58777309D01*
X79424203Y-58756074D01*
X79429419Y-58735250D01*
X79436651Y-58715038D01*
X79445830Y-58695632D01*
X79456866Y-58677219D01*
X79469654Y-58659976D01*
X79484070Y-58644070D01*
X79499976Y-58629654D01*
X79517219Y-58616866D01*
X79535632Y-58605830D01*
X79555038Y-58596651D01*
X79575250Y-58589419D01*
X79596074Y-58584203D01*
X79617309Y-58581053D01*
X79638750Y-58580000D01*
X80076250Y-58580000D01*
X80097691Y-58581053D01*
G37*
G36*
X81672691Y-58581053D02*
G01*
X81693926Y-58584203D01*
X81714750Y-58589419D01*
X81734962Y-58596651D01*
X81754368Y-58605830D01*
X81772781Y-58616866D01*
X81790024Y-58629654D01*
X81805930Y-58644070D01*
X81820346Y-58659976D01*
X81833134Y-58677219D01*
X81844170Y-58695632D01*
X81853349Y-58715038D01*
X81860581Y-58735250D01*
X81865797Y-58756074D01*
X81868947Y-58777309D01*
X81870000Y-58798750D01*
X81870000Y-59311250D01*
X81868947Y-59332691D01*
X81865797Y-59353926D01*
X81860581Y-59374750D01*
X81853349Y-59394962D01*
X81844170Y-59414368D01*
X81833134Y-59432781D01*
X81820346Y-59450024D01*
X81805930Y-59465930D01*
X81790024Y-59480346D01*
X81772781Y-59493134D01*
X81754368Y-59504170D01*
X81734962Y-59513349D01*
X81714750Y-59520581D01*
X81693926Y-59525797D01*
X81672691Y-59528947D01*
X81651250Y-59530000D01*
X81213750Y-59530000D01*
X81192309Y-59528947D01*
X81171074Y-59525797D01*
X81150250Y-59520581D01*
X81130038Y-59513349D01*
X81110632Y-59504170D01*
X81092219Y-59493134D01*
X81074976Y-59480346D01*
X81059070Y-59465930D01*
X81044654Y-59450024D01*
X81031866Y-59432781D01*
X81020830Y-59414368D01*
X81011651Y-59394962D01*
X81004419Y-59374750D01*
X80999203Y-59353926D01*
X80996053Y-59332691D01*
X80995000Y-59311250D01*
X80995000Y-58798750D01*
X80996053Y-58777309D01*
X80999203Y-58756074D01*
X81004419Y-58735250D01*
X81011651Y-58715038D01*
X81020830Y-58695632D01*
X81031866Y-58677219D01*
X81044654Y-58659976D01*
X81059070Y-58644070D01*
X81074976Y-58629654D01*
X81092219Y-58616866D01*
X81110632Y-58605830D01*
X81130038Y-58596651D01*
X81150250Y-58589419D01*
X81171074Y-58584203D01*
X81192309Y-58581053D01*
X81213750Y-58580000D01*
X81651250Y-58580000D01*
X81672691Y-58581053D01*
G37*
G36*
X81672691Y-54136053D02*
G01*
X81693926Y-54139203D01*
X81714750Y-54144419D01*
X81734962Y-54151651D01*
X81754368Y-54160830D01*
X81772781Y-54171866D01*
X81790024Y-54184654D01*
X81805930Y-54199070D01*
X81820346Y-54214976D01*
X81833134Y-54232219D01*
X81844170Y-54250632D01*
X81853349Y-54270038D01*
X81860581Y-54290250D01*
X81865797Y-54311074D01*
X81868947Y-54332309D01*
X81870000Y-54353750D01*
X81870000Y-54866250D01*
X81868947Y-54887691D01*
X81865797Y-54908926D01*
X81860581Y-54929750D01*
X81853349Y-54949962D01*
X81844170Y-54969368D01*
X81833134Y-54987781D01*
X81820346Y-55005024D01*
X81805930Y-55020930D01*
X81790024Y-55035346D01*
X81772781Y-55048134D01*
X81754368Y-55059170D01*
X81734962Y-55068349D01*
X81714750Y-55075581D01*
X81693926Y-55080797D01*
X81672691Y-55083947D01*
X81651250Y-55085000D01*
X81213750Y-55085000D01*
X81192309Y-55083947D01*
X81171074Y-55080797D01*
X81150250Y-55075581D01*
X81130038Y-55068349D01*
X81110632Y-55059170D01*
X81092219Y-55048134D01*
X81074976Y-55035346D01*
X81059070Y-55020930D01*
X81044654Y-55005024D01*
X81031866Y-54987781D01*
X81020830Y-54969368D01*
X81011651Y-54949962D01*
X81004419Y-54929750D01*
X80999203Y-54908926D01*
X80996053Y-54887691D01*
X80995000Y-54866250D01*
X80995000Y-54353750D01*
X80996053Y-54332309D01*
X80999203Y-54311074D01*
X81004419Y-54290250D01*
X81011651Y-54270038D01*
X81020830Y-54250632D01*
X81031866Y-54232219D01*
X81044654Y-54214976D01*
X81059070Y-54199070D01*
X81074976Y-54184654D01*
X81092219Y-54171866D01*
X81110632Y-54160830D01*
X81130038Y-54151651D01*
X81150250Y-54144419D01*
X81171074Y-54139203D01*
X81192309Y-54136053D01*
X81213750Y-54135000D01*
X81651250Y-54135000D01*
X81672691Y-54136053D01*
G37*
G36*
X80097691Y-54136053D02*
G01*
X80118926Y-54139203D01*
X80139750Y-54144419D01*
X80159962Y-54151651D01*
X80179368Y-54160830D01*
X80197781Y-54171866D01*
X80215024Y-54184654D01*
X80230930Y-54199070D01*
X80245346Y-54214976D01*
X80258134Y-54232219D01*
X80269170Y-54250632D01*
X80278349Y-54270038D01*
X80285581Y-54290250D01*
X80290797Y-54311074D01*
X80293947Y-54332309D01*
X80295000Y-54353750D01*
X80295000Y-54866250D01*
X80293947Y-54887691D01*
X80290797Y-54908926D01*
X80285581Y-54929750D01*
X80278349Y-54949962D01*
X80269170Y-54969368D01*
X80258134Y-54987781D01*
X80245346Y-55005024D01*
X80230930Y-55020930D01*
X80215024Y-55035346D01*
X80197781Y-55048134D01*
X80179368Y-55059170D01*
X80159962Y-55068349D01*
X80139750Y-55075581D01*
X80118926Y-55080797D01*
X80097691Y-55083947D01*
X80076250Y-55085000D01*
X79638750Y-55085000D01*
X79617309Y-55083947D01*
X79596074Y-55080797D01*
X79575250Y-55075581D01*
X79555038Y-55068349D01*
X79535632Y-55059170D01*
X79517219Y-55048134D01*
X79499976Y-55035346D01*
X79484070Y-55020930D01*
X79469654Y-55005024D01*
X79456866Y-54987781D01*
X79445830Y-54969368D01*
X79436651Y-54949962D01*
X79429419Y-54929750D01*
X79424203Y-54908926D01*
X79421053Y-54887691D01*
X79420000Y-54866250D01*
X79420000Y-54353750D01*
X79421053Y-54332309D01*
X79424203Y-54311074D01*
X79429419Y-54290250D01*
X79436651Y-54270038D01*
X79445830Y-54250632D01*
X79456866Y-54232219D01*
X79469654Y-54214976D01*
X79484070Y-54199070D01*
X79499976Y-54184654D01*
X79517219Y-54171866D01*
X79535632Y-54160830D01*
X79555038Y-54151651D01*
X79575250Y-54144419D01*
X79596074Y-54139203D01*
X79617309Y-54136053D01*
X79638750Y-54135000D01*
X80076250Y-54135000D01*
X80097691Y-54136053D01*
G37*
G36*
X80097691Y-50326053D02*
G01*
X80118926Y-50329203D01*
X80139750Y-50334419D01*
X80159962Y-50341651D01*
X80179368Y-50350830D01*
X80197781Y-50361866D01*
X80215024Y-50374654D01*
X80230930Y-50389070D01*
X80245346Y-50404976D01*
X80258134Y-50422219D01*
X80269170Y-50440632D01*
X80278349Y-50460038D01*
X80285581Y-50480250D01*
X80290797Y-50501074D01*
X80293947Y-50522309D01*
X80295000Y-50543750D01*
X80295000Y-51056250D01*
X80293947Y-51077691D01*
X80290797Y-51098926D01*
X80285581Y-51119750D01*
X80278349Y-51139962D01*
X80269170Y-51159368D01*
X80258134Y-51177781D01*
X80245346Y-51195024D01*
X80230930Y-51210930D01*
X80215024Y-51225346D01*
X80197781Y-51238134D01*
X80179368Y-51249170D01*
X80159962Y-51258349D01*
X80139750Y-51265581D01*
X80118926Y-51270797D01*
X80097691Y-51273947D01*
X80076250Y-51275000D01*
X79638750Y-51275000D01*
X79617309Y-51273947D01*
X79596074Y-51270797D01*
X79575250Y-51265581D01*
X79555038Y-51258349D01*
X79535632Y-51249170D01*
X79517219Y-51238134D01*
X79499976Y-51225346D01*
X79484070Y-51210930D01*
X79469654Y-51195024D01*
X79456866Y-51177781D01*
X79445830Y-51159368D01*
X79436651Y-51139962D01*
X79429419Y-51119750D01*
X79424203Y-51098926D01*
X79421053Y-51077691D01*
X79420000Y-51056250D01*
X79420000Y-50543750D01*
X79421053Y-50522309D01*
X79424203Y-50501074D01*
X79429419Y-50480250D01*
X79436651Y-50460038D01*
X79445830Y-50440632D01*
X79456866Y-50422219D01*
X79469654Y-50404976D01*
X79484070Y-50389070D01*
X79499976Y-50374654D01*
X79517219Y-50361866D01*
X79535632Y-50350830D01*
X79555038Y-50341651D01*
X79575250Y-50334419D01*
X79596074Y-50329203D01*
X79617309Y-50326053D01*
X79638750Y-50325000D01*
X80076250Y-50325000D01*
X80097691Y-50326053D01*
G37*
G36*
X81672691Y-50326053D02*
G01*
X81693926Y-50329203D01*
X81714750Y-50334419D01*
X81734962Y-50341651D01*
X81754368Y-50350830D01*
X81772781Y-50361866D01*
X81790024Y-50374654D01*
X81805930Y-50389070D01*
X81820346Y-50404976D01*
X81833134Y-50422219D01*
X81844170Y-50440632D01*
X81853349Y-50460038D01*
X81860581Y-50480250D01*
X81865797Y-50501074D01*
X81868947Y-50522309D01*
X81870000Y-50543750D01*
X81870000Y-51056250D01*
X81868947Y-51077691D01*
X81865797Y-51098926D01*
X81860581Y-51119750D01*
X81853349Y-51139962D01*
X81844170Y-51159368D01*
X81833134Y-51177781D01*
X81820346Y-51195024D01*
X81805930Y-51210930D01*
X81790024Y-51225346D01*
X81772781Y-51238134D01*
X81754368Y-51249170D01*
X81734962Y-51258349D01*
X81714750Y-51265581D01*
X81693926Y-51270797D01*
X81672691Y-51273947D01*
X81651250Y-51275000D01*
X81213750Y-51275000D01*
X81192309Y-51273947D01*
X81171074Y-51270797D01*
X81150250Y-51265581D01*
X81130038Y-51258349D01*
X81110632Y-51249170D01*
X81092219Y-51238134D01*
X81074976Y-51225346D01*
X81059070Y-51210930D01*
X81044654Y-51195024D01*
X81031866Y-51177781D01*
X81020830Y-51159368D01*
X81011651Y-51139962D01*
X81004419Y-51119750D01*
X80999203Y-51098926D01*
X80996053Y-51077691D01*
X80995000Y-51056250D01*
X80995000Y-50543750D01*
X80996053Y-50522309D01*
X80999203Y-50501074D01*
X81004419Y-50480250D01*
X81011651Y-50460038D01*
X81020830Y-50440632D01*
X81031866Y-50422219D01*
X81044654Y-50404976D01*
X81059070Y-50389070D01*
X81074976Y-50374654D01*
X81092219Y-50361866D01*
X81110632Y-50350830D01*
X81130038Y-50341651D01*
X81150250Y-50334419D01*
X81171074Y-50329203D01*
X81192309Y-50326053D01*
X81213750Y-50325000D01*
X81651250Y-50325000D01*
X81672691Y-50326053D01*
G37*
D11*
X105775000Y-96520000D03*
X103775000Y-97470000D03*
X103775000Y-95570000D03*
D10*
G36*
X80097691Y-96681053D02*
G01*
X80118926Y-96684203D01*
X80139750Y-96689419D01*
X80159962Y-96696651D01*
X80179368Y-96705830D01*
X80197781Y-96716866D01*
X80215024Y-96729654D01*
X80230930Y-96744070D01*
X80245346Y-96759976D01*
X80258134Y-96777219D01*
X80269170Y-96795632D01*
X80278349Y-96815038D01*
X80285581Y-96835250D01*
X80290797Y-96856074D01*
X80293947Y-96877309D01*
X80295000Y-96898750D01*
X80295000Y-97411250D01*
X80293947Y-97432691D01*
X80290797Y-97453926D01*
X80285581Y-97474750D01*
X80278349Y-97494962D01*
X80269170Y-97514368D01*
X80258134Y-97532781D01*
X80245346Y-97550024D01*
X80230930Y-97565930D01*
X80215024Y-97580346D01*
X80197781Y-97593134D01*
X80179368Y-97604170D01*
X80159962Y-97613349D01*
X80139750Y-97620581D01*
X80118926Y-97625797D01*
X80097691Y-97628947D01*
X80076250Y-97630000D01*
X79638750Y-97630000D01*
X79617309Y-97628947D01*
X79596074Y-97625797D01*
X79575250Y-97620581D01*
X79555038Y-97613349D01*
X79535632Y-97604170D01*
X79517219Y-97593134D01*
X79499976Y-97580346D01*
X79484070Y-97565930D01*
X79469654Y-97550024D01*
X79456866Y-97532781D01*
X79445830Y-97514368D01*
X79436651Y-97494962D01*
X79429419Y-97474750D01*
X79424203Y-97453926D01*
X79421053Y-97432691D01*
X79420000Y-97411250D01*
X79420000Y-96898750D01*
X79421053Y-96877309D01*
X79424203Y-96856074D01*
X79429419Y-96835250D01*
X79436651Y-96815038D01*
X79445830Y-96795632D01*
X79456866Y-96777219D01*
X79469654Y-96759976D01*
X79484070Y-96744070D01*
X79499976Y-96729654D01*
X79517219Y-96716866D01*
X79535632Y-96705830D01*
X79555038Y-96696651D01*
X79575250Y-96689419D01*
X79596074Y-96684203D01*
X79617309Y-96681053D01*
X79638750Y-96680000D01*
X80076250Y-96680000D01*
X80097691Y-96681053D01*
G37*
G36*
X81672691Y-96681053D02*
G01*
X81693926Y-96684203D01*
X81714750Y-96689419D01*
X81734962Y-96696651D01*
X81754368Y-96705830D01*
X81772781Y-96716866D01*
X81790024Y-96729654D01*
X81805930Y-96744070D01*
X81820346Y-96759976D01*
X81833134Y-96777219D01*
X81844170Y-96795632D01*
X81853349Y-96815038D01*
X81860581Y-96835250D01*
X81865797Y-96856074D01*
X81868947Y-96877309D01*
X81870000Y-96898750D01*
X81870000Y-97411250D01*
X81868947Y-97432691D01*
X81865797Y-97453926D01*
X81860581Y-97474750D01*
X81853349Y-97494962D01*
X81844170Y-97514368D01*
X81833134Y-97532781D01*
X81820346Y-97550024D01*
X81805930Y-97565930D01*
X81790024Y-97580346D01*
X81772781Y-97593134D01*
X81754368Y-97604170D01*
X81734962Y-97613349D01*
X81714750Y-97620581D01*
X81693926Y-97625797D01*
X81672691Y-97628947D01*
X81651250Y-97630000D01*
X81213750Y-97630000D01*
X81192309Y-97628947D01*
X81171074Y-97625797D01*
X81150250Y-97620581D01*
X81130038Y-97613349D01*
X81110632Y-97604170D01*
X81092219Y-97593134D01*
X81074976Y-97580346D01*
X81059070Y-97565930D01*
X81044654Y-97550024D01*
X81031866Y-97532781D01*
X81020830Y-97514368D01*
X81011651Y-97494962D01*
X81004419Y-97474750D01*
X80999203Y-97453926D01*
X80996053Y-97432691D01*
X80995000Y-97411250D01*
X80995000Y-96898750D01*
X80996053Y-96877309D01*
X80999203Y-96856074D01*
X81004419Y-96835250D01*
X81011651Y-96815038D01*
X81020830Y-96795632D01*
X81031866Y-96777219D01*
X81044654Y-96759976D01*
X81059070Y-96744070D01*
X81074976Y-96729654D01*
X81092219Y-96716866D01*
X81110632Y-96705830D01*
X81130038Y-96696651D01*
X81150250Y-96689419D01*
X81171074Y-96684203D01*
X81192309Y-96681053D01*
X81213750Y-96680000D01*
X81651250Y-96680000D01*
X81672691Y-96681053D01*
G37*
G36*
X81672691Y-100491053D02*
G01*
X81693926Y-100494203D01*
X81714750Y-100499419D01*
X81734962Y-100506651D01*
X81754368Y-100515830D01*
X81772781Y-100526866D01*
X81790024Y-100539654D01*
X81805930Y-100554070D01*
X81820346Y-100569976D01*
X81833134Y-100587219D01*
X81844170Y-100605632D01*
X81853349Y-100625038D01*
X81860581Y-100645250D01*
X81865797Y-100666074D01*
X81868947Y-100687309D01*
X81870000Y-100708750D01*
X81870000Y-101221250D01*
X81868947Y-101242691D01*
X81865797Y-101263926D01*
X81860581Y-101284750D01*
X81853349Y-101304962D01*
X81844170Y-101324368D01*
X81833134Y-101342781D01*
X81820346Y-101360024D01*
X81805930Y-101375930D01*
X81790024Y-101390346D01*
X81772781Y-101403134D01*
X81754368Y-101414170D01*
X81734962Y-101423349D01*
X81714750Y-101430581D01*
X81693926Y-101435797D01*
X81672691Y-101438947D01*
X81651250Y-101440000D01*
X81213750Y-101440000D01*
X81192309Y-101438947D01*
X81171074Y-101435797D01*
X81150250Y-101430581D01*
X81130038Y-101423349D01*
X81110632Y-101414170D01*
X81092219Y-101403134D01*
X81074976Y-101390346D01*
X81059070Y-101375930D01*
X81044654Y-101360024D01*
X81031866Y-101342781D01*
X81020830Y-101324368D01*
X81011651Y-101304962D01*
X81004419Y-101284750D01*
X80999203Y-101263926D01*
X80996053Y-101242691D01*
X80995000Y-101221250D01*
X80995000Y-100708750D01*
X80996053Y-100687309D01*
X80999203Y-100666074D01*
X81004419Y-100645250D01*
X81011651Y-100625038D01*
X81020830Y-100605632D01*
X81031866Y-100587219D01*
X81044654Y-100569976D01*
X81059070Y-100554070D01*
X81074976Y-100539654D01*
X81092219Y-100526866D01*
X81110632Y-100515830D01*
X81130038Y-100506651D01*
X81150250Y-100499419D01*
X81171074Y-100494203D01*
X81192309Y-100491053D01*
X81213750Y-100490000D01*
X81651250Y-100490000D01*
X81672691Y-100491053D01*
G37*
G36*
X80097691Y-100491053D02*
G01*
X80118926Y-100494203D01*
X80139750Y-100499419D01*
X80159962Y-100506651D01*
X80179368Y-100515830D01*
X80197781Y-100526866D01*
X80215024Y-100539654D01*
X80230930Y-100554070D01*
X80245346Y-100569976D01*
X80258134Y-100587219D01*
X80269170Y-100605632D01*
X80278349Y-100625038D01*
X80285581Y-100645250D01*
X80290797Y-100666074D01*
X80293947Y-100687309D01*
X80295000Y-100708750D01*
X80295000Y-101221250D01*
X80293947Y-101242691D01*
X80290797Y-101263926D01*
X80285581Y-101284750D01*
X80278349Y-101304962D01*
X80269170Y-101324368D01*
X80258134Y-101342781D01*
X80245346Y-101360024D01*
X80230930Y-101375930D01*
X80215024Y-101390346D01*
X80197781Y-101403134D01*
X80179368Y-101414170D01*
X80159962Y-101423349D01*
X80139750Y-101430581D01*
X80118926Y-101435797D01*
X80097691Y-101438947D01*
X80076250Y-101440000D01*
X79638750Y-101440000D01*
X79617309Y-101438947D01*
X79596074Y-101435797D01*
X79575250Y-101430581D01*
X79555038Y-101423349D01*
X79535632Y-101414170D01*
X79517219Y-101403134D01*
X79499976Y-101390346D01*
X79484070Y-101375930D01*
X79469654Y-101360024D01*
X79456866Y-101342781D01*
X79445830Y-101324368D01*
X79436651Y-101304962D01*
X79429419Y-101284750D01*
X79424203Y-101263926D01*
X79421053Y-101242691D01*
X79420000Y-101221250D01*
X79420000Y-100708750D01*
X79421053Y-100687309D01*
X79424203Y-100666074D01*
X79429419Y-100645250D01*
X79436651Y-100625038D01*
X79445830Y-100605632D01*
X79456866Y-100587219D01*
X79469654Y-100569976D01*
X79484070Y-100554070D01*
X79499976Y-100539654D01*
X79517219Y-100526866D01*
X79535632Y-100515830D01*
X79555038Y-100506651D01*
X79575250Y-100499419D01*
X79596074Y-100494203D01*
X79617309Y-100491053D01*
X79638750Y-100490000D01*
X80076250Y-100490000D01*
X80097691Y-100491053D01*
G37*
G36*
X80097691Y-105571053D02*
G01*
X80118926Y-105574203D01*
X80139750Y-105579419D01*
X80159962Y-105586651D01*
X80179368Y-105595830D01*
X80197781Y-105606866D01*
X80215024Y-105619654D01*
X80230930Y-105634070D01*
X80245346Y-105649976D01*
X80258134Y-105667219D01*
X80269170Y-105685632D01*
X80278349Y-105705038D01*
X80285581Y-105725250D01*
X80290797Y-105746074D01*
X80293947Y-105767309D01*
X80295000Y-105788750D01*
X80295000Y-106301250D01*
X80293947Y-106322691D01*
X80290797Y-106343926D01*
X80285581Y-106364750D01*
X80278349Y-106384962D01*
X80269170Y-106404368D01*
X80258134Y-106422781D01*
X80245346Y-106440024D01*
X80230930Y-106455930D01*
X80215024Y-106470346D01*
X80197781Y-106483134D01*
X80179368Y-106494170D01*
X80159962Y-106503349D01*
X80139750Y-106510581D01*
X80118926Y-106515797D01*
X80097691Y-106518947D01*
X80076250Y-106520000D01*
X79638750Y-106520000D01*
X79617309Y-106518947D01*
X79596074Y-106515797D01*
X79575250Y-106510581D01*
X79555038Y-106503349D01*
X79535632Y-106494170D01*
X79517219Y-106483134D01*
X79499976Y-106470346D01*
X79484070Y-106455930D01*
X79469654Y-106440024D01*
X79456866Y-106422781D01*
X79445830Y-106404368D01*
X79436651Y-106384962D01*
X79429419Y-106364750D01*
X79424203Y-106343926D01*
X79421053Y-106322691D01*
X79420000Y-106301250D01*
X79420000Y-105788750D01*
X79421053Y-105767309D01*
X79424203Y-105746074D01*
X79429419Y-105725250D01*
X79436651Y-105705038D01*
X79445830Y-105685632D01*
X79456866Y-105667219D01*
X79469654Y-105649976D01*
X79484070Y-105634070D01*
X79499976Y-105619654D01*
X79517219Y-105606866D01*
X79535632Y-105595830D01*
X79555038Y-105586651D01*
X79575250Y-105579419D01*
X79596074Y-105574203D01*
X79617309Y-105571053D01*
X79638750Y-105570000D01*
X80076250Y-105570000D01*
X80097691Y-105571053D01*
G37*
G36*
X81672691Y-105571053D02*
G01*
X81693926Y-105574203D01*
X81714750Y-105579419D01*
X81734962Y-105586651D01*
X81754368Y-105595830D01*
X81772781Y-105606866D01*
X81790024Y-105619654D01*
X81805930Y-105634070D01*
X81820346Y-105649976D01*
X81833134Y-105667219D01*
X81844170Y-105685632D01*
X81853349Y-105705038D01*
X81860581Y-105725250D01*
X81865797Y-105746074D01*
X81868947Y-105767309D01*
X81870000Y-105788750D01*
X81870000Y-106301250D01*
X81868947Y-106322691D01*
X81865797Y-106343926D01*
X81860581Y-106364750D01*
X81853349Y-106384962D01*
X81844170Y-106404368D01*
X81833134Y-106422781D01*
X81820346Y-106440024D01*
X81805930Y-106455930D01*
X81790024Y-106470346D01*
X81772781Y-106483134D01*
X81754368Y-106494170D01*
X81734962Y-106503349D01*
X81714750Y-106510581D01*
X81693926Y-106515797D01*
X81672691Y-106518947D01*
X81651250Y-106520000D01*
X81213750Y-106520000D01*
X81192309Y-106518947D01*
X81171074Y-106515797D01*
X81150250Y-106510581D01*
X81130038Y-106503349D01*
X81110632Y-106494170D01*
X81092219Y-106483134D01*
X81074976Y-106470346D01*
X81059070Y-106455930D01*
X81044654Y-106440024D01*
X81031866Y-106422781D01*
X81020830Y-106404368D01*
X81011651Y-106384962D01*
X81004419Y-106364750D01*
X80999203Y-106343926D01*
X80996053Y-106322691D01*
X80995000Y-106301250D01*
X80995000Y-105788750D01*
X80996053Y-105767309D01*
X80999203Y-105746074D01*
X81004419Y-105725250D01*
X81011651Y-105705038D01*
X81020830Y-105685632D01*
X81031866Y-105667219D01*
X81044654Y-105649976D01*
X81059070Y-105634070D01*
X81074976Y-105619654D01*
X81092219Y-105606866D01*
X81110632Y-105595830D01*
X81130038Y-105586651D01*
X81150250Y-105579419D01*
X81171074Y-105574203D01*
X81192309Y-105571053D01*
X81213750Y-105570000D01*
X81651250Y-105570000D01*
X81672691Y-105571053D01*
G37*
G36*
X81672691Y-109381053D02*
G01*
X81693926Y-109384203D01*
X81714750Y-109389419D01*
X81734962Y-109396651D01*
X81754368Y-109405830D01*
X81772781Y-109416866D01*
X81790024Y-109429654D01*
X81805930Y-109444070D01*
X81820346Y-109459976D01*
X81833134Y-109477219D01*
X81844170Y-109495632D01*
X81853349Y-109515038D01*
X81860581Y-109535250D01*
X81865797Y-109556074D01*
X81868947Y-109577309D01*
X81870000Y-109598750D01*
X81870000Y-110111250D01*
X81868947Y-110132691D01*
X81865797Y-110153926D01*
X81860581Y-110174750D01*
X81853349Y-110194962D01*
X81844170Y-110214368D01*
X81833134Y-110232781D01*
X81820346Y-110250024D01*
X81805930Y-110265930D01*
X81790024Y-110280346D01*
X81772781Y-110293134D01*
X81754368Y-110304170D01*
X81734962Y-110313349D01*
X81714750Y-110320581D01*
X81693926Y-110325797D01*
X81672691Y-110328947D01*
X81651250Y-110330000D01*
X81213750Y-110330000D01*
X81192309Y-110328947D01*
X81171074Y-110325797D01*
X81150250Y-110320581D01*
X81130038Y-110313349D01*
X81110632Y-110304170D01*
X81092219Y-110293134D01*
X81074976Y-110280346D01*
X81059070Y-110265930D01*
X81044654Y-110250024D01*
X81031866Y-110232781D01*
X81020830Y-110214368D01*
X81011651Y-110194962D01*
X81004419Y-110174750D01*
X80999203Y-110153926D01*
X80996053Y-110132691D01*
X80995000Y-110111250D01*
X80995000Y-109598750D01*
X80996053Y-109577309D01*
X80999203Y-109556074D01*
X81004419Y-109535250D01*
X81011651Y-109515038D01*
X81020830Y-109495632D01*
X81031866Y-109477219D01*
X81044654Y-109459976D01*
X81059070Y-109444070D01*
X81074976Y-109429654D01*
X81092219Y-109416866D01*
X81110632Y-109405830D01*
X81130038Y-109396651D01*
X81150250Y-109389419D01*
X81171074Y-109384203D01*
X81192309Y-109381053D01*
X81213750Y-109380000D01*
X81651250Y-109380000D01*
X81672691Y-109381053D01*
G37*
G36*
X80097691Y-109381053D02*
G01*
X80118926Y-109384203D01*
X80139750Y-109389419D01*
X80159962Y-109396651D01*
X80179368Y-109405830D01*
X80197781Y-109416866D01*
X80215024Y-109429654D01*
X80230930Y-109444070D01*
X80245346Y-109459976D01*
X80258134Y-109477219D01*
X80269170Y-109495632D01*
X80278349Y-109515038D01*
X80285581Y-109535250D01*
X80290797Y-109556074D01*
X80293947Y-109577309D01*
X80295000Y-109598750D01*
X80295000Y-110111250D01*
X80293947Y-110132691D01*
X80290797Y-110153926D01*
X80285581Y-110174750D01*
X80278349Y-110194962D01*
X80269170Y-110214368D01*
X80258134Y-110232781D01*
X80245346Y-110250024D01*
X80230930Y-110265930D01*
X80215024Y-110280346D01*
X80197781Y-110293134D01*
X80179368Y-110304170D01*
X80159962Y-110313349D01*
X80139750Y-110320581D01*
X80118926Y-110325797D01*
X80097691Y-110328947D01*
X80076250Y-110330000D01*
X79638750Y-110330000D01*
X79617309Y-110328947D01*
X79596074Y-110325797D01*
X79575250Y-110320581D01*
X79555038Y-110313349D01*
X79535632Y-110304170D01*
X79517219Y-110293134D01*
X79499976Y-110280346D01*
X79484070Y-110265930D01*
X79469654Y-110250024D01*
X79456866Y-110232781D01*
X79445830Y-110214368D01*
X79436651Y-110194962D01*
X79429419Y-110174750D01*
X79424203Y-110153926D01*
X79421053Y-110132691D01*
X79420000Y-110111250D01*
X79420000Y-109598750D01*
X79421053Y-109577309D01*
X79424203Y-109556074D01*
X79429419Y-109535250D01*
X79436651Y-109515038D01*
X79445830Y-109495632D01*
X79456866Y-109477219D01*
X79469654Y-109459976D01*
X79484070Y-109444070D01*
X79499976Y-109429654D01*
X79517219Y-109416866D01*
X79535632Y-109405830D01*
X79555038Y-109396651D01*
X79575250Y-109389419D01*
X79596074Y-109384203D01*
X79617309Y-109381053D01*
X79638750Y-109380000D01*
X80076250Y-109380000D01*
X80097691Y-109381053D01*
G37*
D12*
X107585000Y-59675000D03*
X107585000Y-60975000D03*
X109585000Y-60325000D03*
X108950000Y-88265000D03*
X106950000Y-88915000D03*
X106950000Y-87615000D03*
D10*
G36*
X95007691Y-66201053D02*
G01*
X95028926Y-66204203D01*
X95049750Y-66209419D01*
X95069962Y-66216651D01*
X95089368Y-66225830D01*
X95107781Y-66236866D01*
X95125024Y-66249654D01*
X95140930Y-66264070D01*
X95155346Y-66279976D01*
X95168134Y-66297219D01*
X95179170Y-66315632D01*
X95188349Y-66335038D01*
X95195581Y-66355250D01*
X95200797Y-66376074D01*
X95203947Y-66397309D01*
X95205000Y-66418750D01*
X95205000Y-66931250D01*
X95203947Y-66952691D01*
X95200797Y-66973926D01*
X95195581Y-66994750D01*
X95188349Y-67014962D01*
X95179170Y-67034368D01*
X95168134Y-67052781D01*
X95155346Y-67070024D01*
X95140930Y-67085930D01*
X95125024Y-67100346D01*
X95107781Y-67113134D01*
X95089368Y-67124170D01*
X95069962Y-67133349D01*
X95049750Y-67140581D01*
X95028926Y-67145797D01*
X95007691Y-67148947D01*
X94986250Y-67150000D01*
X94548750Y-67150000D01*
X94527309Y-67148947D01*
X94506074Y-67145797D01*
X94485250Y-67140581D01*
X94465038Y-67133349D01*
X94445632Y-67124170D01*
X94427219Y-67113134D01*
X94409976Y-67100346D01*
X94394070Y-67085930D01*
X94379654Y-67070024D01*
X94366866Y-67052781D01*
X94355830Y-67034368D01*
X94346651Y-67014962D01*
X94339419Y-66994750D01*
X94334203Y-66973926D01*
X94331053Y-66952691D01*
X94330000Y-66931250D01*
X94330000Y-66418750D01*
X94331053Y-66397309D01*
X94334203Y-66376074D01*
X94339419Y-66355250D01*
X94346651Y-66335038D01*
X94355830Y-66315632D01*
X94366866Y-66297219D01*
X94379654Y-66279976D01*
X94394070Y-66264070D01*
X94409976Y-66249654D01*
X94427219Y-66236866D01*
X94445632Y-66225830D01*
X94465038Y-66216651D01*
X94485250Y-66209419D01*
X94506074Y-66204203D01*
X94527309Y-66201053D01*
X94548750Y-66200000D01*
X94986250Y-66200000D01*
X95007691Y-66201053D01*
G37*
G36*
X93432691Y-66201053D02*
G01*
X93453926Y-66204203D01*
X93474750Y-66209419D01*
X93494962Y-66216651D01*
X93514368Y-66225830D01*
X93532781Y-66236866D01*
X93550024Y-66249654D01*
X93565930Y-66264070D01*
X93580346Y-66279976D01*
X93593134Y-66297219D01*
X93604170Y-66315632D01*
X93613349Y-66335038D01*
X93620581Y-66355250D01*
X93625797Y-66376074D01*
X93628947Y-66397309D01*
X93630000Y-66418750D01*
X93630000Y-66931250D01*
X93628947Y-66952691D01*
X93625797Y-66973926D01*
X93620581Y-66994750D01*
X93613349Y-67014962D01*
X93604170Y-67034368D01*
X93593134Y-67052781D01*
X93580346Y-67070024D01*
X93565930Y-67085930D01*
X93550024Y-67100346D01*
X93532781Y-67113134D01*
X93514368Y-67124170D01*
X93494962Y-67133349D01*
X93474750Y-67140581D01*
X93453926Y-67145797D01*
X93432691Y-67148947D01*
X93411250Y-67150000D01*
X92973750Y-67150000D01*
X92952309Y-67148947D01*
X92931074Y-67145797D01*
X92910250Y-67140581D01*
X92890038Y-67133349D01*
X92870632Y-67124170D01*
X92852219Y-67113134D01*
X92834976Y-67100346D01*
X92819070Y-67085930D01*
X92804654Y-67070024D01*
X92791866Y-67052781D01*
X92780830Y-67034368D01*
X92771651Y-67014962D01*
X92764419Y-66994750D01*
X92759203Y-66973926D01*
X92756053Y-66952691D01*
X92755000Y-66931250D01*
X92755000Y-66418750D01*
X92756053Y-66397309D01*
X92759203Y-66376074D01*
X92764419Y-66355250D01*
X92771651Y-66335038D01*
X92780830Y-66315632D01*
X92791866Y-66297219D01*
X92804654Y-66279976D01*
X92819070Y-66264070D01*
X92834976Y-66249654D01*
X92852219Y-66236866D01*
X92870632Y-66225830D01*
X92890038Y-66216651D01*
X92910250Y-66209419D01*
X92931074Y-66204203D01*
X92952309Y-66201053D01*
X92973750Y-66200000D01*
X93411250Y-66200000D01*
X93432691Y-66201053D01*
G37*
G36*
X109790191Y-64296053D02*
G01*
X109811426Y-64299203D01*
X109832250Y-64304419D01*
X109852462Y-64311651D01*
X109871868Y-64320830D01*
X109890281Y-64331866D01*
X109907524Y-64344654D01*
X109923430Y-64359070D01*
X109937846Y-64374976D01*
X109950634Y-64392219D01*
X109961670Y-64410632D01*
X109970849Y-64430038D01*
X109978081Y-64450250D01*
X109983297Y-64471074D01*
X109986447Y-64492309D01*
X109987500Y-64513750D01*
X109987500Y-65026250D01*
X109986447Y-65047691D01*
X109983297Y-65068926D01*
X109978081Y-65089750D01*
X109970849Y-65109962D01*
X109961670Y-65129368D01*
X109950634Y-65147781D01*
X109937846Y-65165024D01*
X109923430Y-65180930D01*
X109907524Y-65195346D01*
X109890281Y-65208134D01*
X109871868Y-65219170D01*
X109852462Y-65228349D01*
X109832250Y-65235581D01*
X109811426Y-65240797D01*
X109790191Y-65243947D01*
X109768750Y-65245000D01*
X109331250Y-65245000D01*
X109309809Y-65243947D01*
X109288574Y-65240797D01*
X109267750Y-65235581D01*
X109247538Y-65228349D01*
X109228132Y-65219170D01*
X109209719Y-65208134D01*
X109192476Y-65195346D01*
X109176570Y-65180930D01*
X109162154Y-65165024D01*
X109149366Y-65147781D01*
X109138330Y-65129368D01*
X109129151Y-65109962D01*
X109121919Y-65089750D01*
X109116703Y-65068926D01*
X109113553Y-65047691D01*
X109112500Y-65026250D01*
X109112500Y-64513750D01*
X109113553Y-64492309D01*
X109116703Y-64471074D01*
X109121919Y-64450250D01*
X109129151Y-64430038D01*
X109138330Y-64410632D01*
X109149366Y-64392219D01*
X109162154Y-64374976D01*
X109176570Y-64359070D01*
X109192476Y-64344654D01*
X109209719Y-64331866D01*
X109228132Y-64320830D01*
X109247538Y-64311651D01*
X109267750Y-64304419D01*
X109288574Y-64299203D01*
X109309809Y-64296053D01*
X109331250Y-64295000D01*
X109768750Y-64295000D01*
X109790191Y-64296053D01*
G37*
G36*
X111365191Y-64296053D02*
G01*
X111386426Y-64299203D01*
X111407250Y-64304419D01*
X111427462Y-64311651D01*
X111446868Y-64320830D01*
X111465281Y-64331866D01*
X111482524Y-64344654D01*
X111498430Y-64359070D01*
X111512846Y-64374976D01*
X111525634Y-64392219D01*
X111536670Y-64410632D01*
X111545849Y-64430038D01*
X111553081Y-64450250D01*
X111558297Y-64471074D01*
X111561447Y-64492309D01*
X111562500Y-64513750D01*
X111562500Y-65026250D01*
X111561447Y-65047691D01*
X111558297Y-65068926D01*
X111553081Y-65089750D01*
X111545849Y-65109962D01*
X111536670Y-65129368D01*
X111525634Y-65147781D01*
X111512846Y-65165024D01*
X111498430Y-65180930D01*
X111482524Y-65195346D01*
X111465281Y-65208134D01*
X111446868Y-65219170D01*
X111427462Y-65228349D01*
X111407250Y-65235581D01*
X111386426Y-65240797D01*
X111365191Y-65243947D01*
X111343750Y-65245000D01*
X110906250Y-65245000D01*
X110884809Y-65243947D01*
X110863574Y-65240797D01*
X110842750Y-65235581D01*
X110822538Y-65228349D01*
X110803132Y-65219170D01*
X110784719Y-65208134D01*
X110767476Y-65195346D01*
X110751570Y-65180930D01*
X110737154Y-65165024D01*
X110724366Y-65147781D01*
X110713330Y-65129368D01*
X110704151Y-65109962D01*
X110696919Y-65089750D01*
X110691703Y-65068926D01*
X110688553Y-65047691D01*
X110687500Y-65026250D01*
X110687500Y-64513750D01*
X110688553Y-64492309D01*
X110691703Y-64471074D01*
X110696919Y-64450250D01*
X110704151Y-64430038D01*
X110713330Y-64410632D01*
X110724366Y-64392219D01*
X110737154Y-64374976D01*
X110751570Y-64359070D01*
X110767476Y-64344654D01*
X110784719Y-64331866D01*
X110803132Y-64320830D01*
X110822538Y-64311651D01*
X110842750Y-64304419D01*
X110863574Y-64299203D01*
X110884809Y-64296053D01*
X110906250Y-64295000D01*
X111343750Y-64295000D01*
X111365191Y-64296053D01*
G37*
G36*
X101242691Y-65121053D02*
G01*
X101263926Y-65124203D01*
X101284750Y-65129419D01*
X101304962Y-65136651D01*
X101324368Y-65145830D01*
X101342781Y-65156866D01*
X101360024Y-65169654D01*
X101375930Y-65184070D01*
X101390346Y-65199976D01*
X101403134Y-65217219D01*
X101414170Y-65235632D01*
X101423349Y-65255038D01*
X101430581Y-65275250D01*
X101435797Y-65296074D01*
X101438947Y-65317309D01*
X101440000Y-65338750D01*
X101440000Y-65776250D01*
X101438947Y-65797691D01*
X101435797Y-65818926D01*
X101430581Y-65839750D01*
X101423349Y-65859962D01*
X101414170Y-65879368D01*
X101403134Y-65897781D01*
X101390346Y-65915024D01*
X101375930Y-65930930D01*
X101360024Y-65945346D01*
X101342781Y-65958134D01*
X101324368Y-65969170D01*
X101304962Y-65978349D01*
X101284750Y-65985581D01*
X101263926Y-65990797D01*
X101242691Y-65993947D01*
X101221250Y-65995000D01*
X100708750Y-65995000D01*
X100687309Y-65993947D01*
X100666074Y-65990797D01*
X100645250Y-65985581D01*
X100625038Y-65978349D01*
X100605632Y-65969170D01*
X100587219Y-65958134D01*
X100569976Y-65945346D01*
X100554070Y-65930930D01*
X100539654Y-65915024D01*
X100526866Y-65897781D01*
X100515830Y-65879368D01*
X100506651Y-65859962D01*
X100499419Y-65839750D01*
X100494203Y-65818926D01*
X100491053Y-65797691D01*
X100490000Y-65776250D01*
X100490000Y-65338750D01*
X100491053Y-65317309D01*
X100494203Y-65296074D01*
X100499419Y-65275250D01*
X100506651Y-65255038D01*
X100515830Y-65235632D01*
X100526866Y-65217219D01*
X100539654Y-65199976D01*
X100554070Y-65184070D01*
X100569976Y-65169654D01*
X100587219Y-65156866D01*
X100605632Y-65145830D01*
X100625038Y-65136651D01*
X100645250Y-65129419D01*
X100666074Y-65124203D01*
X100687309Y-65121053D01*
X100708750Y-65120000D01*
X101221250Y-65120000D01*
X101242691Y-65121053D01*
G37*
G36*
X101242691Y-63546053D02*
G01*
X101263926Y-63549203D01*
X101284750Y-63554419D01*
X101304962Y-63561651D01*
X101324368Y-63570830D01*
X101342781Y-63581866D01*
X101360024Y-63594654D01*
X101375930Y-63609070D01*
X101390346Y-63624976D01*
X101403134Y-63642219D01*
X101414170Y-63660632D01*
X101423349Y-63680038D01*
X101430581Y-63700250D01*
X101435797Y-63721074D01*
X101438947Y-63742309D01*
X101440000Y-63763750D01*
X101440000Y-64201250D01*
X101438947Y-64222691D01*
X101435797Y-64243926D01*
X101430581Y-64264750D01*
X101423349Y-64284962D01*
X101414170Y-64304368D01*
X101403134Y-64322781D01*
X101390346Y-64340024D01*
X101375930Y-64355930D01*
X101360024Y-64370346D01*
X101342781Y-64383134D01*
X101324368Y-64394170D01*
X101304962Y-64403349D01*
X101284750Y-64410581D01*
X101263926Y-64415797D01*
X101242691Y-64418947D01*
X101221250Y-64420000D01*
X100708750Y-64420000D01*
X100687309Y-64418947D01*
X100666074Y-64415797D01*
X100645250Y-64410581D01*
X100625038Y-64403349D01*
X100605632Y-64394170D01*
X100587219Y-64383134D01*
X100569976Y-64370346D01*
X100554070Y-64355930D01*
X100539654Y-64340024D01*
X100526866Y-64322781D01*
X100515830Y-64304368D01*
X100506651Y-64284962D01*
X100499419Y-64264750D01*
X100494203Y-64243926D01*
X100491053Y-64222691D01*
X100490000Y-64201250D01*
X100490000Y-63763750D01*
X100491053Y-63742309D01*
X100494203Y-63721074D01*
X100499419Y-63700250D01*
X100506651Y-63680038D01*
X100515830Y-63660632D01*
X100526866Y-63642219D01*
X100539654Y-63624976D01*
X100554070Y-63609070D01*
X100569976Y-63594654D01*
X100587219Y-63581866D01*
X100605632Y-63570830D01*
X100625038Y-63561651D01*
X100645250Y-63554419D01*
X100666074Y-63549203D01*
X100687309Y-63546053D01*
X100708750Y-63545000D01*
X101221250Y-63545000D01*
X101242691Y-63546053D01*
G37*
G36*
X75017691Y-62391053D02*
G01*
X75038926Y-62394203D01*
X75059750Y-62399419D01*
X75079962Y-62406651D01*
X75099368Y-62415830D01*
X75117781Y-62426866D01*
X75135024Y-62439654D01*
X75150930Y-62454070D01*
X75165346Y-62469976D01*
X75178134Y-62487219D01*
X75189170Y-62505632D01*
X75198349Y-62525038D01*
X75205581Y-62545250D01*
X75210797Y-62566074D01*
X75213947Y-62587309D01*
X75215000Y-62608750D01*
X75215000Y-63121250D01*
X75213947Y-63142691D01*
X75210797Y-63163926D01*
X75205581Y-63184750D01*
X75198349Y-63204962D01*
X75189170Y-63224368D01*
X75178134Y-63242781D01*
X75165346Y-63260024D01*
X75150930Y-63275930D01*
X75135024Y-63290346D01*
X75117781Y-63303134D01*
X75099368Y-63314170D01*
X75079962Y-63323349D01*
X75059750Y-63330581D01*
X75038926Y-63335797D01*
X75017691Y-63338947D01*
X74996250Y-63340000D01*
X74558750Y-63340000D01*
X74537309Y-63338947D01*
X74516074Y-63335797D01*
X74495250Y-63330581D01*
X74475038Y-63323349D01*
X74455632Y-63314170D01*
X74437219Y-63303134D01*
X74419976Y-63290346D01*
X74404070Y-63275930D01*
X74389654Y-63260024D01*
X74376866Y-63242781D01*
X74365830Y-63224368D01*
X74356651Y-63204962D01*
X74349419Y-63184750D01*
X74344203Y-63163926D01*
X74341053Y-63142691D01*
X74340000Y-63121250D01*
X74340000Y-62608750D01*
X74341053Y-62587309D01*
X74344203Y-62566074D01*
X74349419Y-62545250D01*
X74356651Y-62525038D01*
X74365830Y-62505632D01*
X74376866Y-62487219D01*
X74389654Y-62469976D01*
X74404070Y-62454070D01*
X74419976Y-62439654D01*
X74437219Y-62426866D01*
X74455632Y-62415830D01*
X74475038Y-62406651D01*
X74495250Y-62399419D01*
X74516074Y-62394203D01*
X74537309Y-62391053D01*
X74558750Y-62390000D01*
X74996250Y-62390000D01*
X75017691Y-62391053D01*
G37*
G36*
X76592691Y-62391053D02*
G01*
X76613926Y-62394203D01*
X76634750Y-62399419D01*
X76654962Y-62406651D01*
X76674368Y-62415830D01*
X76692781Y-62426866D01*
X76710024Y-62439654D01*
X76725930Y-62454070D01*
X76740346Y-62469976D01*
X76753134Y-62487219D01*
X76764170Y-62505632D01*
X76773349Y-62525038D01*
X76780581Y-62545250D01*
X76785797Y-62566074D01*
X76788947Y-62587309D01*
X76790000Y-62608750D01*
X76790000Y-63121250D01*
X76788947Y-63142691D01*
X76785797Y-63163926D01*
X76780581Y-63184750D01*
X76773349Y-63204962D01*
X76764170Y-63224368D01*
X76753134Y-63242781D01*
X76740346Y-63260024D01*
X76725930Y-63275930D01*
X76710024Y-63290346D01*
X76692781Y-63303134D01*
X76674368Y-63314170D01*
X76654962Y-63323349D01*
X76634750Y-63330581D01*
X76613926Y-63335797D01*
X76592691Y-63338947D01*
X76571250Y-63340000D01*
X76133750Y-63340000D01*
X76112309Y-63338947D01*
X76091074Y-63335797D01*
X76070250Y-63330581D01*
X76050038Y-63323349D01*
X76030632Y-63314170D01*
X76012219Y-63303134D01*
X75994976Y-63290346D01*
X75979070Y-63275930D01*
X75964654Y-63260024D01*
X75951866Y-63242781D01*
X75940830Y-63224368D01*
X75931651Y-63204962D01*
X75924419Y-63184750D01*
X75919203Y-63163926D01*
X75916053Y-63142691D01*
X75915000Y-63121250D01*
X75915000Y-62608750D01*
X75916053Y-62587309D01*
X75919203Y-62566074D01*
X75924419Y-62545250D01*
X75931651Y-62525038D01*
X75940830Y-62505632D01*
X75951866Y-62487219D01*
X75964654Y-62469976D01*
X75979070Y-62454070D01*
X75994976Y-62439654D01*
X76012219Y-62426866D01*
X76030632Y-62415830D01*
X76050038Y-62406651D01*
X76070250Y-62399419D01*
X76091074Y-62394203D01*
X76112309Y-62391053D01*
X76133750Y-62390000D01*
X76571250Y-62390000D01*
X76592691Y-62391053D01*
G37*
G36*
X76592691Y-58581053D02*
G01*
X76613926Y-58584203D01*
X76634750Y-58589419D01*
X76654962Y-58596651D01*
X76674368Y-58605830D01*
X76692781Y-58616866D01*
X76710024Y-58629654D01*
X76725930Y-58644070D01*
X76740346Y-58659976D01*
X76753134Y-58677219D01*
X76764170Y-58695632D01*
X76773349Y-58715038D01*
X76780581Y-58735250D01*
X76785797Y-58756074D01*
X76788947Y-58777309D01*
X76790000Y-58798750D01*
X76790000Y-59311250D01*
X76788947Y-59332691D01*
X76785797Y-59353926D01*
X76780581Y-59374750D01*
X76773349Y-59394962D01*
X76764170Y-59414368D01*
X76753134Y-59432781D01*
X76740346Y-59450024D01*
X76725930Y-59465930D01*
X76710024Y-59480346D01*
X76692781Y-59493134D01*
X76674368Y-59504170D01*
X76654962Y-59513349D01*
X76634750Y-59520581D01*
X76613926Y-59525797D01*
X76592691Y-59528947D01*
X76571250Y-59530000D01*
X76133750Y-59530000D01*
X76112309Y-59528947D01*
X76091074Y-59525797D01*
X76070250Y-59520581D01*
X76050038Y-59513349D01*
X76030632Y-59504170D01*
X76012219Y-59493134D01*
X75994976Y-59480346D01*
X75979070Y-59465930D01*
X75964654Y-59450024D01*
X75951866Y-59432781D01*
X75940830Y-59414368D01*
X75931651Y-59394962D01*
X75924419Y-59374750D01*
X75919203Y-59353926D01*
X75916053Y-59332691D01*
X75915000Y-59311250D01*
X75915000Y-58798750D01*
X75916053Y-58777309D01*
X75919203Y-58756074D01*
X75924419Y-58735250D01*
X75931651Y-58715038D01*
X75940830Y-58695632D01*
X75951866Y-58677219D01*
X75964654Y-58659976D01*
X75979070Y-58644070D01*
X75994976Y-58629654D01*
X76012219Y-58616866D01*
X76030632Y-58605830D01*
X76050038Y-58596651D01*
X76070250Y-58589419D01*
X76091074Y-58584203D01*
X76112309Y-58581053D01*
X76133750Y-58580000D01*
X76571250Y-58580000D01*
X76592691Y-58581053D01*
G37*
G36*
X75017691Y-58581053D02*
G01*
X75038926Y-58584203D01*
X75059750Y-58589419D01*
X75079962Y-58596651D01*
X75099368Y-58605830D01*
X75117781Y-58616866D01*
X75135024Y-58629654D01*
X75150930Y-58644070D01*
X75165346Y-58659976D01*
X75178134Y-58677219D01*
X75189170Y-58695632D01*
X75198349Y-58715038D01*
X75205581Y-58735250D01*
X75210797Y-58756074D01*
X75213947Y-58777309D01*
X75215000Y-58798750D01*
X75215000Y-59311250D01*
X75213947Y-59332691D01*
X75210797Y-59353926D01*
X75205581Y-59374750D01*
X75198349Y-59394962D01*
X75189170Y-59414368D01*
X75178134Y-59432781D01*
X75165346Y-59450024D01*
X75150930Y-59465930D01*
X75135024Y-59480346D01*
X75117781Y-59493134D01*
X75099368Y-59504170D01*
X75079962Y-59513349D01*
X75059750Y-59520581D01*
X75038926Y-59525797D01*
X75017691Y-59528947D01*
X74996250Y-59530000D01*
X74558750Y-59530000D01*
X74537309Y-59528947D01*
X74516074Y-59525797D01*
X74495250Y-59520581D01*
X74475038Y-59513349D01*
X74455632Y-59504170D01*
X74437219Y-59493134D01*
X74419976Y-59480346D01*
X74404070Y-59465930D01*
X74389654Y-59450024D01*
X74376866Y-59432781D01*
X74365830Y-59414368D01*
X74356651Y-59394962D01*
X74349419Y-59374750D01*
X74344203Y-59353926D01*
X74341053Y-59332691D01*
X74340000Y-59311250D01*
X74340000Y-58798750D01*
X74341053Y-58777309D01*
X74344203Y-58756074D01*
X74349419Y-58735250D01*
X74356651Y-58715038D01*
X74365830Y-58695632D01*
X74376866Y-58677219D01*
X74389654Y-58659976D01*
X74404070Y-58644070D01*
X74419976Y-58629654D01*
X74437219Y-58616866D01*
X74455632Y-58605830D01*
X74475038Y-58596651D01*
X74495250Y-58589419D01*
X74516074Y-58584203D01*
X74537309Y-58581053D01*
X74558750Y-58580000D01*
X74996250Y-58580000D01*
X75017691Y-58581053D01*
G37*
G36*
X75017691Y-54136053D02*
G01*
X75038926Y-54139203D01*
X75059750Y-54144419D01*
X75079962Y-54151651D01*
X75099368Y-54160830D01*
X75117781Y-54171866D01*
X75135024Y-54184654D01*
X75150930Y-54199070D01*
X75165346Y-54214976D01*
X75178134Y-54232219D01*
X75189170Y-54250632D01*
X75198349Y-54270038D01*
X75205581Y-54290250D01*
X75210797Y-54311074D01*
X75213947Y-54332309D01*
X75215000Y-54353750D01*
X75215000Y-54866250D01*
X75213947Y-54887691D01*
X75210797Y-54908926D01*
X75205581Y-54929750D01*
X75198349Y-54949962D01*
X75189170Y-54969368D01*
X75178134Y-54987781D01*
X75165346Y-55005024D01*
X75150930Y-55020930D01*
X75135024Y-55035346D01*
X75117781Y-55048134D01*
X75099368Y-55059170D01*
X75079962Y-55068349D01*
X75059750Y-55075581D01*
X75038926Y-55080797D01*
X75017691Y-55083947D01*
X74996250Y-55085000D01*
X74558750Y-55085000D01*
X74537309Y-55083947D01*
X74516074Y-55080797D01*
X74495250Y-55075581D01*
X74475038Y-55068349D01*
X74455632Y-55059170D01*
X74437219Y-55048134D01*
X74419976Y-55035346D01*
X74404070Y-55020930D01*
X74389654Y-55005024D01*
X74376866Y-54987781D01*
X74365830Y-54969368D01*
X74356651Y-54949962D01*
X74349419Y-54929750D01*
X74344203Y-54908926D01*
X74341053Y-54887691D01*
X74340000Y-54866250D01*
X74340000Y-54353750D01*
X74341053Y-54332309D01*
X74344203Y-54311074D01*
X74349419Y-54290250D01*
X74356651Y-54270038D01*
X74365830Y-54250632D01*
X74376866Y-54232219D01*
X74389654Y-54214976D01*
X74404070Y-54199070D01*
X74419976Y-54184654D01*
X74437219Y-54171866D01*
X74455632Y-54160830D01*
X74475038Y-54151651D01*
X74495250Y-54144419D01*
X74516074Y-54139203D01*
X74537309Y-54136053D01*
X74558750Y-54135000D01*
X74996250Y-54135000D01*
X75017691Y-54136053D01*
G37*
G36*
X76592691Y-54136053D02*
G01*
X76613926Y-54139203D01*
X76634750Y-54144419D01*
X76654962Y-54151651D01*
X76674368Y-54160830D01*
X76692781Y-54171866D01*
X76710024Y-54184654D01*
X76725930Y-54199070D01*
X76740346Y-54214976D01*
X76753134Y-54232219D01*
X76764170Y-54250632D01*
X76773349Y-54270038D01*
X76780581Y-54290250D01*
X76785797Y-54311074D01*
X76788947Y-54332309D01*
X76790000Y-54353750D01*
X76790000Y-54866250D01*
X76788947Y-54887691D01*
X76785797Y-54908926D01*
X76780581Y-54929750D01*
X76773349Y-54949962D01*
X76764170Y-54969368D01*
X76753134Y-54987781D01*
X76740346Y-55005024D01*
X76725930Y-55020930D01*
X76710024Y-55035346D01*
X76692781Y-55048134D01*
X76674368Y-55059170D01*
X76654962Y-55068349D01*
X76634750Y-55075581D01*
X76613926Y-55080797D01*
X76592691Y-55083947D01*
X76571250Y-55085000D01*
X76133750Y-55085000D01*
X76112309Y-55083947D01*
X76091074Y-55080797D01*
X76070250Y-55075581D01*
X76050038Y-55068349D01*
X76030632Y-55059170D01*
X76012219Y-55048134D01*
X75994976Y-55035346D01*
X75979070Y-55020930D01*
X75964654Y-55005024D01*
X75951866Y-54987781D01*
X75940830Y-54969368D01*
X75931651Y-54949962D01*
X75924419Y-54929750D01*
X75919203Y-54908926D01*
X75916053Y-54887691D01*
X75915000Y-54866250D01*
X75915000Y-54353750D01*
X75916053Y-54332309D01*
X75919203Y-54311074D01*
X75924419Y-54290250D01*
X75931651Y-54270038D01*
X75940830Y-54250632D01*
X75951866Y-54232219D01*
X75964654Y-54214976D01*
X75979070Y-54199070D01*
X75994976Y-54184654D01*
X76012219Y-54171866D01*
X76030632Y-54160830D01*
X76050038Y-54151651D01*
X76070250Y-54144419D01*
X76091074Y-54139203D01*
X76112309Y-54136053D01*
X76133750Y-54135000D01*
X76571250Y-54135000D01*
X76592691Y-54136053D01*
G37*
G36*
X75017691Y-50326053D02*
G01*
X75038926Y-50329203D01*
X75059750Y-50334419D01*
X75079962Y-50341651D01*
X75099368Y-50350830D01*
X75117781Y-50361866D01*
X75135024Y-50374654D01*
X75150930Y-50389070D01*
X75165346Y-50404976D01*
X75178134Y-50422219D01*
X75189170Y-50440632D01*
X75198349Y-50460038D01*
X75205581Y-50480250D01*
X75210797Y-50501074D01*
X75213947Y-50522309D01*
X75215000Y-50543750D01*
X75215000Y-51056250D01*
X75213947Y-51077691D01*
X75210797Y-51098926D01*
X75205581Y-51119750D01*
X75198349Y-51139962D01*
X75189170Y-51159368D01*
X75178134Y-51177781D01*
X75165346Y-51195024D01*
X75150930Y-51210930D01*
X75135024Y-51225346D01*
X75117781Y-51238134D01*
X75099368Y-51249170D01*
X75079962Y-51258349D01*
X75059750Y-51265581D01*
X75038926Y-51270797D01*
X75017691Y-51273947D01*
X74996250Y-51275000D01*
X74558750Y-51275000D01*
X74537309Y-51273947D01*
X74516074Y-51270797D01*
X74495250Y-51265581D01*
X74475038Y-51258349D01*
X74455632Y-51249170D01*
X74437219Y-51238134D01*
X74419976Y-51225346D01*
X74404070Y-51210930D01*
X74389654Y-51195024D01*
X74376866Y-51177781D01*
X74365830Y-51159368D01*
X74356651Y-51139962D01*
X74349419Y-51119750D01*
X74344203Y-51098926D01*
X74341053Y-51077691D01*
X74340000Y-51056250D01*
X74340000Y-50543750D01*
X74341053Y-50522309D01*
X74344203Y-50501074D01*
X74349419Y-50480250D01*
X74356651Y-50460038D01*
X74365830Y-50440632D01*
X74376866Y-50422219D01*
X74389654Y-50404976D01*
X74404070Y-50389070D01*
X74419976Y-50374654D01*
X74437219Y-50361866D01*
X74455632Y-50350830D01*
X74475038Y-50341651D01*
X74495250Y-50334419D01*
X74516074Y-50329203D01*
X74537309Y-50326053D01*
X74558750Y-50325000D01*
X74996250Y-50325000D01*
X75017691Y-50326053D01*
G37*
G36*
X76592691Y-50326053D02*
G01*
X76613926Y-50329203D01*
X76634750Y-50334419D01*
X76654962Y-50341651D01*
X76674368Y-50350830D01*
X76692781Y-50361866D01*
X76710024Y-50374654D01*
X76725930Y-50389070D01*
X76740346Y-50404976D01*
X76753134Y-50422219D01*
X76764170Y-50440632D01*
X76773349Y-50460038D01*
X76780581Y-50480250D01*
X76785797Y-50501074D01*
X76788947Y-50522309D01*
X76790000Y-50543750D01*
X76790000Y-51056250D01*
X76788947Y-51077691D01*
X76785797Y-51098926D01*
X76780581Y-51119750D01*
X76773349Y-51139962D01*
X76764170Y-51159368D01*
X76753134Y-51177781D01*
X76740346Y-51195024D01*
X76725930Y-51210930D01*
X76710024Y-51225346D01*
X76692781Y-51238134D01*
X76674368Y-51249170D01*
X76654962Y-51258349D01*
X76634750Y-51265581D01*
X76613926Y-51270797D01*
X76592691Y-51273947D01*
X76571250Y-51275000D01*
X76133750Y-51275000D01*
X76112309Y-51273947D01*
X76091074Y-51270797D01*
X76070250Y-51265581D01*
X76050038Y-51258349D01*
X76030632Y-51249170D01*
X76012219Y-51238134D01*
X75994976Y-51225346D01*
X75979070Y-51210930D01*
X75964654Y-51195024D01*
X75951866Y-51177781D01*
X75940830Y-51159368D01*
X75931651Y-51139962D01*
X75924419Y-51119750D01*
X75919203Y-51098926D01*
X75916053Y-51077691D01*
X75915000Y-51056250D01*
X75915000Y-50543750D01*
X75916053Y-50522309D01*
X75919203Y-50501074D01*
X75924419Y-50480250D01*
X75931651Y-50460038D01*
X75940830Y-50440632D01*
X75951866Y-50422219D01*
X75964654Y-50404976D01*
X75979070Y-50389070D01*
X75994976Y-50374654D01*
X76012219Y-50361866D01*
X76030632Y-50350830D01*
X76050038Y-50341651D01*
X76070250Y-50334419D01*
X76091074Y-50329203D01*
X76112309Y-50326053D01*
X76133750Y-50325000D01*
X76571250Y-50325000D01*
X76592691Y-50326053D01*
G37*
G36*
X95007691Y-92236053D02*
G01*
X95028926Y-92239203D01*
X95049750Y-92244419D01*
X95069962Y-92251651D01*
X95089368Y-92260830D01*
X95107781Y-92271866D01*
X95125024Y-92284654D01*
X95140930Y-92299070D01*
X95155346Y-92314976D01*
X95168134Y-92332219D01*
X95179170Y-92350632D01*
X95188349Y-92370038D01*
X95195581Y-92390250D01*
X95200797Y-92411074D01*
X95203947Y-92432309D01*
X95205000Y-92453750D01*
X95205000Y-92966250D01*
X95203947Y-92987691D01*
X95200797Y-93008926D01*
X95195581Y-93029750D01*
X95188349Y-93049962D01*
X95179170Y-93069368D01*
X95168134Y-93087781D01*
X95155346Y-93105024D01*
X95140930Y-93120930D01*
X95125024Y-93135346D01*
X95107781Y-93148134D01*
X95089368Y-93159170D01*
X95069962Y-93168349D01*
X95049750Y-93175581D01*
X95028926Y-93180797D01*
X95007691Y-93183947D01*
X94986250Y-93185000D01*
X94548750Y-93185000D01*
X94527309Y-93183947D01*
X94506074Y-93180797D01*
X94485250Y-93175581D01*
X94465038Y-93168349D01*
X94445632Y-93159170D01*
X94427219Y-93148134D01*
X94409976Y-93135346D01*
X94394070Y-93120930D01*
X94379654Y-93105024D01*
X94366866Y-93087781D01*
X94355830Y-93069368D01*
X94346651Y-93049962D01*
X94339419Y-93029750D01*
X94334203Y-93008926D01*
X94331053Y-92987691D01*
X94330000Y-92966250D01*
X94330000Y-92453750D01*
X94331053Y-92432309D01*
X94334203Y-92411074D01*
X94339419Y-92390250D01*
X94346651Y-92370038D01*
X94355830Y-92350632D01*
X94366866Y-92332219D01*
X94379654Y-92314976D01*
X94394070Y-92299070D01*
X94409976Y-92284654D01*
X94427219Y-92271866D01*
X94445632Y-92260830D01*
X94465038Y-92251651D01*
X94485250Y-92244419D01*
X94506074Y-92239203D01*
X94527309Y-92236053D01*
X94548750Y-92235000D01*
X94986250Y-92235000D01*
X95007691Y-92236053D01*
G37*
G36*
X93432691Y-92236053D02*
G01*
X93453926Y-92239203D01*
X93474750Y-92244419D01*
X93494962Y-92251651D01*
X93514368Y-92260830D01*
X93532781Y-92271866D01*
X93550024Y-92284654D01*
X93565930Y-92299070D01*
X93580346Y-92314976D01*
X93593134Y-92332219D01*
X93604170Y-92350632D01*
X93613349Y-92370038D01*
X93620581Y-92390250D01*
X93625797Y-92411074D01*
X93628947Y-92432309D01*
X93630000Y-92453750D01*
X93630000Y-92966250D01*
X93628947Y-92987691D01*
X93625797Y-93008926D01*
X93620581Y-93029750D01*
X93613349Y-93049962D01*
X93604170Y-93069368D01*
X93593134Y-93087781D01*
X93580346Y-93105024D01*
X93565930Y-93120930D01*
X93550024Y-93135346D01*
X93532781Y-93148134D01*
X93514368Y-93159170D01*
X93494962Y-93168349D01*
X93474750Y-93175581D01*
X93453926Y-93180797D01*
X93432691Y-93183947D01*
X93411250Y-93185000D01*
X92973750Y-93185000D01*
X92952309Y-93183947D01*
X92931074Y-93180797D01*
X92910250Y-93175581D01*
X92890038Y-93168349D01*
X92870632Y-93159170D01*
X92852219Y-93148134D01*
X92834976Y-93135346D01*
X92819070Y-93120930D01*
X92804654Y-93105024D01*
X92791866Y-93087781D01*
X92780830Y-93069368D01*
X92771651Y-93049962D01*
X92764419Y-93029750D01*
X92759203Y-93008926D01*
X92756053Y-92987691D01*
X92755000Y-92966250D01*
X92755000Y-92453750D01*
X92756053Y-92432309D01*
X92759203Y-92411074D01*
X92764419Y-92390250D01*
X92771651Y-92370038D01*
X92780830Y-92350632D01*
X92791866Y-92332219D01*
X92804654Y-92314976D01*
X92819070Y-92299070D01*
X92834976Y-92284654D01*
X92852219Y-92271866D01*
X92870632Y-92260830D01*
X92890038Y-92251651D01*
X92910250Y-92244419D01*
X92931074Y-92239203D01*
X92952309Y-92236053D01*
X92973750Y-92235000D01*
X93411250Y-92235000D01*
X93432691Y-92236053D01*
G37*
G36*
X109307691Y-92236053D02*
G01*
X109328926Y-92239203D01*
X109349750Y-92244419D01*
X109369962Y-92251651D01*
X109389368Y-92260830D01*
X109407781Y-92271866D01*
X109425024Y-92284654D01*
X109440930Y-92299070D01*
X109455346Y-92314976D01*
X109468134Y-92332219D01*
X109479170Y-92350632D01*
X109488349Y-92370038D01*
X109495581Y-92390250D01*
X109500797Y-92411074D01*
X109503947Y-92432309D01*
X109505000Y-92453750D01*
X109505000Y-92966250D01*
X109503947Y-92987691D01*
X109500797Y-93008926D01*
X109495581Y-93029750D01*
X109488349Y-93049962D01*
X109479170Y-93069368D01*
X109468134Y-93087781D01*
X109455346Y-93105024D01*
X109440930Y-93120930D01*
X109425024Y-93135346D01*
X109407781Y-93148134D01*
X109389368Y-93159170D01*
X109369962Y-93168349D01*
X109349750Y-93175581D01*
X109328926Y-93180797D01*
X109307691Y-93183947D01*
X109286250Y-93185000D01*
X108848750Y-93185000D01*
X108827309Y-93183947D01*
X108806074Y-93180797D01*
X108785250Y-93175581D01*
X108765038Y-93168349D01*
X108745632Y-93159170D01*
X108727219Y-93148134D01*
X108709976Y-93135346D01*
X108694070Y-93120930D01*
X108679654Y-93105024D01*
X108666866Y-93087781D01*
X108655830Y-93069368D01*
X108646651Y-93049962D01*
X108639419Y-93029750D01*
X108634203Y-93008926D01*
X108631053Y-92987691D01*
X108630000Y-92966250D01*
X108630000Y-92453750D01*
X108631053Y-92432309D01*
X108634203Y-92411074D01*
X108639419Y-92390250D01*
X108646651Y-92370038D01*
X108655830Y-92350632D01*
X108666866Y-92332219D01*
X108679654Y-92314976D01*
X108694070Y-92299070D01*
X108709976Y-92284654D01*
X108727219Y-92271866D01*
X108745632Y-92260830D01*
X108765038Y-92251651D01*
X108785250Y-92244419D01*
X108806074Y-92239203D01*
X108827309Y-92236053D01*
X108848750Y-92235000D01*
X109286250Y-92235000D01*
X109307691Y-92236053D01*
G37*
G36*
X110882691Y-92236053D02*
G01*
X110903926Y-92239203D01*
X110924750Y-92244419D01*
X110944962Y-92251651D01*
X110964368Y-92260830D01*
X110982781Y-92271866D01*
X111000024Y-92284654D01*
X111015930Y-92299070D01*
X111030346Y-92314976D01*
X111043134Y-92332219D01*
X111054170Y-92350632D01*
X111063349Y-92370038D01*
X111070581Y-92390250D01*
X111075797Y-92411074D01*
X111078947Y-92432309D01*
X111080000Y-92453750D01*
X111080000Y-92966250D01*
X111078947Y-92987691D01*
X111075797Y-93008926D01*
X111070581Y-93029750D01*
X111063349Y-93049962D01*
X111054170Y-93069368D01*
X111043134Y-93087781D01*
X111030346Y-93105024D01*
X111015930Y-93120930D01*
X111000024Y-93135346D01*
X110982781Y-93148134D01*
X110964368Y-93159170D01*
X110944962Y-93168349D01*
X110924750Y-93175581D01*
X110903926Y-93180797D01*
X110882691Y-93183947D01*
X110861250Y-93185000D01*
X110423750Y-93185000D01*
X110402309Y-93183947D01*
X110381074Y-93180797D01*
X110360250Y-93175581D01*
X110340038Y-93168349D01*
X110320632Y-93159170D01*
X110302219Y-93148134D01*
X110284976Y-93135346D01*
X110269070Y-93120930D01*
X110254654Y-93105024D01*
X110241866Y-93087781D01*
X110230830Y-93069368D01*
X110221651Y-93049962D01*
X110214419Y-93029750D01*
X110209203Y-93008926D01*
X110206053Y-92987691D01*
X110205000Y-92966250D01*
X110205000Y-92453750D01*
X110206053Y-92432309D01*
X110209203Y-92411074D01*
X110214419Y-92390250D01*
X110221651Y-92370038D01*
X110230830Y-92350632D01*
X110241866Y-92332219D01*
X110254654Y-92314976D01*
X110269070Y-92299070D01*
X110284976Y-92284654D01*
X110302219Y-92271866D01*
X110320632Y-92260830D01*
X110340038Y-92251651D01*
X110360250Y-92244419D01*
X110381074Y-92239203D01*
X110402309Y-92236053D01*
X110423750Y-92235000D01*
X110861250Y-92235000D01*
X110882691Y-92236053D01*
G37*
G36*
X100570191Y-90966053D02*
G01*
X100591426Y-90969203D01*
X100612250Y-90974419D01*
X100632462Y-90981651D01*
X100651868Y-90990830D01*
X100670281Y-91001866D01*
X100687524Y-91014654D01*
X100703430Y-91029070D01*
X100717846Y-91044976D01*
X100730634Y-91062219D01*
X100741670Y-91080632D01*
X100750849Y-91100038D01*
X100758081Y-91120250D01*
X100763297Y-91141074D01*
X100766447Y-91162309D01*
X100767500Y-91183750D01*
X100767500Y-91696250D01*
X100766447Y-91717691D01*
X100763297Y-91738926D01*
X100758081Y-91759750D01*
X100750849Y-91779962D01*
X100741670Y-91799368D01*
X100730634Y-91817781D01*
X100717846Y-91835024D01*
X100703430Y-91850930D01*
X100687524Y-91865346D01*
X100670281Y-91878134D01*
X100651868Y-91889170D01*
X100632462Y-91898349D01*
X100612250Y-91905581D01*
X100591426Y-91910797D01*
X100570191Y-91913947D01*
X100548750Y-91915000D01*
X100111250Y-91915000D01*
X100089809Y-91913947D01*
X100068574Y-91910797D01*
X100047750Y-91905581D01*
X100027538Y-91898349D01*
X100008132Y-91889170D01*
X99989719Y-91878134D01*
X99972476Y-91865346D01*
X99956570Y-91850930D01*
X99942154Y-91835024D01*
X99929366Y-91817781D01*
X99918330Y-91799368D01*
X99909151Y-91779962D01*
X99901919Y-91759750D01*
X99896703Y-91738926D01*
X99893553Y-91717691D01*
X99892500Y-91696250D01*
X99892500Y-91183750D01*
X99893553Y-91162309D01*
X99896703Y-91141074D01*
X99901919Y-91120250D01*
X99909151Y-91100038D01*
X99918330Y-91080632D01*
X99929366Y-91062219D01*
X99942154Y-91044976D01*
X99956570Y-91029070D01*
X99972476Y-91014654D01*
X99989719Y-91001866D01*
X100008132Y-90990830D01*
X100027538Y-90981651D01*
X100047750Y-90974419D01*
X100068574Y-90969203D01*
X100089809Y-90966053D01*
X100111250Y-90965000D01*
X100548750Y-90965000D01*
X100570191Y-90966053D01*
G37*
G36*
X102145191Y-90966053D02*
G01*
X102166426Y-90969203D01*
X102187250Y-90974419D01*
X102207462Y-90981651D01*
X102226868Y-90990830D01*
X102245281Y-91001866D01*
X102262524Y-91014654D01*
X102278430Y-91029070D01*
X102292846Y-91044976D01*
X102305634Y-91062219D01*
X102316670Y-91080632D01*
X102325849Y-91100038D01*
X102333081Y-91120250D01*
X102338297Y-91141074D01*
X102341447Y-91162309D01*
X102342500Y-91183750D01*
X102342500Y-91696250D01*
X102341447Y-91717691D01*
X102338297Y-91738926D01*
X102333081Y-91759750D01*
X102325849Y-91779962D01*
X102316670Y-91799368D01*
X102305634Y-91817781D01*
X102292846Y-91835024D01*
X102278430Y-91850930D01*
X102262524Y-91865346D01*
X102245281Y-91878134D01*
X102226868Y-91889170D01*
X102207462Y-91898349D01*
X102187250Y-91905581D01*
X102166426Y-91910797D01*
X102145191Y-91913947D01*
X102123750Y-91915000D01*
X101686250Y-91915000D01*
X101664809Y-91913947D01*
X101643574Y-91910797D01*
X101622750Y-91905581D01*
X101602538Y-91898349D01*
X101583132Y-91889170D01*
X101564719Y-91878134D01*
X101547476Y-91865346D01*
X101531570Y-91850930D01*
X101517154Y-91835024D01*
X101504366Y-91817781D01*
X101493330Y-91799368D01*
X101484151Y-91779962D01*
X101476919Y-91759750D01*
X101471703Y-91738926D01*
X101468553Y-91717691D01*
X101467500Y-91696250D01*
X101467500Y-91183750D01*
X101468553Y-91162309D01*
X101471703Y-91141074D01*
X101476919Y-91120250D01*
X101484151Y-91100038D01*
X101493330Y-91080632D01*
X101504366Y-91062219D01*
X101517154Y-91044976D01*
X101531570Y-91029070D01*
X101547476Y-91014654D01*
X101564719Y-91001866D01*
X101583132Y-90990830D01*
X101602538Y-90981651D01*
X101622750Y-90974419D01*
X101643574Y-90969203D01*
X101664809Y-90966053D01*
X101686250Y-90965000D01*
X102123750Y-90965000D01*
X102145191Y-90966053D01*
G37*
G36*
X75017691Y-96681053D02*
G01*
X75038926Y-96684203D01*
X75059750Y-96689419D01*
X75079962Y-96696651D01*
X75099368Y-96705830D01*
X75117781Y-96716866D01*
X75135024Y-96729654D01*
X75150930Y-96744070D01*
X75165346Y-96759976D01*
X75178134Y-96777219D01*
X75189170Y-96795632D01*
X75198349Y-96815038D01*
X75205581Y-96835250D01*
X75210797Y-96856074D01*
X75213947Y-96877309D01*
X75215000Y-96898750D01*
X75215000Y-97411250D01*
X75213947Y-97432691D01*
X75210797Y-97453926D01*
X75205581Y-97474750D01*
X75198349Y-97494962D01*
X75189170Y-97514368D01*
X75178134Y-97532781D01*
X75165346Y-97550024D01*
X75150930Y-97565930D01*
X75135024Y-97580346D01*
X75117781Y-97593134D01*
X75099368Y-97604170D01*
X75079962Y-97613349D01*
X75059750Y-97620581D01*
X75038926Y-97625797D01*
X75017691Y-97628947D01*
X74996250Y-97630000D01*
X74558750Y-97630000D01*
X74537309Y-97628947D01*
X74516074Y-97625797D01*
X74495250Y-97620581D01*
X74475038Y-97613349D01*
X74455632Y-97604170D01*
X74437219Y-97593134D01*
X74419976Y-97580346D01*
X74404070Y-97565930D01*
X74389654Y-97550024D01*
X74376866Y-97532781D01*
X74365830Y-97514368D01*
X74356651Y-97494962D01*
X74349419Y-97474750D01*
X74344203Y-97453926D01*
X74341053Y-97432691D01*
X74340000Y-97411250D01*
X74340000Y-96898750D01*
X74341053Y-96877309D01*
X74344203Y-96856074D01*
X74349419Y-96835250D01*
X74356651Y-96815038D01*
X74365830Y-96795632D01*
X74376866Y-96777219D01*
X74389654Y-96759976D01*
X74404070Y-96744070D01*
X74419976Y-96729654D01*
X74437219Y-96716866D01*
X74455632Y-96705830D01*
X74475038Y-96696651D01*
X74495250Y-96689419D01*
X74516074Y-96684203D01*
X74537309Y-96681053D01*
X74558750Y-96680000D01*
X74996250Y-96680000D01*
X75017691Y-96681053D01*
G37*
G36*
X76592691Y-96681053D02*
G01*
X76613926Y-96684203D01*
X76634750Y-96689419D01*
X76654962Y-96696651D01*
X76674368Y-96705830D01*
X76692781Y-96716866D01*
X76710024Y-96729654D01*
X76725930Y-96744070D01*
X76740346Y-96759976D01*
X76753134Y-96777219D01*
X76764170Y-96795632D01*
X76773349Y-96815038D01*
X76780581Y-96835250D01*
X76785797Y-96856074D01*
X76788947Y-96877309D01*
X76790000Y-96898750D01*
X76790000Y-97411250D01*
X76788947Y-97432691D01*
X76785797Y-97453926D01*
X76780581Y-97474750D01*
X76773349Y-97494962D01*
X76764170Y-97514368D01*
X76753134Y-97532781D01*
X76740346Y-97550024D01*
X76725930Y-97565930D01*
X76710024Y-97580346D01*
X76692781Y-97593134D01*
X76674368Y-97604170D01*
X76654962Y-97613349D01*
X76634750Y-97620581D01*
X76613926Y-97625797D01*
X76592691Y-97628947D01*
X76571250Y-97630000D01*
X76133750Y-97630000D01*
X76112309Y-97628947D01*
X76091074Y-97625797D01*
X76070250Y-97620581D01*
X76050038Y-97613349D01*
X76030632Y-97604170D01*
X76012219Y-97593134D01*
X75994976Y-97580346D01*
X75979070Y-97565930D01*
X75964654Y-97550024D01*
X75951866Y-97532781D01*
X75940830Y-97514368D01*
X75931651Y-97494962D01*
X75924419Y-97474750D01*
X75919203Y-97453926D01*
X75916053Y-97432691D01*
X75915000Y-97411250D01*
X75915000Y-96898750D01*
X75916053Y-96877309D01*
X75919203Y-96856074D01*
X75924419Y-96835250D01*
X75931651Y-96815038D01*
X75940830Y-96795632D01*
X75951866Y-96777219D01*
X75964654Y-96759976D01*
X75979070Y-96744070D01*
X75994976Y-96729654D01*
X76012219Y-96716866D01*
X76030632Y-96705830D01*
X76050038Y-96696651D01*
X76070250Y-96689419D01*
X76091074Y-96684203D01*
X76112309Y-96681053D01*
X76133750Y-96680000D01*
X76571250Y-96680000D01*
X76592691Y-96681053D01*
G37*
G36*
X76592691Y-100491053D02*
G01*
X76613926Y-100494203D01*
X76634750Y-100499419D01*
X76654962Y-100506651D01*
X76674368Y-100515830D01*
X76692781Y-100526866D01*
X76710024Y-100539654D01*
X76725930Y-100554070D01*
X76740346Y-100569976D01*
X76753134Y-100587219D01*
X76764170Y-100605632D01*
X76773349Y-100625038D01*
X76780581Y-100645250D01*
X76785797Y-100666074D01*
X76788947Y-100687309D01*
X76790000Y-100708750D01*
X76790000Y-101221250D01*
X76788947Y-101242691D01*
X76785797Y-101263926D01*
X76780581Y-101284750D01*
X76773349Y-101304962D01*
X76764170Y-101324368D01*
X76753134Y-101342781D01*
X76740346Y-101360024D01*
X76725930Y-101375930D01*
X76710024Y-101390346D01*
X76692781Y-101403134D01*
X76674368Y-101414170D01*
X76654962Y-101423349D01*
X76634750Y-101430581D01*
X76613926Y-101435797D01*
X76592691Y-101438947D01*
X76571250Y-101440000D01*
X76133750Y-101440000D01*
X76112309Y-101438947D01*
X76091074Y-101435797D01*
X76070250Y-101430581D01*
X76050038Y-101423349D01*
X76030632Y-101414170D01*
X76012219Y-101403134D01*
X75994976Y-101390346D01*
X75979070Y-101375930D01*
X75964654Y-101360024D01*
X75951866Y-101342781D01*
X75940830Y-101324368D01*
X75931651Y-101304962D01*
X75924419Y-101284750D01*
X75919203Y-101263926D01*
X75916053Y-101242691D01*
X75915000Y-101221250D01*
X75915000Y-100708750D01*
X75916053Y-100687309D01*
X75919203Y-100666074D01*
X75924419Y-100645250D01*
X75931651Y-100625038D01*
X75940830Y-100605632D01*
X75951866Y-100587219D01*
X75964654Y-100569976D01*
X75979070Y-100554070D01*
X75994976Y-100539654D01*
X76012219Y-100526866D01*
X76030632Y-100515830D01*
X76050038Y-100506651D01*
X76070250Y-100499419D01*
X76091074Y-100494203D01*
X76112309Y-100491053D01*
X76133750Y-100490000D01*
X76571250Y-100490000D01*
X76592691Y-100491053D01*
G37*
G36*
X75017691Y-100491053D02*
G01*
X75038926Y-100494203D01*
X75059750Y-100499419D01*
X75079962Y-100506651D01*
X75099368Y-100515830D01*
X75117781Y-100526866D01*
X75135024Y-100539654D01*
X75150930Y-100554070D01*
X75165346Y-100569976D01*
X75178134Y-100587219D01*
X75189170Y-100605632D01*
X75198349Y-100625038D01*
X75205581Y-100645250D01*
X75210797Y-100666074D01*
X75213947Y-100687309D01*
X75215000Y-100708750D01*
X75215000Y-101221250D01*
X75213947Y-101242691D01*
X75210797Y-101263926D01*
X75205581Y-101284750D01*
X75198349Y-101304962D01*
X75189170Y-101324368D01*
X75178134Y-101342781D01*
X75165346Y-101360024D01*
X75150930Y-101375930D01*
X75135024Y-101390346D01*
X75117781Y-101403134D01*
X75099368Y-101414170D01*
X75079962Y-101423349D01*
X75059750Y-101430581D01*
X75038926Y-101435797D01*
X75017691Y-101438947D01*
X74996250Y-101440000D01*
X74558750Y-101440000D01*
X74537309Y-101438947D01*
X74516074Y-101435797D01*
X74495250Y-101430581D01*
X74475038Y-101423349D01*
X74455632Y-101414170D01*
X74437219Y-101403134D01*
X74419976Y-101390346D01*
X74404070Y-101375930D01*
X74389654Y-101360024D01*
X74376866Y-101342781D01*
X74365830Y-101324368D01*
X74356651Y-101304962D01*
X74349419Y-101284750D01*
X74344203Y-101263926D01*
X74341053Y-101242691D01*
X74340000Y-101221250D01*
X74340000Y-100708750D01*
X74341053Y-100687309D01*
X74344203Y-100666074D01*
X74349419Y-100645250D01*
X74356651Y-100625038D01*
X74365830Y-100605632D01*
X74376866Y-100587219D01*
X74389654Y-100569976D01*
X74404070Y-100554070D01*
X74419976Y-100539654D01*
X74437219Y-100526866D01*
X74455632Y-100515830D01*
X74475038Y-100506651D01*
X74495250Y-100499419D01*
X74516074Y-100494203D01*
X74537309Y-100491053D01*
X74558750Y-100490000D01*
X74996250Y-100490000D01*
X75017691Y-100491053D01*
G37*
G36*
X76592691Y-105571053D02*
G01*
X76613926Y-105574203D01*
X76634750Y-105579419D01*
X76654962Y-105586651D01*
X76674368Y-105595830D01*
X76692781Y-105606866D01*
X76710024Y-105619654D01*
X76725930Y-105634070D01*
X76740346Y-105649976D01*
X76753134Y-105667219D01*
X76764170Y-105685632D01*
X76773349Y-105705038D01*
X76780581Y-105725250D01*
X76785797Y-105746074D01*
X76788947Y-105767309D01*
X76790000Y-105788750D01*
X76790000Y-106301250D01*
X76788947Y-106322691D01*
X76785797Y-106343926D01*
X76780581Y-106364750D01*
X76773349Y-106384962D01*
X76764170Y-106404368D01*
X76753134Y-106422781D01*
X76740346Y-106440024D01*
X76725930Y-106455930D01*
X76710024Y-106470346D01*
X76692781Y-106483134D01*
X76674368Y-106494170D01*
X76654962Y-106503349D01*
X76634750Y-106510581D01*
X76613926Y-106515797D01*
X76592691Y-106518947D01*
X76571250Y-106520000D01*
X76133750Y-106520000D01*
X76112309Y-106518947D01*
X76091074Y-106515797D01*
X76070250Y-106510581D01*
X76050038Y-106503349D01*
X76030632Y-106494170D01*
X76012219Y-106483134D01*
X75994976Y-106470346D01*
X75979070Y-106455930D01*
X75964654Y-106440024D01*
X75951866Y-106422781D01*
X75940830Y-106404368D01*
X75931651Y-106384962D01*
X75924419Y-106364750D01*
X75919203Y-106343926D01*
X75916053Y-106322691D01*
X75915000Y-106301250D01*
X75915000Y-105788750D01*
X75916053Y-105767309D01*
X75919203Y-105746074D01*
X75924419Y-105725250D01*
X75931651Y-105705038D01*
X75940830Y-105685632D01*
X75951866Y-105667219D01*
X75964654Y-105649976D01*
X75979070Y-105634070D01*
X75994976Y-105619654D01*
X76012219Y-105606866D01*
X76030632Y-105595830D01*
X76050038Y-105586651D01*
X76070250Y-105579419D01*
X76091074Y-105574203D01*
X76112309Y-105571053D01*
X76133750Y-105570000D01*
X76571250Y-105570000D01*
X76592691Y-105571053D01*
G37*
G36*
X75017691Y-105571053D02*
G01*
X75038926Y-105574203D01*
X75059750Y-105579419D01*
X75079962Y-105586651D01*
X75099368Y-105595830D01*
X75117781Y-105606866D01*
X75135024Y-105619654D01*
X75150930Y-105634070D01*
X75165346Y-105649976D01*
X75178134Y-105667219D01*
X75189170Y-105685632D01*
X75198349Y-105705038D01*
X75205581Y-105725250D01*
X75210797Y-105746074D01*
X75213947Y-105767309D01*
X75215000Y-105788750D01*
X75215000Y-106301250D01*
X75213947Y-106322691D01*
X75210797Y-106343926D01*
X75205581Y-106364750D01*
X75198349Y-106384962D01*
X75189170Y-106404368D01*
X75178134Y-106422781D01*
X75165346Y-106440024D01*
X75150930Y-106455930D01*
X75135024Y-106470346D01*
X75117781Y-106483134D01*
X75099368Y-106494170D01*
X75079962Y-106503349D01*
X75059750Y-106510581D01*
X75038926Y-106515797D01*
X75017691Y-106518947D01*
X74996250Y-106520000D01*
X74558750Y-106520000D01*
X74537309Y-106518947D01*
X74516074Y-106515797D01*
X74495250Y-106510581D01*
X74475038Y-106503349D01*
X74455632Y-106494170D01*
X74437219Y-106483134D01*
X74419976Y-106470346D01*
X74404070Y-106455930D01*
X74389654Y-106440024D01*
X74376866Y-106422781D01*
X74365830Y-106404368D01*
X74356651Y-106384962D01*
X74349419Y-106364750D01*
X74344203Y-106343926D01*
X74341053Y-106322691D01*
X74340000Y-106301250D01*
X74340000Y-105788750D01*
X74341053Y-105767309D01*
X74344203Y-105746074D01*
X74349419Y-105725250D01*
X74356651Y-105705038D01*
X74365830Y-105685632D01*
X74376866Y-105667219D01*
X74389654Y-105649976D01*
X74404070Y-105634070D01*
X74419976Y-105619654D01*
X74437219Y-105606866D01*
X74455632Y-105595830D01*
X74475038Y-105586651D01*
X74495250Y-105579419D01*
X74516074Y-105574203D01*
X74537309Y-105571053D01*
X74558750Y-105570000D01*
X74996250Y-105570000D01*
X75017691Y-105571053D01*
G37*
G36*
X75017691Y-109381053D02*
G01*
X75038926Y-109384203D01*
X75059750Y-109389419D01*
X75079962Y-109396651D01*
X75099368Y-109405830D01*
X75117781Y-109416866D01*
X75135024Y-109429654D01*
X75150930Y-109444070D01*
X75165346Y-109459976D01*
X75178134Y-109477219D01*
X75189170Y-109495632D01*
X75198349Y-109515038D01*
X75205581Y-109535250D01*
X75210797Y-109556074D01*
X75213947Y-109577309D01*
X75215000Y-109598750D01*
X75215000Y-110111250D01*
X75213947Y-110132691D01*
X75210797Y-110153926D01*
X75205581Y-110174750D01*
X75198349Y-110194962D01*
X75189170Y-110214368D01*
X75178134Y-110232781D01*
X75165346Y-110250024D01*
X75150930Y-110265930D01*
X75135024Y-110280346D01*
X75117781Y-110293134D01*
X75099368Y-110304170D01*
X75079962Y-110313349D01*
X75059750Y-110320581D01*
X75038926Y-110325797D01*
X75017691Y-110328947D01*
X74996250Y-110330000D01*
X74558750Y-110330000D01*
X74537309Y-110328947D01*
X74516074Y-110325797D01*
X74495250Y-110320581D01*
X74475038Y-110313349D01*
X74455632Y-110304170D01*
X74437219Y-110293134D01*
X74419976Y-110280346D01*
X74404070Y-110265930D01*
X74389654Y-110250024D01*
X74376866Y-110232781D01*
X74365830Y-110214368D01*
X74356651Y-110194962D01*
X74349419Y-110174750D01*
X74344203Y-110153926D01*
X74341053Y-110132691D01*
X74340000Y-110111250D01*
X74340000Y-109598750D01*
X74341053Y-109577309D01*
X74344203Y-109556074D01*
X74349419Y-109535250D01*
X74356651Y-109515038D01*
X74365830Y-109495632D01*
X74376866Y-109477219D01*
X74389654Y-109459976D01*
X74404070Y-109444070D01*
X74419976Y-109429654D01*
X74437219Y-109416866D01*
X74455632Y-109405830D01*
X74475038Y-109396651D01*
X74495250Y-109389419D01*
X74516074Y-109384203D01*
X74537309Y-109381053D01*
X74558750Y-109380000D01*
X74996250Y-109380000D01*
X75017691Y-109381053D01*
G37*
G36*
X76592691Y-109381053D02*
G01*
X76613926Y-109384203D01*
X76634750Y-109389419D01*
X76654962Y-109396651D01*
X76674368Y-109405830D01*
X76692781Y-109416866D01*
X76710024Y-109429654D01*
X76725930Y-109444070D01*
X76740346Y-109459976D01*
X76753134Y-109477219D01*
X76764170Y-109495632D01*
X76773349Y-109515038D01*
X76780581Y-109535250D01*
X76785797Y-109556074D01*
X76788947Y-109577309D01*
X76790000Y-109598750D01*
X76790000Y-110111250D01*
X76788947Y-110132691D01*
X76785797Y-110153926D01*
X76780581Y-110174750D01*
X76773349Y-110194962D01*
X76764170Y-110214368D01*
X76753134Y-110232781D01*
X76740346Y-110250024D01*
X76725930Y-110265930D01*
X76710024Y-110280346D01*
X76692781Y-110293134D01*
X76674368Y-110304170D01*
X76654962Y-110313349D01*
X76634750Y-110320581D01*
X76613926Y-110325797D01*
X76592691Y-110328947D01*
X76571250Y-110330000D01*
X76133750Y-110330000D01*
X76112309Y-110328947D01*
X76091074Y-110325797D01*
X76070250Y-110320581D01*
X76050038Y-110313349D01*
X76030632Y-110304170D01*
X76012219Y-110293134D01*
X75994976Y-110280346D01*
X75979070Y-110265930D01*
X75964654Y-110250024D01*
X75951866Y-110232781D01*
X75940830Y-110214368D01*
X75931651Y-110194962D01*
X75924419Y-110174750D01*
X75919203Y-110153926D01*
X75916053Y-110132691D01*
X75915000Y-110111250D01*
X75915000Y-109598750D01*
X75916053Y-109577309D01*
X75919203Y-109556074D01*
X75924419Y-109535250D01*
X75931651Y-109515038D01*
X75940830Y-109495632D01*
X75951866Y-109477219D01*
X75964654Y-109459976D01*
X75979070Y-109444070D01*
X75994976Y-109429654D01*
X76012219Y-109416866D01*
X76030632Y-109405830D01*
X76050038Y-109396651D01*
X76070250Y-109389419D01*
X76091074Y-109384203D01*
X76112309Y-109381053D01*
X76133750Y-109380000D01*
X76571250Y-109380000D01*
X76592691Y-109381053D01*
G37*
D13*
X95950000Y-62095000D03*
X94550000Y-61595000D03*
X95950000Y-61095000D03*
X94550000Y-62095000D03*
X94550000Y-61095000D03*
X94550000Y-87130000D03*
X94550000Y-88130000D03*
X95950000Y-87130000D03*
X94550000Y-87630000D03*
X95950000Y-88130000D03*
D14*
X88240000Y-77470000D03*
D15*
X81940000Y-77470000D03*
X81940000Y-79770000D03*
X81940000Y-75170000D03*
M02*
