G04 #@! TF.GenerationSoftware,KiCad,Pcbnew,5.1.5-52549c5~84~ubuntu19.10.1*
G04 #@! TF.CreationDate,2020-02-18T09:16:58-05:00*
G04 #@! TF.ProjectId,adapter,61646170-7465-4722-9e6b-696361645f70,rev?*
G04 #@! TF.SameCoordinates,Original*
G04 #@! TF.FileFunction,Copper,L2,Bot*
G04 #@! TF.FilePolarity,Positive*
%FSLAX46Y46*%
G04 Gerber Fmt 4.6, Leading zero omitted, Abs format (unit mm)*
G04 Created by KiCad (PCBNEW 5.1.5-52549c5~84~ubuntu19.10.1) date 2020-02-18 09:16:58*
%MOMM*%
%LPD*%
G04 APERTURE LIST*
%ADD10C,0.800000*%
%ADD11C,7.000000*%
%ADD12C,1.500000*%
%ADD13R,1.500000X1.500000*%
%ADD14R,1.700000X1.700000*%
%ADD15O,1.700000X1.700000*%
%ADD16C,0.250000*%
%ADD17C,0.254000*%
G04 APERTURE END LIST*
D10*
X142191155Y-108633845D03*
X140335000Y-107865000D03*
X138478845Y-108633845D03*
X137710000Y-110490000D03*
X138478845Y-112346155D03*
X140335000Y-113115000D03*
X142191155Y-112346155D03*
X142960000Y-110490000D03*
D11*
X140335000Y-110490000D03*
D10*
X64721155Y-107998845D03*
X62865000Y-107230000D03*
X61008845Y-107998845D03*
X60240000Y-109855000D03*
X61008845Y-111711155D03*
X62865000Y-112480000D03*
X64721155Y-111711155D03*
X65490000Y-109855000D03*
D11*
X62865000Y-109855000D03*
D10*
X142191155Y-48308845D03*
X140335000Y-47540000D03*
X138478845Y-48308845D03*
X137710000Y-50165000D03*
X138478845Y-52021155D03*
X140335000Y-52790000D03*
X142191155Y-52021155D03*
X142960000Y-50165000D03*
D11*
X140335000Y-50165000D03*
D10*
X64721155Y-48308845D03*
X62865000Y-47540000D03*
X61008845Y-48308845D03*
X60240000Y-50165000D03*
X61008845Y-52021155D03*
X62865000Y-52790000D03*
X64721155Y-52021155D03*
X65490000Y-50165000D03*
D11*
X62865000Y-50165000D03*
D12*
X128905000Y-59690000D03*
X131445000Y-60960000D03*
X128905000Y-62230000D03*
X131445000Y-63500000D03*
X128905000Y-64770000D03*
X131445000Y-66040000D03*
X128905000Y-67310000D03*
D13*
X131445000Y-68580000D03*
X131445000Y-101600000D03*
D12*
X128905000Y-100330000D03*
X131445000Y-99060000D03*
X128905000Y-97790000D03*
X131445000Y-96520000D03*
X128905000Y-95250000D03*
X131445000Y-93980000D03*
X128905000Y-92710000D03*
D14*
X65325001Y-67865001D03*
D15*
X67865001Y-67865001D03*
X65325001Y-70405001D03*
X67865001Y-70405001D03*
X65325001Y-72945001D03*
X67865001Y-72945001D03*
X65325001Y-75485001D03*
X67865001Y-75485001D03*
X65325001Y-78025001D03*
X67865001Y-78025001D03*
X65325001Y-80565001D03*
X67865001Y-80565001D03*
X65325001Y-83105001D03*
X67865001Y-83105001D03*
X65325001Y-85645001D03*
X67865001Y-85645001D03*
X65325001Y-88185001D03*
X67865001Y-88185001D03*
X65325001Y-90725001D03*
X67865001Y-90725001D03*
D10*
X125095000Y-73025000D03*
X99060000Y-92710000D03*
X95885000Y-89535000D03*
X131445000Y-73025000D03*
X131445000Y-76835000D03*
X131445000Y-80645000D03*
X131445000Y-84455000D03*
X131445000Y-88265000D03*
X135890000Y-46990000D03*
X134620000Y-50165000D03*
X135890000Y-53340000D03*
X139065000Y-55245000D03*
X142875000Y-55245000D03*
X142875000Y-105410000D03*
X139065000Y-105410000D03*
X135890000Y-107315000D03*
X134620000Y-110490000D03*
X135890000Y-113665000D03*
X67310000Y-46355000D03*
X68580000Y-49530000D03*
X67310000Y-53340000D03*
X64135000Y-55245000D03*
X59690000Y-55245000D03*
X59690000Y-105410000D03*
X67310000Y-113030000D03*
X70485000Y-107315000D03*
X67310000Y-104140000D03*
X84455000Y-111760000D03*
X90170000Y-111760000D03*
X95885000Y-111760000D03*
X100965000Y-111760000D03*
X106680000Y-111760000D03*
X84455000Y-114935000D03*
X90170000Y-114935000D03*
X95885000Y-114935000D03*
X100965000Y-114935000D03*
X106680000Y-114935000D03*
X112395000Y-114935000D03*
X112395000Y-111760000D03*
X114935000Y-68580000D03*
X119380000Y-68580000D03*
X123825000Y-68580000D03*
X116840000Y-72390000D03*
X121285000Y-72390000D03*
X116205000Y-100965000D03*
X120015000Y-100965000D03*
X109855000Y-100965000D03*
X117475000Y-106680000D03*
X115570000Y-108585000D03*
X105410000Y-87630000D03*
X100252500Y-97232500D03*
X108585000Y-76835000D03*
X100965000Y-70485000D03*
X107315000Y-71120000D03*
X106045000Y-60325000D03*
X97790000Y-62865000D03*
X125095000Y-70485000D03*
X96520000Y-92710000D03*
X92710000Y-87630000D03*
X93274999Y-64135000D03*
X99060000Y-64135000D03*
X96670153Y-62714847D03*
X81280000Y-73025000D03*
X72390000Y-62865000D03*
X78105000Y-62865000D03*
X72390000Y-59055000D03*
X78105000Y-59055000D03*
X108585000Y-58420000D03*
X82550000Y-70485000D03*
X81280000Y-56515000D03*
X72390000Y-54610000D03*
X78105000Y-54610000D03*
X72390000Y-50800000D03*
X78105000Y-50800000D03*
X73660000Y-71755000D03*
X70485000Y-71755000D03*
X70564999Y-78025001D03*
X72390000Y-97155000D03*
X78105000Y-97155000D03*
X79375000Y-81915000D03*
X59690000Y-75565000D03*
X83185000Y-102235000D03*
X72390000Y-100965000D03*
X78105000Y-100965000D03*
X72390000Y-106045000D03*
X78105000Y-106045000D03*
X97788235Y-89867929D03*
X82460000Y-106045000D03*
X85090000Y-91440000D03*
X92225153Y-84304847D03*
X98425000Y-88330001D03*
X64770000Y-103505000D03*
X61505000Y-73025000D03*
X72390000Y-109855000D03*
X78105000Y-109855000D03*
X125095000Y-102870000D03*
D16*
X131445000Y-69580000D02*
X131445000Y-68580000D01*
X128000000Y-73025000D02*
X131445000Y-69580000D01*
X125095000Y-73025000D02*
X128000000Y-73025000D01*
X99060000Y-92710000D02*
X95885000Y-89535000D01*
X100330000Y-95250000D02*
X100330000Y-97155000D01*
X100330000Y-97155000D02*
X100252500Y-97232500D01*
X105410000Y-87630000D02*
X105410000Y-90170000D01*
X105410000Y-90170000D02*
X100330000Y-95250000D01*
X108585000Y-76835000D02*
X107315000Y-76835000D01*
X107315000Y-76835000D02*
X100965000Y-70485000D01*
X107315000Y-71120000D02*
X106045000Y-69850000D01*
X106045000Y-69850000D02*
X106045000Y-60325000D01*
X100965000Y-69919315D02*
X100965000Y-70485000D01*
X98863002Y-62865000D02*
X100965000Y-64966998D01*
X97790000Y-62865000D02*
X98863002Y-62865000D01*
X100965000Y-64966998D02*
X100965000Y-69919315D01*
X125730000Y-70485000D02*
X128905000Y-67310000D01*
X125095000Y-70485000D02*
X125730000Y-70485000D01*
X96520000Y-92710000D02*
X96520000Y-91440000D01*
X96520000Y-91440000D02*
X92710000Y-87630000D01*
X93274999Y-64135000D02*
X99060000Y-64135000D01*
X69067082Y-72945001D02*
X67865001Y-72945001D01*
X83391996Y-72945001D02*
X69067082Y-72945001D01*
X93622150Y-62714847D02*
X83391996Y-72945001D01*
X96670153Y-62714847D02*
X93622150Y-62714847D01*
X72390000Y-62865000D02*
X78105000Y-62865000D01*
X72390000Y-59055000D02*
X78105000Y-59055000D01*
X97280587Y-58420000D02*
X108585000Y-58420000D01*
X85295586Y-70405001D02*
X97280587Y-58420000D01*
X77549999Y-70405001D02*
X85295586Y-70405001D01*
X77549999Y-70405001D02*
X76279999Y-70405001D01*
X73104999Y-70405001D02*
X73383003Y-70405001D01*
X73104999Y-70405001D02*
X77549999Y-70405001D01*
X67865001Y-70405001D02*
X73104999Y-70405001D01*
X132194999Y-64249999D02*
X131445000Y-63500000D01*
X132520001Y-64575001D02*
X132194999Y-64249999D01*
X132520001Y-69590001D02*
X132520001Y-64575001D01*
X124550001Y-77560001D02*
X132520001Y-69590001D01*
X105328591Y-75485001D02*
X107403591Y-77560001D01*
X107403591Y-77560001D02*
X124550001Y-77560001D01*
X67865001Y-75485001D02*
X105328591Y-75485001D01*
X67015002Y-74635002D02*
X67015002Y-73834004D01*
X77030501Y-65012501D02*
X81280000Y-60763002D01*
X67865001Y-75485001D02*
X67015002Y-74635002D01*
X67015002Y-73834004D02*
X66690000Y-73509002D01*
X68978499Y-65012501D02*
X77030501Y-65012501D01*
X66690000Y-73509002D02*
X66690000Y-67301000D01*
X66690000Y-67301000D02*
X68978499Y-65012501D01*
X81280000Y-60763002D02*
X81280000Y-56515000D01*
X72390000Y-54610000D02*
X78105000Y-54610000D01*
X72390000Y-50800000D02*
X78105000Y-50800000D01*
X129654999Y-64020001D02*
X128905000Y-64770000D01*
X129654999Y-63698999D02*
X129654999Y-64020001D01*
X130928999Y-62424999D02*
X129654999Y-63698999D01*
X132970011Y-63434009D02*
X131961001Y-62424999D01*
X132970011Y-69776401D02*
X132970011Y-63434009D01*
X131961001Y-62424999D02*
X130928999Y-62424999D01*
X124736402Y-78010010D02*
X132970011Y-69776401D01*
X113956987Y-78010011D02*
X124736402Y-78010010D01*
X87046998Y-78025001D02*
X98076999Y-89055002D01*
X102911996Y-89055002D02*
X113956987Y-78010011D01*
X98076999Y-89055002D02*
X102911996Y-89055002D01*
X73660000Y-71755000D02*
X70485000Y-71755000D01*
X67865001Y-78025001D02*
X70564999Y-78025001D01*
X70564999Y-78025001D02*
X87046998Y-78025001D01*
X72390000Y-97155000D02*
X78105000Y-97155000D01*
X66690000Y-81129002D02*
X67475998Y-81915000D01*
X65325001Y-78025001D02*
X66690000Y-79390000D01*
X66690000Y-79390000D02*
X66690000Y-81129002D01*
X67475998Y-81915000D02*
X79375000Y-81915000D01*
X128905000Y-97790000D02*
X127635000Y-97790000D01*
X127635000Y-97790000D02*
X122555000Y-102870000D01*
X122555000Y-102870000D02*
X101600000Y-102870000D01*
X80645000Y-81915000D02*
X79375000Y-81915000D01*
X101600000Y-102870000D02*
X80645000Y-81915000D01*
X59690000Y-75565000D02*
X59690000Y-99695000D01*
X59690000Y-99695000D02*
X70575001Y-110580001D01*
X126274999Y-110580001D02*
X133985000Y-102870000D01*
X133985000Y-99060000D02*
X131445000Y-96520000D01*
X133985000Y-102870000D02*
X133985000Y-99060000D01*
X83185000Y-102235000D02*
X83185000Y-110490000D01*
X83185000Y-110490000D02*
X83275001Y-110580001D01*
X70575001Y-110580001D02*
X83275001Y-110580001D01*
X83275001Y-110580001D02*
X126274999Y-110580001D01*
X72390000Y-100965000D02*
X78105000Y-100965000D01*
X72390000Y-106045000D02*
X78105000Y-106045000D01*
X67301000Y-79200002D02*
X87120308Y-79200002D01*
X66690000Y-78589002D02*
X67301000Y-79200002D01*
X66690000Y-77461000D02*
X66690000Y-78589002D01*
X64150000Y-71580002D02*
X64150000Y-76049002D01*
X64150000Y-76049002D02*
X64761000Y-76660002D01*
X65325001Y-70405001D02*
X64150000Y-71580002D01*
X64761000Y-76660002D02*
X65889002Y-76660002D01*
X65889002Y-76660002D02*
X66690000Y-77461000D01*
X82460000Y-106045000D02*
X82460000Y-94070000D01*
X82460000Y-94070000D02*
X85090000Y-91440000D01*
X87120308Y-79200002D02*
X92225153Y-84304847D01*
X92225153Y-84304847D02*
X97788235Y-89867929D01*
X66175000Y-73795000D02*
X65325001Y-72945001D01*
X66500002Y-74120002D02*
X66175000Y-73795000D01*
X66500002Y-75859004D02*
X66500002Y-74120002D01*
X67301000Y-76660002D02*
X66500002Y-75859004D01*
X86755001Y-76660002D02*
X67301000Y-76660002D01*
X98425000Y-88330001D02*
X86755001Y-76660002D01*
X64770000Y-103505000D02*
X61505000Y-100240000D01*
X61505000Y-100240000D02*
X61505000Y-73025000D01*
X72390000Y-109855000D02*
X78105000Y-109855000D01*
X129980001Y-96325001D02*
X129654999Y-95999999D01*
X129654999Y-95999999D02*
X128905000Y-95250000D01*
X126055991Y-104770011D02*
X129980001Y-100846001D01*
X101790599Y-104775000D02*
X126055991Y-104775000D01*
X80125589Y-83105001D02*
X101790599Y-104770011D01*
X129980001Y-100846001D02*
X129980001Y-96325001D01*
X65325001Y-83105001D02*
X80125589Y-83105001D01*
X126365000Y-102870000D02*
X128905000Y-100330000D01*
X125095000Y-102870000D02*
X126365000Y-102870000D01*
D17*
G36*
X143000191Y-45406782D02*
G01*
X143634623Y-45733537D01*
X144195827Y-46174369D01*
X144663541Y-46713363D01*
X145020900Y-47331080D01*
X145255003Y-48005225D01*
X145288000Y-48232802D01*
X145288000Y-112333720D01*
X145133463Y-112974948D01*
X144840065Y-113620243D01*
X144429936Y-114198420D01*
X143917880Y-114688607D01*
X143322360Y-115073129D01*
X142664882Y-115338100D01*
X142127724Y-115443000D01*
X60863766Y-115443000D01*
X60199813Y-115248219D01*
X59565379Y-114921464D01*
X59004175Y-114480633D01*
X58536459Y-113941637D01*
X58179099Y-113323919D01*
X57944997Y-112649775D01*
X57912000Y-112422198D01*
X57912000Y-109447738D01*
X58730000Y-109447738D01*
X58730000Y-110262262D01*
X58888906Y-111061135D01*
X59200611Y-111813657D01*
X59653136Y-112490909D01*
X60229091Y-113066864D01*
X60906343Y-113519389D01*
X61658865Y-113831094D01*
X62457738Y-113990000D01*
X63272262Y-113990000D01*
X64071135Y-113831094D01*
X64823657Y-113519389D01*
X65500909Y-113066864D01*
X66076864Y-112490909D01*
X66529389Y-111813657D01*
X66841094Y-111061135D01*
X67000000Y-110262262D01*
X67000000Y-109447738D01*
X66841094Y-108648865D01*
X66529389Y-107896343D01*
X66076864Y-107219091D01*
X65500909Y-106643136D01*
X64823657Y-106190611D01*
X64071135Y-105878906D01*
X63272262Y-105720000D01*
X62457738Y-105720000D01*
X61658865Y-105878906D01*
X60906343Y-106190611D01*
X60229091Y-106643136D01*
X59653136Y-107219091D01*
X59200611Y-107896343D01*
X58888906Y-108648865D01*
X58730000Y-109447738D01*
X57912000Y-109447738D01*
X57912000Y-75463061D01*
X58655000Y-75463061D01*
X58655000Y-75666939D01*
X58694774Y-75866898D01*
X58772795Y-76055256D01*
X58886063Y-76224774D01*
X58930000Y-76268711D01*
X58930001Y-99657667D01*
X58926324Y-99695000D01*
X58940998Y-99843985D01*
X58984454Y-99987246D01*
X59055026Y-100119276D01*
X59116014Y-100193589D01*
X59150000Y-100235001D01*
X59178998Y-100258799D01*
X70011202Y-111091004D01*
X70035000Y-111120002D01*
X70063998Y-111143800D01*
X70150724Y-111214975D01*
X70282754Y-111285547D01*
X70426015Y-111329004D01*
X70537668Y-111340001D01*
X70537677Y-111340001D01*
X70575000Y-111343677D01*
X70612323Y-111340001D01*
X83237676Y-111340001D01*
X83275001Y-111343677D01*
X83312326Y-111340001D01*
X126237677Y-111340001D01*
X126274999Y-111343677D01*
X126312321Y-111340001D01*
X126312332Y-111340001D01*
X126423985Y-111329004D01*
X126567246Y-111285547D01*
X126699275Y-111214975D01*
X126815000Y-111120002D01*
X126838803Y-111090998D01*
X127847063Y-110082738D01*
X136200000Y-110082738D01*
X136200000Y-110897262D01*
X136358906Y-111696135D01*
X136670611Y-112448657D01*
X137123136Y-113125909D01*
X137699091Y-113701864D01*
X138376343Y-114154389D01*
X139128865Y-114466094D01*
X139927738Y-114625000D01*
X140742262Y-114625000D01*
X141541135Y-114466094D01*
X142293657Y-114154389D01*
X142970909Y-113701864D01*
X143546864Y-113125909D01*
X143999389Y-112448657D01*
X144311094Y-111696135D01*
X144470000Y-110897262D01*
X144470000Y-110082738D01*
X144311094Y-109283865D01*
X143999389Y-108531343D01*
X143546864Y-107854091D01*
X142970909Y-107278136D01*
X142293657Y-106825611D01*
X141541135Y-106513906D01*
X140742262Y-106355000D01*
X139927738Y-106355000D01*
X139128865Y-106513906D01*
X138376343Y-106825611D01*
X137699091Y-107278136D01*
X137123136Y-107854091D01*
X136670611Y-108531343D01*
X136358906Y-109283865D01*
X136200000Y-110082738D01*
X127847063Y-110082738D01*
X134496004Y-103433798D01*
X134525001Y-103410001D01*
X134569308Y-103356013D01*
X134619974Y-103294277D01*
X134690546Y-103162247D01*
X134693592Y-103152205D01*
X134734003Y-103018986D01*
X134745000Y-102907333D01*
X134745000Y-102907323D01*
X134748676Y-102870000D01*
X134745000Y-102832678D01*
X134745000Y-102649872D01*
X135560000Y-102649872D01*
X135560000Y-103090128D01*
X135645890Y-103521925D01*
X135814369Y-103928669D01*
X136058962Y-104294729D01*
X136370271Y-104606038D01*
X136736331Y-104850631D01*
X137143075Y-105019110D01*
X137574872Y-105105000D01*
X138015128Y-105105000D01*
X138446925Y-105019110D01*
X138853669Y-104850631D01*
X139219729Y-104606038D01*
X139531038Y-104294729D01*
X139775631Y-103928669D01*
X139944110Y-103521925D01*
X140030000Y-103090128D01*
X140030000Y-102649872D01*
X139944110Y-102218075D01*
X139775631Y-101811331D01*
X139531038Y-101445271D01*
X139219729Y-101133962D01*
X138853669Y-100889369D01*
X138446925Y-100720890D01*
X138015128Y-100635000D01*
X137574872Y-100635000D01*
X137143075Y-100720890D01*
X136736331Y-100889369D01*
X136370271Y-101133962D01*
X136058962Y-101445271D01*
X135814369Y-101811331D01*
X135645890Y-102218075D01*
X135560000Y-102649872D01*
X134745000Y-102649872D01*
X134745000Y-99097322D01*
X134748676Y-99059999D01*
X134745000Y-99022676D01*
X134745000Y-99022667D01*
X134734003Y-98911014D01*
X134690546Y-98767753D01*
X134619974Y-98635724D01*
X134606811Y-98619685D01*
X134548799Y-98548996D01*
X134548795Y-98548992D01*
X134525001Y-98519999D01*
X134496008Y-98496205D01*
X132801167Y-96801365D01*
X132830000Y-96656411D01*
X132830000Y-96383589D01*
X132776775Y-96116011D01*
X132672371Y-95863957D01*
X132520799Y-95637114D01*
X132327886Y-95444201D01*
X132101043Y-95292629D01*
X131998127Y-95250000D01*
X132101043Y-95207371D01*
X132327886Y-95055799D01*
X132520799Y-94862886D01*
X132672371Y-94636043D01*
X132776775Y-94383989D01*
X132830000Y-94116411D01*
X132830000Y-93843589D01*
X132776775Y-93576011D01*
X132672371Y-93323957D01*
X132520799Y-93097114D01*
X132327886Y-92904201D01*
X132101043Y-92752629D01*
X131848989Y-92648225D01*
X131581411Y-92595000D01*
X131308589Y-92595000D01*
X131041011Y-92648225D01*
X130788957Y-92752629D01*
X130562114Y-92904201D01*
X130369201Y-93097114D01*
X130217629Y-93323957D01*
X130113225Y-93576011D01*
X130060000Y-93843589D01*
X130060000Y-94116411D01*
X130113225Y-94383989D01*
X130217629Y-94636043D01*
X130369201Y-94862886D01*
X130562114Y-95055799D01*
X130788957Y-95207371D01*
X130891873Y-95250000D01*
X130788957Y-95292629D01*
X130562114Y-95444201D01*
X130369201Y-95637114D01*
X130368285Y-95638484D01*
X130261167Y-95531366D01*
X130290000Y-95386411D01*
X130290000Y-95113589D01*
X130236775Y-94846011D01*
X130132371Y-94593957D01*
X129980799Y-94367114D01*
X129787886Y-94174201D01*
X129561043Y-94022629D01*
X129458127Y-93980000D01*
X129561043Y-93937371D01*
X129787886Y-93785799D01*
X129980799Y-93592886D01*
X130132371Y-93366043D01*
X130236775Y-93113989D01*
X130290000Y-92846411D01*
X130290000Y-92573589D01*
X130236775Y-92306011D01*
X130132371Y-92053957D01*
X129980799Y-91827114D01*
X129787886Y-91634201D01*
X129561043Y-91482629D01*
X129308989Y-91378225D01*
X129041411Y-91325000D01*
X128768589Y-91325000D01*
X128501011Y-91378225D01*
X128248957Y-91482629D01*
X128022114Y-91634201D01*
X127829201Y-91827114D01*
X127677629Y-92053957D01*
X127573225Y-92306011D01*
X127520000Y-92573589D01*
X127520000Y-92846411D01*
X127573225Y-93113989D01*
X127677629Y-93366043D01*
X127829201Y-93592886D01*
X128022114Y-93785799D01*
X128248957Y-93937371D01*
X128351873Y-93980000D01*
X128248957Y-94022629D01*
X128022114Y-94174201D01*
X127829201Y-94367114D01*
X127677629Y-94593957D01*
X127573225Y-94846011D01*
X127520000Y-95113589D01*
X127520000Y-95386411D01*
X127573225Y-95653989D01*
X127677629Y-95906043D01*
X127829201Y-96132886D01*
X128022114Y-96325799D01*
X128248957Y-96477371D01*
X128351873Y-96520000D01*
X128248957Y-96562629D01*
X128022114Y-96714201D01*
X127829201Y-96907114D01*
X127747091Y-97030000D01*
X127672323Y-97030000D01*
X127635000Y-97026324D01*
X127597677Y-97030000D01*
X127597667Y-97030000D01*
X127486014Y-97040997D01*
X127345849Y-97083515D01*
X127342753Y-97084454D01*
X127210723Y-97155026D01*
X127165265Y-97192333D01*
X127094999Y-97249999D01*
X127071201Y-97278997D01*
X122240199Y-102110000D01*
X101914802Y-102110000D01*
X87332863Y-87528061D01*
X91675000Y-87528061D01*
X91675000Y-87731939D01*
X91714774Y-87931898D01*
X91792795Y-88120256D01*
X91906063Y-88289774D01*
X92050226Y-88433937D01*
X92219744Y-88547205D01*
X92408102Y-88625226D01*
X92608061Y-88665000D01*
X92670199Y-88665000D01*
X95760001Y-91754803D01*
X95760001Y-92006288D01*
X95716063Y-92050226D01*
X95602795Y-92219744D01*
X95524774Y-92408102D01*
X95485000Y-92608061D01*
X95485000Y-92811939D01*
X95524774Y-93011898D01*
X95602795Y-93200256D01*
X95716063Y-93369774D01*
X95860226Y-93513937D01*
X96029744Y-93627205D01*
X96218102Y-93705226D01*
X96418061Y-93745000D01*
X96621939Y-93745000D01*
X96821898Y-93705226D01*
X97010256Y-93627205D01*
X97179774Y-93513937D01*
X97323937Y-93369774D01*
X97437205Y-93200256D01*
X97515226Y-93011898D01*
X97555000Y-92811939D01*
X97555000Y-92608061D01*
X97515226Y-92408102D01*
X97437205Y-92219744D01*
X97323937Y-92050226D01*
X97280000Y-92006289D01*
X97280000Y-91477325D01*
X97283676Y-91440000D01*
X97280000Y-91402675D01*
X97280000Y-91402667D01*
X97269003Y-91291014D01*
X97225546Y-91147753D01*
X97154974Y-91015724D01*
X97060001Y-90899999D01*
X97031003Y-90876201D01*
X93745000Y-87590199D01*
X93745000Y-87528061D01*
X93705226Y-87328102D01*
X93627205Y-87139744D01*
X93513937Y-86970226D01*
X93369774Y-86826063D01*
X93200256Y-86712795D01*
X93011898Y-86634774D01*
X92811939Y-86595000D01*
X92608061Y-86595000D01*
X92408102Y-86634774D01*
X92219744Y-86712795D01*
X92050226Y-86826063D01*
X91906063Y-86970226D01*
X91792795Y-87139744D01*
X91714774Y-87328102D01*
X91675000Y-87528061D01*
X87332863Y-87528061D01*
X81208804Y-81404003D01*
X81185001Y-81374999D01*
X81069276Y-81280026D01*
X80937247Y-81209454D01*
X80793986Y-81165997D01*
X80682333Y-81155000D01*
X80682322Y-81155000D01*
X80645000Y-81151324D01*
X80607678Y-81155000D01*
X80078711Y-81155000D01*
X80034774Y-81111063D01*
X79865256Y-80997795D01*
X79676898Y-80919774D01*
X79476939Y-80880000D01*
X79273061Y-80880000D01*
X79073102Y-80919774D01*
X78884744Y-80997795D01*
X78715226Y-81111063D01*
X78671289Y-81155000D01*
X69227968Y-81155000D01*
X69292933Y-80998159D01*
X69350001Y-80711261D01*
X69350001Y-80418741D01*
X69292933Y-80131843D01*
X69221754Y-79960002D01*
X86805507Y-79960002D01*
X91190153Y-84344649D01*
X91190153Y-84406786D01*
X91229927Y-84606745D01*
X91307948Y-84795103D01*
X91421216Y-84964621D01*
X91565379Y-85108784D01*
X91734897Y-85222052D01*
X91923255Y-85300073D01*
X92123214Y-85339847D01*
X92185352Y-85339847D01*
X96753235Y-89907731D01*
X96753235Y-89969868D01*
X96793009Y-90169827D01*
X96871030Y-90358185D01*
X96984298Y-90527703D01*
X97128461Y-90671866D01*
X97297979Y-90785134D01*
X97486337Y-90863155D01*
X97686296Y-90902929D01*
X97890174Y-90902929D01*
X98090133Y-90863155D01*
X98278491Y-90785134D01*
X98448009Y-90671866D01*
X98592172Y-90527703D01*
X98705440Y-90358185D01*
X98783461Y-90169827D01*
X98823235Y-89969868D01*
X98823235Y-89815002D01*
X102874674Y-89815002D01*
X102911996Y-89818678D01*
X102949318Y-89815002D01*
X102949329Y-89815002D01*
X103060982Y-89804005D01*
X103204243Y-89760548D01*
X103336272Y-89689976D01*
X103451997Y-89595003D01*
X103475800Y-89565999D01*
X104650000Y-88391799D01*
X104650001Y-89855197D01*
X99819003Y-94686196D01*
X99789999Y-94709999D01*
X99736206Y-94775546D01*
X99695026Y-94825724D01*
X99624455Y-94957753D01*
X99624454Y-94957754D01*
X99580997Y-95101015D01*
X99570000Y-95212668D01*
X99570000Y-95212678D01*
X99566324Y-95250000D01*
X99570000Y-95287323D01*
X99570001Y-96451288D01*
X99448563Y-96572726D01*
X99335295Y-96742244D01*
X99257274Y-96930602D01*
X99217500Y-97130561D01*
X99217500Y-97334439D01*
X99257274Y-97534398D01*
X99335295Y-97722756D01*
X99448563Y-97892274D01*
X99592726Y-98036437D01*
X99762244Y-98149705D01*
X99950602Y-98227726D01*
X100150561Y-98267500D01*
X100354439Y-98267500D01*
X100554398Y-98227726D01*
X100742756Y-98149705D01*
X100912274Y-98036437D01*
X101056437Y-97892274D01*
X101169705Y-97722756D01*
X101247726Y-97534398D01*
X101287500Y-97334439D01*
X101287500Y-97130561D01*
X101247726Y-96930602D01*
X101169705Y-96742244D01*
X101090000Y-96622957D01*
X101090000Y-95564801D01*
X105434929Y-91219872D01*
X135560000Y-91219872D01*
X135560000Y-91660128D01*
X135645890Y-92091925D01*
X135814369Y-92498669D01*
X136058962Y-92864729D01*
X136370271Y-93176038D01*
X136736331Y-93420631D01*
X137143075Y-93589110D01*
X137574872Y-93675000D01*
X138015128Y-93675000D01*
X138446925Y-93589110D01*
X138853669Y-93420631D01*
X139219729Y-93176038D01*
X139531038Y-92864729D01*
X139775631Y-92498669D01*
X139944110Y-92091925D01*
X140030000Y-91660128D01*
X140030000Y-91219872D01*
X139944110Y-90788075D01*
X139775631Y-90381331D01*
X139531038Y-90015271D01*
X139219729Y-89703962D01*
X138853669Y-89459369D01*
X138446925Y-89290890D01*
X138015128Y-89205000D01*
X137574872Y-89205000D01*
X137143075Y-89290890D01*
X136736331Y-89459369D01*
X136370271Y-89703962D01*
X136058962Y-90015271D01*
X135814369Y-90381331D01*
X135645890Y-90788075D01*
X135560000Y-91219872D01*
X105434929Y-91219872D01*
X105921003Y-90733799D01*
X105950001Y-90710001D01*
X105981298Y-90671866D01*
X106044974Y-90594277D01*
X106115546Y-90462247D01*
X106120846Y-90444774D01*
X106159003Y-90318986D01*
X106170000Y-90207333D01*
X106170000Y-90207323D01*
X106173676Y-90170000D01*
X106170000Y-90132677D01*
X106170000Y-88333711D01*
X106213937Y-88289774D01*
X106327205Y-88120256D01*
X106405226Y-87931898D01*
X106445000Y-87731939D01*
X106445000Y-87528061D01*
X106405226Y-87328102D01*
X106327205Y-87139744D01*
X106213937Y-86970226D01*
X106142755Y-86899044D01*
X114271789Y-78770011D01*
X124699070Y-78770009D01*
X124736402Y-78773686D01*
X124773735Y-78770009D01*
X124885388Y-78759012D01*
X124928844Y-78745830D01*
X125028648Y-78715556D01*
X125160678Y-78644984D01*
X125247404Y-78573809D01*
X125247405Y-78573808D01*
X125276403Y-78550010D01*
X125300201Y-78521012D01*
X133481015Y-70340199D01*
X133510012Y-70316402D01*
X133604985Y-70200677D01*
X133675557Y-70068648D01*
X133719014Y-69925387D01*
X133730011Y-69813734D01*
X133730011Y-69813733D01*
X133733688Y-69776401D01*
X133730011Y-69739068D01*
X133730011Y-69629872D01*
X135560000Y-69629872D01*
X135560000Y-70070128D01*
X135645890Y-70501925D01*
X135814369Y-70908669D01*
X136058962Y-71274729D01*
X136370271Y-71586038D01*
X136736331Y-71830631D01*
X137143075Y-71999110D01*
X137574872Y-72085000D01*
X138015128Y-72085000D01*
X138446925Y-71999110D01*
X138853669Y-71830631D01*
X139219729Y-71586038D01*
X139531038Y-71274729D01*
X139775631Y-70908669D01*
X139944110Y-70501925D01*
X140030000Y-70070128D01*
X140030000Y-69629872D01*
X139944110Y-69198075D01*
X139775631Y-68791331D01*
X139531038Y-68425271D01*
X139219729Y-68113962D01*
X138853669Y-67869369D01*
X138446925Y-67700890D01*
X138015128Y-67615000D01*
X137574872Y-67615000D01*
X137143075Y-67700890D01*
X136736331Y-67869369D01*
X136370271Y-68113962D01*
X136058962Y-68425271D01*
X135814369Y-68791331D01*
X135645890Y-69198075D01*
X135560000Y-69629872D01*
X133730011Y-69629872D01*
X133730011Y-63471342D01*
X133733688Y-63434009D01*
X133719014Y-63285023D01*
X133675557Y-63141762D01*
X133604985Y-63009733D01*
X133544475Y-62936001D01*
X133510012Y-62894008D01*
X133481014Y-62870210D01*
X132524805Y-61914001D01*
X132501002Y-61884998D01*
X132488746Y-61874939D01*
X132520799Y-61842886D01*
X132672371Y-61616043D01*
X132776775Y-61363989D01*
X132830000Y-61096411D01*
X132830000Y-60823589D01*
X132776775Y-60556011D01*
X132672371Y-60303957D01*
X132520799Y-60077114D01*
X132327886Y-59884201D01*
X132101043Y-59732629D01*
X131848989Y-59628225D01*
X131581411Y-59575000D01*
X131308589Y-59575000D01*
X131041011Y-59628225D01*
X130788957Y-59732629D01*
X130562114Y-59884201D01*
X130369201Y-60077114D01*
X130217629Y-60303957D01*
X130113225Y-60556011D01*
X130060000Y-60823589D01*
X130060000Y-61096411D01*
X130113225Y-61363989D01*
X130217629Y-61616043D01*
X130369201Y-61842886D01*
X130401254Y-61874939D01*
X130388998Y-61884998D01*
X130365200Y-61913996D01*
X130272680Y-62006516D01*
X130236775Y-61826011D01*
X130132371Y-61573957D01*
X129980799Y-61347114D01*
X129787886Y-61154201D01*
X129561043Y-61002629D01*
X129458127Y-60960000D01*
X129561043Y-60917371D01*
X129787886Y-60765799D01*
X129980799Y-60572886D01*
X130132371Y-60346043D01*
X130236775Y-60093989D01*
X130290000Y-59826411D01*
X130290000Y-59553589D01*
X130236775Y-59286011D01*
X130132371Y-59033957D01*
X129980799Y-58807114D01*
X129787886Y-58614201D01*
X129561043Y-58462629D01*
X129308989Y-58358225D01*
X129041411Y-58305000D01*
X128768589Y-58305000D01*
X128501011Y-58358225D01*
X128248957Y-58462629D01*
X128022114Y-58614201D01*
X127829201Y-58807114D01*
X127677629Y-59033957D01*
X127573225Y-59286011D01*
X127520000Y-59553589D01*
X127520000Y-59826411D01*
X127573225Y-60093989D01*
X127677629Y-60346043D01*
X127829201Y-60572886D01*
X128022114Y-60765799D01*
X128248957Y-60917371D01*
X128351873Y-60960000D01*
X128248957Y-61002629D01*
X128022114Y-61154201D01*
X127829201Y-61347114D01*
X127677629Y-61573957D01*
X127573225Y-61826011D01*
X127520000Y-62093589D01*
X127520000Y-62366411D01*
X127573225Y-62633989D01*
X127677629Y-62886043D01*
X127829201Y-63112886D01*
X128022114Y-63305799D01*
X128248957Y-63457371D01*
X128351873Y-63500000D01*
X128248957Y-63542629D01*
X128022114Y-63694201D01*
X127829201Y-63887114D01*
X127677629Y-64113957D01*
X127573225Y-64366011D01*
X127520000Y-64633589D01*
X127520000Y-64906411D01*
X127573225Y-65173989D01*
X127677629Y-65426043D01*
X127829201Y-65652886D01*
X128022114Y-65845799D01*
X128248957Y-65997371D01*
X128351873Y-66040000D01*
X128248957Y-66082629D01*
X128022114Y-66234201D01*
X127829201Y-66427114D01*
X127677629Y-66653957D01*
X127573225Y-66906011D01*
X127520000Y-67173589D01*
X127520000Y-67446411D01*
X127548833Y-67591365D01*
X125576168Y-69564031D01*
X125396898Y-69489774D01*
X125196939Y-69450000D01*
X124993061Y-69450000D01*
X124793102Y-69489774D01*
X124604744Y-69567795D01*
X124435226Y-69681063D01*
X124291063Y-69825226D01*
X124177795Y-69994744D01*
X124099774Y-70183102D01*
X124060000Y-70383061D01*
X124060000Y-70586939D01*
X124099774Y-70786898D01*
X124177795Y-70975256D01*
X124291063Y-71144774D01*
X124435226Y-71288937D01*
X124604744Y-71402205D01*
X124793102Y-71480226D01*
X124993061Y-71520000D01*
X125196939Y-71520000D01*
X125396898Y-71480226D01*
X125585256Y-71402205D01*
X125754774Y-71288937D01*
X125802139Y-71241572D01*
X125878986Y-71234003D01*
X126022247Y-71190546D01*
X126154276Y-71119974D01*
X126270001Y-71025001D01*
X126293804Y-70995997D01*
X128623635Y-68666167D01*
X128768589Y-68695000D01*
X129041411Y-68695000D01*
X129308989Y-68641775D01*
X129561043Y-68537371D01*
X129787886Y-68385799D01*
X129980799Y-68192886D01*
X130058559Y-68076510D01*
X130060000Y-68294250D01*
X130218750Y-68453000D01*
X131318000Y-68453000D01*
X131318000Y-68433000D01*
X131572000Y-68433000D01*
X131572000Y-68453000D01*
X131592000Y-68453000D01*
X131592000Y-68707000D01*
X131572000Y-68707000D01*
X131572000Y-68727000D01*
X131318000Y-68727000D01*
X131318000Y-68707000D01*
X130218750Y-68707000D01*
X130060000Y-68865750D01*
X130056928Y-69330000D01*
X130069188Y-69454482D01*
X130105498Y-69574180D01*
X130164463Y-69684494D01*
X130243815Y-69781185D01*
X130340506Y-69860537D01*
X130450820Y-69919502D01*
X130570518Y-69955812D01*
X130695000Y-69968072D01*
X131069607Y-69965593D01*
X124235200Y-76800001D01*
X109620000Y-76800001D01*
X109620000Y-76733061D01*
X109580226Y-76533102D01*
X109502205Y-76344744D01*
X109388937Y-76175226D01*
X109244774Y-76031063D01*
X109075256Y-75917795D01*
X108886898Y-75839774D01*
X108686939Y-75800000D01*
X108483061Y-75800000D01*
X108283102Y-75839774D01*
X108094744Y-75917795D01*
X107925226Y-76031063D01*
X107881289Y-76075000D01*
X107629802Y-76075000D01*
X102000000Y-70445199D01*
X102000000Y-70383061D01*
X101960226Y-70183102D01*
X101882205Y-69994744D01*
X101768937Y-69825226D01*
X101725000Y-69781289D01*
X101725000Y-65004320D01*
X101728676Y-64966997D01*
X101725000Y-64929674D01*
X101725000Y-64929665D01*
X101714003Y-64818012D01*
X101670546Y-64674751D01*
X101624297Y-64588226D01*
X101599974Y-64542721D01*
X101528799Y-64455995D01*
X101505001Y-64426997D01*
X101476004Y-64403200D01*
X99426806Y-62354003D01*
X99403003Y-62324999D01*
X99287278Y-62230026D01*
X99155249Y-62159454D01*
X99011988Y-62115997D01*
X98900335Y-62105000D01*
X98900324Y-62105000D01*
X98863002Y-62101324D01*
X98825680Y-62105000D01*
X98493711Y-62105000D01*
X98449774Y-62061063D01*
X98280256Y-61947795D01*
X98091898Y-61869774D01*
X97891939Y-61830000D01*
X97688061Y-61830000D01*
X97488102Y-61869774D01*
X97347168Y-61928151D01*
X97329927Y-61910910D01*
X97160409Y-61797642D01*
X96972051Y-61719621D01*
X96772092Y-61679847D01*
X96568214Y-61679847D01*
X96368255Y-61719621D01*
X96179897Y-61797642D01*
X96010379Y-61910910D01*
X95966442Y-61954847D01*
X94820542Y-61954847D01*
X96552328Y-60223061D01*
X105010000Y-60223061D01*
X105010000Y-60426939D01*
X105049774Y-60626898D01*
X105127795Y-60815256D01*
X105241063Y-60984774D01*
X105285001Y-61028712D01*
X105285000Y-69812678D01*
X105281324Y-69850000D01*
X105285000Y-69887322D01*
X105285000Y-69887332D01*
X105295997Y-69998985D01*
X105317129Y-70068648D01*
X105339454Y-70142246D01*
X105410026Y-70274276D01*
X105427483Y-70295547D01*
X105504999Y-70390001D01*
X105534003Y-70413804D01*
X106280000Y-71159802D01*
X106280000Y-71221939D01*
X106319774Y-71421898D01*
X106397795Y-71610256D01*
X106511063Y-71779774D01*
X106655226Y-71923937D01*
X106824744Y-72037205D01*
X107013102Y-72115226D01*
X107213061Y-72155000D01*
X107416939Y-72155000D01*
X107616898Y-72115226D01*
X107805256Y-72037205D01*
X107974774Y-71923937D01*
X108118937Y-71779774D01*
X108232205Y-71610256D01*
X108310226Y-71421898D01*
X108350000Y-71221939D01*
X108350000Y-71018061D01*
X108310226Y-70818102D01*
X108232205Y-70629744D01*
X108118937Y-70460226D01*
X107974774Y-70316063D01*
X107805256Y-70202795D01*
X107616898Y-70124774D01*
X107416939Y-70085000D01*
X107354802Y-70085000D01*
X106805000Y-69535199D01*
X106805000Y-61028711D01*
X106848937Y-60984774D01*
X106962205Y-60815256D01*
X107040226Y-60626898D01*
X107080000Y-60426939D01*
X107080000Y-60223061D01*
X107040226Y-60023102D01*
X106962205Y-59834744D01*
X106848937Y-59665226D01*
X106704774Y-59521063D01*
X106535256Y-59407795D01*
X106346898Y-59329774D01*
X106146939Y-59290000D01*
X105943061Y-59290000D01*
X105743102Y-59329774D01*
X105554744Y-59407795D01*
X105385226Y-59521063D01*
X105241063Y-59665226D01*
X105127795Y-59834744D01*
X105049774Y-60023102D01*
X105010000Y-60223061D01*
X96552328Y-60223061D01*
X97595389Y-59180000D01*
X107881289Y-59180000D01*
X107925226Y-59223937D01*
X108094744Y-59337205D01*
X108283102Y-59415226D01*
X108483061Y-59455000D01*
X108686939Y-59455000D01*
X108886898Y-59415226D01*
X109075256Y-59337205D01*
X109244774Y-59223937D01*
X109388937Y-59079774D01*
X109502205Y-58910256D01*
X109580226Y-58721898D01*
X109620000Y-58521939D01*
X109620000Y-58318061D01*
X109596491Y-58199872D01*
X135560000Y-58199872D01*
X135560000Y-58640128D01*
X135645890Y-59071925D01*
X135814369Y-59478669D01*
X136058962Y-59844729D01*
X136370271Y-60156038D01*
X136736331Y-60400631D01*
X137143075Y-60569110D01*
X137574872Y-60655000D01*
X138015128Y-60655000D01*
X138446925Y-60569110D01*
X138853669Y-60400631D01*
X139219729Y-60156038D01*
X139531038Y-59844729D01*
X139775631Y-59478669D01*
X139944110Y-59071925D01*
X140030000Y-58640128D01*
X140030000Y-58199872D01*
X139944110Y-57768075D01*
X139775631Y-57361331D01*
X139531038Y-56995271D01*
X139219729Y-56683962D01*
X138853669Y-56439369D01*
X138446925Y-56270890D01*
X138015128Y-56185000D01*
X137574872Y-56185000D01*
X137143075Y-56270890D01*
X136736331Y-56439369D01*
X136370271Y-56683962D01*
X136058962Y-56995271D01*
X135814369Y-57361331D01*
X135645890Y-57768075D01*
X135560000Y-58199872D01*
X109596491Y-58199872D01*
X109580226Y-58118102D01*
X109502205Y-57929744D01*
X109388937Y-57760226D01*
X109244774Y-57616063D01*
X109075256Y-57502795D01*
X108886898Y-57424774D01*
X108686939Y-57385000D01*
X108483061Y-57385000D01*
X108283102Y-57424774D01*
X108094744Y-57502795D01*
X107925226Y-57616063D01*
X107881289Y-57660000D01*
X97317910Y-57660000D01*
X97280587Y-57656324D01*
X97243264Y-57660000D01*
X97243254Y-57660000D01*
X97131601Y-57670997D01*
X96988340Y-57714454D01*
X96856310Y-57785026D01*
X96772670Y-57853668D01*
X96740586Y-57879999D01*
X96716788Y-57908997D01*
X84980785Y-69645001D01*
X83155803Y-69645001D01*
X83040256Y-69567795D01*
X82851898Y-69489774D01*
X82651939Y-69450000D01*
X82448061Y-69450000D01*
X82248102Y-69489774D01*
X82059744Y-69567795D01*
X81944197Y-69645001D01*
X69143179Y-69645001D01*
X69018476Y-69458369D01*
X68811633Y-69251526D01*
X68637241Y-69135001D01*
X68811633Y-69018476D01*
X69018476Y-68811633D01*
X69180991Y-68568412D01*
X69292933Y-68298159D01*
X69350001Y-68011261D01*
X69350001Y-67718741D01*
X69292933Y-67431843D01*
X69180991Y-67161590D01*
X69018476Y-66918369D01*
X68811633Y-66711526D01*
X68568412Y-66549011D01*
X68531910Y-66533891D01*
X69293301Y-65772501D01*
X76993179Y-65772501D01*
X77030501Y-65776177D01*
X77067823Y-65772501D01*
X77067834Y-65772501D01*
X77179487Y-65761504D01*
X77322748Y-65718047D01*
X77454777Y-65647475D01*
X77570502Y-65552502D01*
X77594305Y-65523498D01*
X81791004Y-61326800D01*
X81820001Y-61303003D01*
X81869897Y-61242205D01*
X81914974Y-61187279D01*
X81985546Y-61055249D01*
X82006924Y-60984774D01*
X82029003Y-60911988D01*
X82040000Y-60800335D01*
X82040000Y-60800326D01*
X82043676Y-60763003D01*
X82040000Y-60725680D01*
X82040000Y-57218711D01*
X82083937Y-57174774D01*
X82197205Y-57005256D01*
X82275226Y-56816898D01*
X82315000Y-56616939D01*
X82315000Y-56413061D01*
X82275226Y-56213102D01*
X82197205Y-56024744D01*
X82083937Y-55855226D01*
X81939774Y-55711063D01*
X81770256Y-55597795D01*
X81581898Y-55519774D01*
X81381939Y-55480000D01*
X81178061Y-55480000D01*
X80978102Y-55519774D01*
X80789744Y-55597795D01*
X80620226Y-55711063D01*
X80476063Y-55855226D01*
X80362795Y-56024744D01*
X80284774Y-56213102D01*
X80245000Y-56413061D01*
X80245000Y-56616939D01*
X80284774Y-56816898D01*
X80362795Y-57005256D01*
X80476063Y-57174774D01*
X80520001Y-57218712D01*
X80520000Y-60448200D01*
X78835956Y-62132245D01*
X78764774Y-62061063D01*
X78595256Y-61947795D01*
X78406898Y-61869774D01*
X78206939Y-61830000D01*
X78003061Y-61830000D01*
X77803102Y-61869774D01*
X77614744Y-61947795D01*
X77445226Y-62061063D01*
X77401289Y-62105000D01*
X73093711Y-62105000D01*
X73049774Y-62061063D01*
X72880256Y-61947795D01*
X72691898Y-61869774D01*
X72491939Y-61830000D01*
X72288061Y-61830000D01*
X72088102Y-61869774D01*
X71899744Y-61947795D01*
X71730226Y-62061063D01*
X71586063Y-62205226D01*
X71472795Y-62374744D01*
X71394774Y-62563102D01*
X71355000Y-62763061D01*
X71355000Y-62966939D01*
X71394774Y-63166898D01*
X71472795Y-63355256D01*
X71586063Y-63524774D01*
X71730226Y-63668937D01*
X71899744Y-63782205D01*
X72088102Y-63860226D01*
X72288061Y-63900000D01*
X72491939Y-63900000D01*
X72691898Y-63860226D01*
X72880256Y-63782205D01*
X73049774Y-63668937D01*
X73093711Y-63625000D01*
X77343201Y-63625000D01*
X76715700Y-64252501D01*
X69015821Y-64252501D01*
X68978498Y-64248825D01*
X68941175Y-64252501D01*
X68941166Y-64252501D01*
X68829513Y-64263498D01*
X68686252Y-64306955D01*
X68554223Y-64377527D01*
X68438498Y-64472500D01*
X68414700Y-64501498D01*
X66465788Y-66450411D01*
X66419181Y-66425499D01*
X66299483Y-66389189D01*
X66175001Y-66376929D01*
X64475001Y-66376929D01*
X64350519Y-66389189D01*
X64230821Y-66425499D01*
X64120507Y-66484464D01*
X64023816Y-66563816D01*
X63944464Y-66660507D01*
X63885499Y-66770821D01*
X63849189Y-66890519D01*
X63836929Y-67015001D01*
X63836929Y-68715001D01*
X63849189Y-68839483D01*
X63885499Y-68959181D01*
X63944464Y-69069495D01*
X64023816Y-69166186D01*
X64120507Y-69245538D01*
X64230821Y-69304503D01*
X64303381Y-69326514D01*
X64171526Y-69458369D01*
X64009011Y-69701590D01*
X63897069Y-69971843D01*
X63840001Y-70258741D01*
X63840001Y-70551261D01*
X63883792Y-70771409D01*
X63639003Y-71016198D01*
X63609999Y-71040001D01*
X63554871Y-71107176D01*
X63515026Y-71155726D01*
X63473186Y-71234003D01*
X63444454Y-71287756D01*
X63400997Y-71431017D01*
X63390000Y-71542670D01*
X63390000Y-71542680D01*
X63386324Y-71580002D01*
X63390000Y-71617325D01*
X63390001Y-76011670D01*
X63386324Y-76049002D01*
X63390001Y-76086335D01*
X63400998Y-76197988D01*
X63414180Y-76241444D01*
X63444454Y-76341248D01*
X63515026Y-76473278D01*
X63586201Y-76560004D01*
X63610000Y-76589003D01*
X63638997Y-76612800D01*
X64144705Y-77118510D01*
X64009011Y-77321590D01*
X63897069Y-77591843D01*
X63840001Y-77878741D01*
X63840001Y-78171261D01*
X63897069Y-78458159D01*
X64009011Y-78728412D01*
X64171526Y-78971633D01*
X64378369Y-79178476D01*
X64552761Y-79295001D01*
X64378369Y-79411526D01*
X64171526Y-79618369D01*
X64009011Y-79861590D01*
X63897069Y-80131843D01*
X63840001Y-80418741D01*
X63840001Y-80711261D01*
X63897069Y-80998159D01*
X64009011Y-81268412D01*
X64171526Y-81511633D01*
X64378369Y-81718476D01*
X64552761Y-81835001D01*
X64378369Y-81951526D01*
X64171526Y-82158369D01*
X64009011Y-82401590D01*
X63897069Y-82671843D01*
X63840001Y-82958741D01*
X63840001Y-83251261D01*
X63897069Y-83538159D01*
X64009011Y-83808412D01*
X64171526Y-84051633D01*
X64378369Y-84258476D01*
X64552761Y-84375001D01*
X64378369Y-84491526D01*
X64171526Y-84698369D01*
X64009011Y-84941590D01*
X63897069Y-85211843D01*
X63840001Y-85498741D01*
X63840001Y-85791261D01*
X63897069Y-86078159D01*
X64009011Y-86348412D01*
X64171526Y-86591633D01*
X64378369Y-86798476D01*
X64560535Y-86920196D01*
X64443646Y-86989823D01*
X64227413Y-87184732D01*
X64053360Y-87418081D01*
X63928176Y-87680902D01*
X63883525Y-87828111D01*
X64004846Y-88058001D01*
X65198001Y-88058001D01*
X65198001Y-88038001D01*
X65452001Y-88038001D01*
X65452001Y-88058001D01*
X67738001Y-88058001D01*
X67738001Y-88038001D01*
X67992001Y-88038001D01*
X67992001Y-88058001D01*
X69185156Y-88058001D01*
X69306477Y-87828111D01*
X69261826Y-87680902D01*
X69136642Y-87418081D01*
X68962589Y-87184732D01*
X68746356Y-86989823D01*
X68629467Y-86920196D01*
X68811633Y-86798476D01*
X69018476Y-86591633D01*
X69180991Y-86348412D01*
X69292933Y-86078159D01*
X69350001Y-85791261D01*
X69350001Y-85498741D01*
X69292933Y-85211843D01*
X69180991Y-84941590D01*
X69018476Y-84698369D01*
X68811633Y-84491526D01*
X68637241Y-84375001D01*
X68811633Y-84258476D01*
X69018476Y-84051633D01*
X69143179Y-83865001D01*
X79810788Y-83865001D01*
X101203967Y-105258181D01*
X101250598Y-105315001D01*
X101366323Y-105409974D01*
X101498352Y-105480546D01*
X101641613Y-105524003D01*
X101753266Y-105535000D01*
X126093324Y-105535000D01*
X126204977Y-105524003D01*
X126348238Y-105480546D01*
X126480267Y-105409974D01*
X126595992Y-105315001D01*
X126642627Y-105258176D01*
X130173802Y-101727002D01*
X130218748Y-101727002D01*
X130060000Y-101885750D01*
X130056928Y-102350000D01*
X130069188Y-102474482D01*
X130105498Y-102594180D01*
X130164463Y-102704494D01*
X130243815Y-102801185D01*
X130340506Y-102880537D01*
X130450820Y-102939502D01*
X130570518Y-102975812D01*
X130695000Y-102988072D01*
X131159250Y-102985000D01*
X131318000Y-102826250D01*
X131318000Y-101727000D01*
X131572000Y-101727000D01*
X131572000Y-102826250D01*
X131730750Y-102985000D01*
X132195000Y-102988072D01*
X132319482Y-102975812D01*
X132439180Y-102939502D01*
X132549494Y-102880537D01*
X132646185Y-102801185D01*
X132725537Y-102704494D01*
X132784502Y-102594180D01*
X132820812Y-102474482D01*
X132833072Y-102350000D01*
X132830000Y-101885750D01*
X132671250Y-101727000D01*
X131572000Y-101727000D01*
X131318000Y-101727000D01*
X131298000Y-101727000D01*
X131298000Y-101473000D01*
X131318000Y-101473000D01*
X131318000Y-101453000D01*
X131572000Y-101453000D01*
X131572000Y-101473000D01*
X132671250Y-101473000D01*
X132830000Y-101314250D01*
X132833072Y-100850000D01*
X132820812Y-100725518D01*
X132784502Y-100605820D01*
X132725537Y-100495506D01*
X132646185Y-100398815D01*
X132549494Y-100319463D01*
X132439180Y-100260498D01*
X132319482Y-100224188D01*
X132211517Y-100213555D01*
X132327886Y-100135799D01*
X132520799Y-99942886D01*
X132672371Y-99716043D01*
X132776775Y-99463989D01*
X132830000Y-99196411D01*
X132830000Y-98979803D01*
X133225001Y-99374804D01*
X133225000Y-102555198D01*
X125960198Y-109820001D01*
X83945000Y-109820001D01*
X83945000Y-102938711D01*
X83988937Y-102894774D01*
X84102205Y-102725256D01*
X84180226Y-102536898D01*
X84220000Y-102336939D01*
X84220000Y-102133061D01*
X84180226Y-101933102D01*
X84102205Y-101744744D01*
X83988937Y-101575226D01*
X83844774Y-101431063D01*
X83675256Y-101317795D01*
X83486898Y-101239774D01*
X83286939Y-101200000D01*
X83220000Y-101200000D01*
X83220000Y-94384801D01*
X85129802Y-92475000D01*
X85191939Y-92475000D01*
X85391898Y-92435226D01*
X85580256Y-92357205D01*
X85749774Y-92243937D01*
X85893937Y-92099774D01*
X86007205Y-91930256D01*
X86085226Y-91741898D01*
X86125000Y-91541939D01*
X86125000Y-91338061D01*
X86085226Y-91138102D01*
X86007205Y-90949744D01*
X85893937Y-90780226D01*
X85749774Y-90636063D01*
X85580256Y-90522795D01*
X85391898Y-90444774D01*
X85191939Y-90405000D01*
X84988061Y-90405000D01*
X84788102Y-90444774D01*
X84599744Y-90522795D01*
X84430226Y-90636063D01*
X84286063Y-90780226D01*
X84172795Y-90949744D01*
X84094774Y-91138102D01*
X84055000Y-91338061D01*
X84055000Y-91400198D01*
X81948998Y-93506201D01*
X81920000Y-93529999D01*
X81896202Y-93558997D01*
X81896201Y-93558998D01*
X81825026Y-93645724D01*
X81754454Y-93777754D01*
X81710998Y-93921015D01*
X81696324Y-94070000D01*
X81700001Y-94107332D01*
X81700000Y-105341289D01*
X81656063Y-105385226D01*
X81542795Y-105554744D01*
X81464774Y-105743102D01*
X81425000Y-105943061D01*
X81425000Y-106146939D01*
X81464774Y-106346898D01*
X81542795Y-106535256D01*
X81656063Y-106704774D01*
X81800226Y-106848937D01*
X81969744Y-106962205D01*
X82158102Y-107040226D01*
X82358061Y-107080000D01*
X82425001Y-107080000D01*
X82425001Y-109820001D01*
X79140000Y-109820001D01*
X79140000Y-109753061D01*
X79100226Y-109553102D01*
X79022205Y-109364744D01*
X78908937Y-109195226D01*
X78764774Y-109051063D01*
X78595256Y-108937795D01*
X78406898Y-108859774D01*
X78206939Y-108820000D01*
X78003061Y-108820000D01*
X77803102Y-108859774D01*
X77614744Y-108937795D01*
X77445226Y-109051063D01*
X77401289Y-109095000D01*
X73093711Y-109095000D01*
X73049774Y-109051063D01*
X72880256Y-108937795D01*
X72691898Y-108859774D01*
X72491939Y-108820000D01*
X72288061Y-108820000D01*
X72088102Y-108859774D01*
X71899744Y-108937795D01*
X71730226Y-109051063D01*
X71586063Y-109195226D01*
X71472795Y-109364744D01*
X71394774Y-109553102D01*
X71355000Y-109753061D01*
X71355000Y-109820001D01*
X70889803Y-109820001D01*
X67012863Y-105943061D01*
X71355000Y-105943061D01*
X71355000Y-106146939D01*
X71394774Y-106346898D01*
X71472795Y-106535256D01*
X71586063Y-106704774D01*
X71730226Y-106848937D01*
X71899744Y-106962205D01*
X72088102Y-107040226D01*
X72288061Y-107080000D01*
X72491939Y-107080000D01*
X72691898Y-107040226D01*
X72880256Y-106962205D01*
X73049774Y-106848937D01*
X73093711Y-106805000D01*
X77401289Y-106805000D01*
X77445226Y-106848937D01*
X77614744Y-106962205D01*
X77803102Y-107040226D01*
X78003061Y-107080000D01*
X78206939Y-107080000D01*
X78406898Y-107040226D01*
X78595256Y-106962205D01*
X78764774Y-106848937D01*
X78908937Y-106704774D01*
X79022205Y-106535256D01*
X79100226Y-106346898D01*
X79140000Y-106146939D01*
X79140000Y-105943061D01*
X79100226Y-105743102D01*
X79022205Y-105554744D01*
X78908937Y-105385226D01*
X78764774Y-105241063D01*
X78595256Y-105127795D01*
X78406898Y-105049774D01*
X78206939Y-105010000D01*
X78003061Y-105010000D01*
X77803102Y-105049774D01*
X77614744Y-105127795D01*
X77445226Y-105241063D01*
X77401289Y-105285000D01*
X73093711Y-105285000D01*
X73049774Y-105241063D01*
X72880256Y-105127795D01*
X72691898Y-105049774D01*
X72491939Y-105010000D01*
X72288061Y-105010000D01*
X72088102Y-105049774D01*
X71899744Y-105127795D01*
X71730226Y-105241063D01*
X71586063Y-105385226D01*
X71472795Y-105554744D01*
X71394774Y-105743102D01*
X71355000Y-105943061D01*
X67012863Y-105943061D01*
X65399180Y-104329379D01*
X65429774Y-104308937D01*
X65573937Y-104164774D01*
X65687205Y-103995256D01*
X65765226Y-103806898D01*
X65805000Y-103606939D01*
X65805000Y-103403061D01*
X65765226Y-103203102D01*
X65687205Y-103014744D01*
X65573937Y-102845226D01*
X65429774Y-102701063D01*
X65260256Y-102587795D01*
X65071898Y-102509774D01*
X64871939Y-102470000D01*
X64809802Y-102470000D01*
X63202863Y-100863061D01*
X71355000Y-100863061D01*
X71355000Y-101066939D01*
X71394774Y-101266898D01*
X71472795Y-101455256D01*
X71586063Y-101624774D01*
X71730226Y-101768937D01*
X71899744Y-101882205D01*
X72088102Y-101960226D01*
X72288061Y-102000000D01*
X72491939Y-102000000D01*
X72691898Y-101960226D01*
X72880256Y-101882205D01*
X73049774Y-101768937D01*
X73093711Y-101725000D01*
X77401289Y-101725000D01*
X77445226Y-101768937D01*
X77614744Y-101882205D01*
X77803102Y-101960226D01*
X78003061Y-102000000D01*
X78206939Y-102000000D01*
X78406898Y-101960226D01*
X78595256Y-101882205D01*
X78764774Y-101768937D01*
X78908937Y-101624774D01*
X79022205Y-101455256D01*
X79100226Y-101266898D01*
X79140000Y-101066939D01*
X79140000Y-100863061D01*
X79100226Y-100663102D01*
X79022205Y-100474744D01*
X78908937Y-100305226D01*
X78764774Y-100161063D01*
X78595256Y-100047795D01*
X78406898Y-99969774D01*
X78206939Y-99930000D01*
X78003061Y-99930000D01*
X77803102Y-99969774D01*
X77614744Y-100047795D01*
X77445226Y-100161063D01*
X77401289Y-100205000D01*
X73093711Y-100205000D01*
X73049774Y-100161063D01*
X72880256Y-100047795D01*
X72691898Y-99969774D01*
X72491939Y-99930000D01*
X72288061Y-99930000D01*
X72088102Y-99969774D01*
X71899744Y-100047795D01*
X71730226Y-100161063D01*
X71586063Y-100305226D01*
X71472795Y-100474744D01*
X71394774Y-100663102D01*
X71355000Y-100863061D01*
X63202863Y-100863061D01*
X62265000Y-99925199D01*
X62265000Y-97053061D01*
X71355000Y-97053061D01*
X71355000Y-97256939D01*
X71394774Y-97456898D01*
X71472795Y-97645256D01*
X71586063Y-97814774D01*
X71730226Y-97958937D01*
X71899744Y-98072205D01*
X72088102Y-98150226D01*
X72288061Y-98190000D01*
X72491939Y-98190000D01*
X72691898Y-98150226D01*
X72880256Y-98072205D01*
X73049774Y-97958937D01*
X73093711Y-97915000D01*
X77401289Y-97915000D01*
X77445226Y-97958937D01*
X77614744Y-98072205D01*
X77803102Y-98150226D01*
X78003061Y-98190000D01*
X78206939Y-98190000D01*
X78406898Y-98150226D01*
X78595256Y-98072205D01*
X78764774Y-97958937D01*
X78908937Y-97814774D01*
X79022205Y-97645256D01*
X79100226Y-97456898D01*
X79140000Y-97256939D01*
X79140000Y-97053061D01*
X79100226Y-96853102D01*
X79022205Y-96664744D01*
X78908937Y-96495226D01*
X78764774Y-96351063D01*
X78595256Y-96237795D01*
X78406898Y-96159774D01*
X78206939Y-96120000D01*
X78003061Y-96120000D01*
X77803102Y-96159774D01*
X77614744Y-96237795D01*
X77445226Y-96351063D01*
X77401289Y-96395000D01*
X73093711Y-96395000D01*
X73049774Y-96351063D01*
X72880256Y-96237795D01*
X72691898Y-96159774D01*
X72491939Y-96120000D01*
X72288061Y-96120000D01*
X72088102Y-96159774D01*
X71899744Y-96237795D01*
X71730226Y-96351063D01*
X71586063Y-96495226D01*
X71472795Y-96664744D01*
X71394774Y-96853102D01*
X71355000Y-97053061D01*
X62265000Y-97053061D01*
X62265000Y-91081891D01*
X63883525Y-91081891D01*
X63928176Y-91229100D01*
X64053360Y-91491921D01*
X64227413Y-91725270D01*
X64443646Y-91920179D01*
X64693749Y-92069158D01*
X64968110Y-92166482D01*
X65198001Y-92045815D01*
X65198001Y-90852001D01*
X65452001Y-90852001D01*
X65452001Y-92045815D01*
X65681892Y-92166482D01*
X65956253Y-92069158D01*
X66206356Y-91920179D01*
X66422589Y-91725270D01*
X66595001Y-91494121D01*
X66767413Y-91725270D01*
X66983646Y-91920179D01*
X67233749Y-92069158D01*
X67508110Y-92166482D01*
X67738001Y-92045815D01*
X67738001Y-90852001D01*
X67992001Y-90852001D01*
X67992001Y-92045815D01*
X68221892Y-92166482D01*
X68496253Y-92069158D01*
X68746356Y-91920179D01*
X68962589Y-91725270D01*
X69136642Y-91491921D01*
X69261826Y-91229100D01*
X69306477Y-91081891D01*
X69185156Y-90852001D01*
X67992001Y-90852001D01*
X67738001Y-90852001D01*
X65452001Y-90852001D01*
X65198001Y-90852001D01*
X64004846Y-90852001D01*
X63883525Y-91081891D01*
X62265000Y-91081891D01*
X62265000Y-88541891D01*
X63883525Y-88541891D01*
X63928176Y-88689100D01*
X64053360Y-88951921D01*
X64227413Y-89185270D01*
X64443646Y-89380179D01*
X64569256Y-89455001D01*
X64443646Y-89529823D01*
X64227413Y-89724732D01*
X64053360Y-89958081D01*
X63928176Y-90220902D01*
X63883525Y-90368111D01*
X64004846Y-90598001D01*
X65198001Y-90598001D01*
X65198001Y-88312001D01*
X65452001Y-88312001D01*
X65452001Y-90598001D01*
X67738001Y-90598001D01*
X67738001Y-88312001D01*
X67992001Y-88312001D01*
X67992001Y-90598001D01*
X69185156Y-90598001D01*
X69306477Y-90368111D01*
X69261826Y-90220902D01*
X69136642Y-89958081D01*
X68962589Y-89724732D01*
X68746356Y-89529823D01*
X68620746Y-89455001D01*
X68746356Y-89380179D01*
X68962589Y-89185270D01*
X69136642Y-88951921D01*
X69261826Y-88689100D01*
X69306477Y-88541891D01*
X69185156Y-88312001D01*
X67992001Y-88312001D01*
X67738001Y-88312001D01*
X65452001Y-88312001D01*
X65198001Y-88312001D01*
X64004846Y-88312001D01*
X63883525Y-88541891D01*
X62265000Y-88541891D01*
X62265000Y-73728711D01*
X62308937Y-73684774D01*
X62422205Y-73515256D01*
X62500226Y-73326898D01*
X62540000Y-73126939D01*
X62540000Y-72923061D01*
X62500226Y-72723102D01*
X62422205Y-72534744D01*
X62308937Y-72365226D01*
X62164774Y-72221063D01*
X61995256Y-72107795D01*
X61806898Y-72029774D01*
X61606939Y-71990000D01*
X61403061Y-71990000D01*
X61203102Y-72029774D01*
X61014744Y-72107795D01*
X60845226Y-72221063D01*
X60701063Y-72365226D01*
X60587795Y-72534744D01*
X60509774Y-72723102D01*
X60470000Y-72923061D01*
X60470000Y-73126939D01*
X60509774Y-73326898D01*
X60587795Y-73515256D01*
X60701063Y-73684774D01*
X60745001Y-73728712D01*
X60745000Y-99675199D01*
X60450000Y-99380199D01*
X60450000Y-76268711D01*
X60493937Y-76224774D01*
X60607205Y-76055256D01*
X60685226Y-75866898D01*
X60725000Y-75666939D01*
X60725000Y-75463061D01*
X60685226Y-75263102D01*
X60607205Y-75074744D01*
X60493937Y-74905226D01*
X60349774Y-74761063D01*
X60180256Y-74647795D01*
X59991898Y-74569774D01*
X59791939Y-74530000D01*
X59588061Y-74530000D01*
X59388102Y-74569774D01*
X59199744Y-74647795D01*
X59030226Y-74761063D01*
X58886063Y-74905226D01*
X58772795Y-75074744D01*
X58694774Y-75263102D01*
X58655000Y-75463061D01*
X57912000Y-75463061D01*
X57912000Y-58953061D01*
X71355000Y-58953061D01*
X71355000Y-59156939D01*
X71394774Y-59356898D01*
X71472795Y-59545256D01*
X71586063Y-59714774D01*
X71730226Y-59858937D01*
X71899744Y-59972205D01*
X72088102Y-60050226D01*
X72288061Y-60090000D01*
X72491939Y-60090000D01*
X72691898Y-60050226D01*
X72880256Y-59972205D01*
X73049774Y-59858937D01*
X73093711Y-59815000D01*
X77401289Y-59815000D01*
X77445226Y-59858937D01*
X77614744Y-59972205D01*
X77803102Y-60050226D01*
X78003061Y-60090000D01*
X78206939Y-60090000D01*
X78406898Y-60050226D01*
X78595256Y-59972205D01*
X78764774Y-59858937D01*
X78908937Y-59714774D01*
X79022205Y-59545256D01*
X79100226Y-59356898D01*
X79140000Y-59156939D01*
X79140000Y-58953061D01*
X79100226Y-58753102D01*
X79022205Y-58564744D01*
X78908937Y-58395226D01*
X78764774Y-58251063D01*
X78595256Y-58137795D01*
X78406898Y-58059774D01*
X78206939Y-58020000D01*
X78003061Y-58020000D01*
X77803102Y-58059774D01*
X77614744Y-58137795D01*
X77445226Y-58251063D01*
X77401289Y-58295000D01*
X73093711Y-58295000D01*
X73049774Y-58251063D01*
X72880256Y-58137795D01*
X72691898Y-58059774D01*
X72491939Y-58020000D01*
X72288061Y-58020000D01*
X72088102Y-58059774D01*
X71899744Y-58137795D01*
X71730226Y-58251063D01*
X71586063Y-58395226D01*
X71472795Y-58564744D01*
X71394774Y-58753102D01*
X71355000Y-58953061D01*
X57912000Y-58953061D01*
X57912000Y-54508061D01*
X71355000Y-54508061D01*
X71355000Y-54711939D01*
X71394774Y-54911898D01*
X71472795Y-55100256D01*
X71586063Y-55269774D01*
X71730226Y-55413937D01*
X71899744Y-55527205D01*
X72088102Y-55605226D01*
X72288061Y-55645000D01*
X72491939Y-55645000D01*
X72691898Y-55605226D01*
X72880256Y-55527205D01*
X73049774Y-55413937D01*
X73093711Y-55370000D01*
X77401289Y-55370000D01*
X77445226Y-55413937D01*
X77614744Y-55527205D01*
X77803102Y-55605226D01*
X78003061Y-55645000D01*
X78206939Y-55645000D01*
X78406898Y-55605226D01*
X78595256Y-55527205D01*
X78764774Y-55413937D01*
X78908937Y-55269774D01*
X79022205Y-55100256D01*
X79100226Y-54911898D01*
X79140000Y-54711939D01*
X79140000Y-54508061D01*
X79100226Y-54308102D01*
X79022205Y-54119744D01*
X78908937Y-53950226D01*
X78764774Y-53806063D01*
X78595256Y-53692795D01*
X78406898Y-53614774D01*
X78206939Y-53575000D01*
X78003061Y-53575000D01*
X77803102Y-53614774D01*
X77614744Y-53692795D01*
X77445226Y-53806063D01*
X77401289Y-53850000D01*
X73093711Y-53850000D01*
X73049774Y-53806063D01*
X72880256Y-53692795D01*
X72691898Y-53614774D01*
X72491939Y-53575000D01*
X72288061Y-53575000D01*
X72088102Y-53614774D01*
X71899744Y-53692795D01*
X71730226Y-53806063D01*
X71586063Y-53950226D01*
X71472795Y-54119744D01*
X71394774Y-54308102D01*
X71355000Y-54508061D01*
X57912000Y-54508061D01*
X57912000Y-49757738D01*
X58730000Y-49757738D01*
X58730000Y-50572262D01*
X58888906Y-51371135D01*
X59200611Y-52123657D01*
X59653136Y-52800909D01*
X60229091Y-53376864D01*
X60906343Y-53829389D01*
X61658865Y-54141094D01*
X62457738Y-54300000D01*
X63272262Y-54300000D01*
X64071135Y-54141094D01*
X64823657Y-53829389D01*
X65500909Y-53376864D01*
X66076864Y-52800909D01*
X66529389Y-52123657D01*
X66841094Y-51371135D01*
X66974976Y-50698061D01*
X71355000Y-50698061D01*
X71355000Y-50901939D01*
X71394774Y-51101898D01*
X71472795Y-51290256D01*
X71586063Y-51459774D01*
X71730226Y-51603937D01*
X71899744Y-51717205D01*
X72088102Y-51795226D01*
X72288061Y-51835000D01*
X72491939Y-51835000D01*
X72691898Y-51795226D01*
X72880256Y-51717205D01*
X73049774Y-51603937D01*
X73093711Y-51560000D01*
X77401289Y-51560000D01*
X77445226Y-51603937D01*
X77614744Y-51717205D01*
X77803102Y-51795226D01*
X78003061Y-51835000D01*
X78206939Y-51835000D01*
X78406898Y-51795226D01*
X78595256Y-51717205D01*
X78764774Y-51603937D01*
X78908937Y-51459774D01*
X79022205Y-51290256D01*
X79100226Y-51101898D01*
X79140000Y-50901939D01*
X79140000Y-50698061D01*
X79100226Y-50498102D01*
X79022205Y-50309744D01*
X78908937Y-50140226D01*
X78764774Y-49996063D01*
X78595256Y-49882795D01*
X78406898Y-49804774D01*
X78206939Y-49765000D01*
X78003061Y-49765000D01*
X77803102Y-49804774D01*
X77614744Y-49882795D01*
X77445226Y-49996063D01*
X77401289Y-50040000D01*
X73093711Y-50040000D01*
X73049774Y-49996063D01*
X72880256Y-49882795D01*
X72691898Y-49804774D01*
X72491939Y-49765000D01*
X72288061Y-49765000D01*
X72088102Y-49804774D01*
X71899744Y-49882795D01*
X71730226Y-49996063D01*
X71586063Y-50140226D01*
X71472795Y-50309744D01*
X71394774Y-50498102D01*
X71355000Y-50698061D01*
X66974976Y-50698061D01*
X67000000Y-50572262D01*
X67000000Y-49757738D01*
X136200000Y-49757738D01*
X136200000Y-50572262D01*
X136358906Y-51371135D01*
X136670611Y-52123657D01*
X137123136Y-52800909D01*
X137699091Y-53376864D01*
X138376343Y-53829389D01*
X139128865Y-54141094D01*
X139927738Y-54300000D01*
X140742262Y-54300000D01*
X141541135Y-54141094D01*
X142293657Y-53829389D01*
X142970909Y-53376864D01*
X143546864Y-52800909D01*
X143999389Y-52123657D01*
X144311094Y-51371135D01*
X144470000Y-50572262D01*
X144470000Y-49757738D01*
X144311094Y-48958865D01*
X143999389Y-48206343D01*
X143546864Y-47529091D01*
X142970909Y-46953136D01*
X142293657Y-46500611D01*
X141541135Y-46188906D01*
X140742262Y-46030000D01*
X139927738Y-46030000D01*
X139128865Y-46188906D01*
X138376343Y-46500611D01*
X137699091Y-46953136D01*
X137123136Y-47529091D01*
X136670611Y-48206343D01*
X136358906Y-48958865D01*
X136200000Y-49757738D01*
X67000000Y-49757738D01*
X66841094Y-48958865D01*
X66529389Y-48206343D01*
X66076864Y-47529091D01*
X65500909Y-46953136D01*
X64823657Y-46500611D01*
X64071135Y-46188906D01*
X63272262Y-46030000D01*
X62457738Y-46030000D01*
X61658865Y-46188906D01*
X60906343Y-46500611D01*
X60229091Y-46953136D01*
X59653136Y-47529091D01*
X59200611Y-48206343D01*
X58888906Y-48958865D01*
X58730000Y-49757738D01*
X57912000Y-49757738D01*
X57912000Y-48163766D01*
X58106782Y-47499809D01*
X58433537Y-46865377D01*
X58874369Y-46304173D01*
X59413363Y-45836459D01*
X60031080Y-45479100D01*
X60705225Y-45244997D01*
X60932802Y-45212000D01*
X142336234Y-45212000D01*
X143000191Y-45406782D01*
G37*
X143000191Y-45406782D02*
X143634623Y-45733537D01*
X144195827Y-46174369D01*
X144663541Y-46713363D01*
X145020900Y-47331080D01*
X145255003Y-48005225D01*
X145288000Y-48232802D01*
X145288000Y-112333720D01*
X145133463Y-112974948D01*
X144840065Y-113620243D01*
X144429936Y-114198420D01*
X143917880Y-114688607D01*
X143322360Y-115073129D01*
X142664882Y-115338100D01*
X142127724Y-115443000D01*
X60863766Y-115443000D01*
X60199813Y-115248219D01*
X59565379Y-114921464D01*
X59004175Y-114480633D01*
X58536459Y-113941637D01*
X58179099Y-113323919D01*
X57944997Y-112649775D01*
X57912000Y-112422198D01*
X57912000Y-109447738D01*
X58730000Y-109447738D01*
X58730000Y-110262262D01*
X58888906Y-111061135D01*
X59200611Y-111813657D01*
X59653136Y-112490909D01*
X60229091Y-113066864D01*
X60906343Y-113519389D01*
X61658865Y-113831094D01*
X62457738Y-113990000D01*
X63272262Y-113990000D01*
X64071135Y-113831094D01*
X64823657Y-113519389D01*
X65500909Y-113066864D01*
X66076864Y-112490909D01*
X66529389Y-111813657D01*
X66841094Y-111061135D01*
X67000000Y-110262262D01*
X67000000Y-109447738D01*
X66841094Y-108648865D01*
X66529389Y-107896343D01*
X66076864Y-107219091D01*
X65500909Y-106643136D01*
X64823657Y-106190611D01*
X64071135Y-105878906D01*
X63272262Y-105720000D01*
X62457738Y-105720000D01*
X61658865Y-105878906D01*
X60906343Y-106190611D01*
X60229091Y-106643136D01*
X59653136Y-107219091D01*
X59200611Y-107896343D01*
X58888906Y-108648865D01*
X58730000Y-109447738D01*
X57912000Y-109447738D01*
X57912000Y-75463061D01*
X58655000Y-75463061D01*
X58655000Y-75666939D01*
X58694774Y-75866898D01*
X58772795Y-76055256D01*
X58886063Y-76224774D01*
X58930000Y-76268711D01*
X58930001Y-99657667D01*
X58926324Y-99695000D01*
X58940998Y-99843985D01*
X58984454Y-99987246D01*
X59055026Y-100119276D01*
X59116014Y-100193589D01*
X59150000Y-100235001D01*
X59178998Y-100258799D01*
X70011202Y-111091004D01*
X70035000Y-111120002D01*
X70063998Y-111143800D01*
X70150724Y-111214975D01*
X70282754Y-111285547D01*
X70426015Y-111329004D01*
X70537668Y-111340001D01*
X70537677Y-111340001D01*
X70575000Y-111343677D01*
X70612323Y-111340001D01*
X83237676Y-111340001D01*
X83275001Y-111343677D01*
X83312326Y-111340001D01*
X126237677Y-111340001D01*
X126274999Y-111343677D01*
X126312321Y-111340001D01*
X126312332Y-111340001D01*
X126423985Y-111329004D01*
X126567246Y-111285547D01*
X126699275Y-111214975D01*
X126815000Y-111120002D01*
X126838803Y-111090998D01*
X127847063Y-110082738D01*
X136200000Y-110082738D01*
X136200000Y-110897262D01*
X136358906Y-111696135D01*
X136670611Y-112448657D01*
X137123136Y-113125909D01*
X137699091Y-113701864D01*
X138376343Y-114154389D01*
X139128865Y-114466094D01*
X139927738Y-114625000D01*
X140742262Y-114625000D01*
X141541135Y-114466094D01*
X142293657Y-114154389D01*
X142970909Y-113701864D01*
X143546864Y-113125909D01*
X143999389Y-112448657D01*
X144311094Y-111696135D01*
X144470000Y-110897262D01*
X144470000Y-110082738D01*
X144311094Y-109283865D01*
X143999389Y-108531343D01*
X143546864Y-107854091D01*
X142970909Y-107278136D01*
X142293657Y-106825611D01*
X141541135Y-106513906D01*
X140742262Y-106355000D01*
X139927738Y-106355000D01*
X139128865Y-106513906D01*
X138376343Y-106825611D01*
X137699091Y-107278136D01*
X137123136Y-107854091D01*
X136670611Y-108531343D01*
X136358906Y-109283865D01*
X136200000Y-110082738D01*
X127847063Y-110082738D01*
X134496004Y-103433798D01*
X134525001Y-103410001D01*
X134569308Y-103356013D01*
X134619974Y-103294277D01*
X134690546Y-103162247D01*
X134693592Y-103152205D01*
X134734003Y-103018986D01*
X134745000Y-102907333D01*
X134745000Y-102907323D01*
X134748676Y-102870000D01*
X134745000Y-102832678D01*
X134745000Y-102649872D01*
X135560000Y-102649872D01*
X135560000Y-103090128D01*
X135645890Y-103521925D01*
X135814369Y-103928669D01*
X136058962Y-104294729D01*
X136370271Y-104606038D01*
X136736331Y-104850631D01*
X137143075Y-105019110D01*
X137574872Y-105105000D01*
X138015128Y-105105000D01*
X138446925Y-105019110D01*
X138853669Y-104850631D01*
X139219729Y-104606038D01*
X139531038Y-104294729D01*
X139775631Y-103928669D01*
X139944110Y-103521925D01*
X140030000Y-103090128D01*
X140030000Y-102649872D01*
X139944110Y-102218075D01*
X139775631Y-101811331D01*
X139531038Y-101445271D01*
X139219729Y-101133962D01*
X138853669Y-100889369D01*
X138446925Y-100720890D01*
X138015128Y-100635000D01*
X137574872Y-100635000D01*
X137143075Y-100720890D01*
X136736331Y-100889369D01*
X136370271Y-101133962D01*
X136058962Y-101445271D01*
X135814369Y-101811331D01*
X135645890Y-102218075D01*
X135560000Y-102649872D01*
X134745000Y-102649872D01*
X134745000Y-99097322D01*
X134748676Y-99059999D01*
X134745000Y-99022676D01*
X134745000Y-99022667D01*
X134734003Y-98911014D01*
X134690546Y-98767753D01*
X134619974Y-98635724D01*
X134606811Y-98619685D01*
X134548799Y-98548996D01*
X134548795Y-98548992D01*
X134525001Y-98519999D01*
X134496008Y-98496205D01*
X132801167Y-96801365D01*
X132830000Y-96656411D01*
X132830000Y-96383589D01*
X132776775Y-96116011D01*
X132672371Y-95863957D01*
X132520799Y-95637114D01*
X132327886Y-95444201D01*
X132101043Y-95292629D01*
X131998127Y-95250000D01*
X132101043Y-95207371D01*
X132327886Y-95055799D01*
X132520799Y-94862886D01*
X132672371Y-94636043D01*
X132776775Y-94383989D01*
X132830000Y-94116411D01*
X132830000Y-93843589D01*
X132776775Y-93576011D01*
X132672371Y-93323957D01*
X132520799Y-93097114D01*
X132327886Y-92904201D01*
X132101043Y-92752629D01*
X131848989Y-92648225D01*
X131581411Y-92595000D01*
X131308589Y-92595000D01*
X131041011Y-92648225D01*
X130788957Y-92752629D01*
X130562114Y-92904201D01*
X130369201Y-93097114D01*
X130217629Y-93323957D01*
X130113225Y-93576011D01*
X130060000Y-93843589D01*
X130060000Y-94116411D01*
X130113225Y-94383989D01*
X130217629Y-94636043D01*
X130369201Y-94862886D01*
X130562114Y-95055799D01*
X130788957Y-95207371D01*
X130891873Y-95250000D01*
X130788957Y-95292629D01*
X130562114Y-95444201D01*
X130369201Y-95637114D01*
X130368285Y-95638484D01*
X130261167Y-95531366D01*
X130290000Y-95386411D01*
X130290000Y-95113589D01*
X130236775Y-94846011D01*
X130132371Y-94593957D01*
X129980799Y-94367114D01*
X129787886Y-94174201D01*
X129561043Y-94022629D01*
X129458127Y-93980000D01*
X129561043Y-93937371D01*
X129787886Y-93785799D01*
X129980799Y-93592886D01*
X130132371Y-93366043D01*
X130236775Y-93113989D01*
X130290000Y-92846411D01*
X130290000Y-92573589D01*
X130236775Y-92306011D01*
X130132371Y-92053957D01*
X129980799Y-91827114D01*
X129787886Y-91634201D01*
X129561043Y-91482629D01*
X129308989Y-91378225D01*
X129041411Y-91325000D01*
X128768589Y-91325000D01*
X128501011Y-91378225D01*
X128248957Y-91482629D01*
X128022114Y-91634201D01*
X127829201Y-91827114D01*
X127677629Y-92053957D01*
X127573225Y-92306011D01*
X127520000Y-92573589D01*
X127520000Y-92846411D01*
X127573225Y-93113989D01*
X127677629Y-93366043D01*
X127829201Y-93592886D01*
X128022114Y-93785799D01*
X128248957Y-93937371D01*
X128351873Y-93980000D01*
X128248957Y-94022629D01*
X128022114Y-94174201D01*
X127829201Y-94367114D01*
X127677629Y-94593957D01*
X127573225Y-94846011D01*
X127520000Y-95113589D01*
X127520000Y-95386411D01*
X127573225Y-95653989D01*
X127677629Y-95906043D01*
X127829201Y-96132886D01*
X128022114Y-96325799D01*
X128248957Y-96477371D01*
X128351873Y-96520000D01*
X128248957Y-96562629D01*
X128022114Y-96714201D01*
X127829201Y-96907114D01*
X127747091Y-97030000D01*
X127672323Y-97030000D01*
X127635000Y-97026324D01*
X127597677Y-97030000D01*
X127597667Y-97030000D01*
X127486014Y-97040997D01*
X127345849Y-97083515D01*
X127342753Y-97084454D01*
X127210723Y-97155026D01*
X127165265Y-97192333D01*
X127094999Y-97249999D01*
X127071201Y-97278997D01*
X122240199Y-102110000D01*
X101914802Y-102110000D01*
X87332863Y-87528061D01*
X91675000Y-87528061D01*
X91675000Y-87731939D01*
X91714774Y-87931898D01*
X91792795Y-88120256D01*
X91906063Y-88289774D01*
X92050226Y-88433937D01*
X92219744Y-88547205D01*
X92408102Y-88625226D01*
X92608061Y-88665000D01*
X92670199Y-88665000D01*
X95760001Y-91754803D01*
X95760001Y-92006288D01*
X95716063Y-92050226D01*
X95602795Y-92219744D01*
X95524774Y-92408102D01*
X95485000Y-92608061D01*
X95485000Y-92811939D01*
X95524774Y-93011898D01*
X95602795Y-93200256D01*
X95716063Y-93369774D01*
X95860226Y-93513937D01*
X96029744Y-93627205D01*
X96218102Y-93705226D01*
X96418061Y-93745000D01*
X96621939Y-93745000D01*
X96821898Y-93705226D01*
X97010256Y-93627205D01*
X97179774Y-93513937D01*
X97323937Y-93369774D01*
X97437205Y-93200256D01*
X97515226Y-93011898D01*
X97555000Y-92811939D01*
X97555000Y-92608061D01*
X97515226Y-92408102D01*
X97437205Y-92219744D01*
X97323937Y-92050226D01*
X97280000Y-92006289D01*
X97280000Y-91477325D01*
X97283676Y-91440000D01*
X97280000Y-91402675D01*
X97280000Y-91402667D01*
X97269003Y-91291014D01*
X97225546Y-91147753D01*
X97154974Y-91015724D01*
X97060001Y-90899999D01*
X97031003Y-90876201D01*
X93745000Y-87590199D01*
X93745000Y-87528061D01*
X93705226Y-87328102D01*
X93627205Y-87139744D01*
X93513937Y-86970226D01*
X93369774Y-86826063D01*
X93200256Y-86712795D01*
X93011898Y-86634774D01*
X92811939Y-86595000D01*
X92608061Y-86595000D01*
X92408102Y-86634774D01*
X92219744Y-86712795D01*
X92050226Y-86826063D01*
X91906063Y-86970226D01*
X91792795Y-87139744D01*
X91714774Y-87328102D01*
X91675000Y-87528061D01*
X87332863Y-87528061D01*
X81208804Y-81404003D01*
X81185001Y-81374999D01*
X81069276Y-81280026D01*
X80937247Y-81209454D01*
X80793986Y-81165997D01*
X80682333Y-81155000D01*
X80682322Y-81155000D01*
X80645000Y-81151324D01*
X80607678Y-81155000D01*
X80078711Y-81155000D01*
X80034774Y-81111063D01*
X79865256Y-80997795D01*
X79676898Y-80919774D01*
X79476939Y-80880000D01*
X79273061Y-80880000D01*
X79073102Y-80919774D01*
X78884744Y-80997795D01*
X78715226Y-81111063D01*
X78671289Y-81155000D01*
X69227968Y-81155000D01*
X69292933Y-80998159D01*
X69350001Y-80711261D01*
X69350001Y-80418741D01*
X69292933Y-80131843D01*
X69221754Y-79960002D01*
X86805507Y-79960002D01*
X91190153Y-84344649D01*
X91190153Y-84406786D01*
X91229927Y-84606745D01*
X91307948Y-84795103D01*
X91421216Y-84964621D01*
X91565379Y-85108784D01*
X91734897Y-85222052D01*
X91923255Y-85300073D01*
X92123214Y-85339847D01*
X92185352Y-85339847D01*
X96753235Y-89907731D01*
X96753235Y-89969868D01*
X96793009Y-90169827D01*
X96871030Y-90358185D01*
X96984298Y-90527703D01*
X97128461Y-90671866D01*
X97297979Y-90785134D01*
X97486337Y-90863155D01*
X97686296Y-90902929D01*
X97890174Y-90902929D01*
X98090133Y-90863155D01*
X98278491Y-90785134D01*
X98448009Y-90671866D01*
X98592172Y-90527703D01*
X98705440Y-90358185D01*
X98783461Y-90169827D01*
X98823235Y-89969868D01*
X98823235Y-89815002D01*
X102874674Y-89815002D01*
X102911996Y-89818678D01*
X102949318Y-89815002D01*
X102949329Y-89815002D01*
X103060982Y-89804005D01*
X103204243Y-89760548D01*
X103336272Y-89689976D01*
X103451997Y-89595003D01*
X103475800Y-89565999D01*
X104650000Y-88391799D01*
X104650001Y-89855197D01*
X99819003Y-94686196D01*
X99789999Y-94709999D01*
X99736206Y-94775546D01*
X99695026Y-94825724D01*
X99624455Y-94957753D01*
X99624454Y-94957754D01*
X99580997Y-95101015D01*
X99570000Y-95212668D01*
X99570000Y-95212678D01*
X99566324Y-95250000D01*
X99570000Y-95287323D01*
X99570001Y-96451288D01*
X99448563Y-96572726D01*
X99335295Y-96742244D01*
X99257274Y-96930602D01*
X99217500Y-97130561D01*
X99217500Y-97334439D01*
X99257274Y-97534398D01*
X99335295Y-97722756D01*
X99448563Y-97892274D01*
X99592726Y-98036437D01*
X99762244Y-98149705D01*
X99950602Y-98227726D01*
X100150561Y-98267500D01*
X100354439Y-98267500D01*
X100554398Y-98227726D01*
X100742756Y-98149705D01*
X100912274Y-98036437D01*
X101056437Y-97892274D01*
X101169705Y-97722756D01*
X101247726Y-97534398D01*
X101287500Y-97334439D01*
X101287500Y-97130561D01*
X101247726Y-96930602D01*
X101169705Y-96742244D01*
X101090000Y-96622957D01*
X101090000Y-95564801D01*
X105434929Y-91219872D01*
X135560000Y-91219872D01*
X135560000Y-91660128D01*
X135645890Y-92091925D01*
X135814369Y-92498669D01*
X136058962Y-92864729D01*
X136370271Y-93176038D01*
X136736331Y-93420631D01*
X137143075Y-93589110D01*
X137574872Y-93675000D01*
X138015128Y-93675000D01*
X138446925Y-93589110D01*
X138853669Y-93420631D01*
X139219729Y-93176038D01*
X139531038Y-92864729D01*
X139775631Y-92498669D01*
X139944110Y-92091925D01*
X140030000Y-91660128D01*
X140030000Y-91219872D01*
X139944110Y-90788075D01*
X139775631Y-90381331D01*
X139531038Y-90015271D01*
X139219729Y-89703962D01*
X138853669Y-89459369D01*
X138446925Y-89290890D01*
X138015128Y-89205000D01*
X137574872Y-89205000D01*
X137143075Y-89290890D01*
X136736331Y-89459369D01*
X136370271Y-89703962D01*
X136058962Y-90015271D01*
X135814369Y-90381331D01*
X135645890Y-90788075D01*
X135560000Y-91219872D01*
X105434929Y-91219872D01*
X105921003Y-90733799D01*
X105950001Y-90710001D01*
X105981298Y-90671866D01*
X106044974Y-90594277D01*
X106115546Y-90462247D01*
X106120846Y-90444774D01*
X106159003Y-90318986D01*
X106170000Y-90207333D01*
X106170000Y-90207323D01*
X106173676Y-90170000D01*
X106170000Y-90132677D01*
X106170000Y-88333711D01*
X106213937Y-88289774D01*
X106327205Y-88120256D01*
X106405226Y-87931898D01*
X106445000Y-87731939D01*
X106445000Y-87528061D01*
X106405226Y-87328102D01*
X106327205Y-87139744D01*
X106213937Y-86970226D01*
X106142755Y-86899044D01*
X114271789Y-78770011D01*
X124699070Y-78770009D01*
X124736402Y-78773686D01*
X124773735Y-78770009D01*
X124885388Y-78759012D01*
X124928844Y-78745830D01*
X125028648Y-78715556D01*
X125160678Y-78644984D01*
X125247404Y-78573809D01*
X125247405Y-78573808D01*
X125276403Y-78550010D01*
X125300201Y-78521012D01*
X133481015Y-70340199D01*
X133510012Y-70316402D01*
X133604985Y-70200677D01*
X133675557Y-70068648D01*
X133719014Y-69925387D01*
X133730011Y-69813734D01*
X133730011Y-69813733D01*
X133733688Y-69776401D01*
X133730011Y-69739068D01*
X133730011Y-69629872D01*
X135560000Y-69629872D01*
X135560000Y-70070128D01*
X135645890Y-70501925D01*
X135814369Y-70908669D01*
X136058962Y-71274729D01*
X136370271Y-71586038D01*
X136736331Y-71830631D01*
X137143075Y-71999110D01*
X137574872Y-72085000D01*
X138015128Y-72085000D01*
X138446925Y-71999110D01*
X138853669Y-71830631D01*
X139219729Y-71586038D01*
X139531038Y-71274729D01*
X139775631Y-70908669D01*
X139944110Y-70501925D01*
X140030000Y-70070128D01*
X140030000Y-69629872D01*
X139944110Y-69198075D01*
X139775631Y-68791331D01*
X139531038Y-68425271D01*
X139219729Y-68113962D01*
X138853669Y-67869369D01*
X138446925Y-67700890D01*
X138015128Y-67615000D01*
X137574872Y-67615000D01*
X137143075Y-67700890D01*
X136736331Y-67869369D01*
X136370271Y-68113962D01*
X136058962Y-68425271D01*
X135814369Y-68791331D01*
X135645890Y-69198075D01*
X135560000Y-69629872D01*
X133730011Y-69629872D01*
X133730011Y-63471342D01*
X133733688Y-63434009D01*
X133719014Y-63285023D01*
X133675557Y-63141762D01*
X133604985Y-63009733D01*
X133544475Y-62936001D01*
X133510012Y-62894008D01*
X133481014Y-62870210D01*
X132524805Y-61914001D01*
X132501002Y-61884998D01*
X132488746Y-61874939D01*
X132520799Y-61842886D01*
X132672371Y-61616043D01*
X132776775Y-61363989D01*
X132830000Y-61096411D01*
X132830000Y-60823589D01*
X132776775Y-60556011D01*
X132672371Y-60303957D01*
X132520799Y-60077114D01*
X132327886Y-59884201D01*
X132101043Y-59732629D01*
X131848989Y-59628225D01*
X131581411Y-59575000D01*
X131308589Y-59575000D01*
X131041011Y-59628225D01*
X130788957Y-59732629D01*
X130562114Y-59884201D01*
X130369201Y-60077114D01*
X130217629Y-60303957D01*
X130113225Y-60556011D01*
X130060000Y-60823589D01*
X130060000Y-61096411D01*
X130113225Y-61363989D01*
X130217629Y-61616043D01*
X130369201Y-61842886D01*
X130401254Y-61874939D01*
X130388998Y-61884998D01*
X130365200Y-61913996D01*
X130272680Y-62006516D01*
X130236775Y-61826011D01*
X130132371Y-61573957D01*
X129980799Y-61347114D01*
X129787886Y-61154201D01*
X129561043Y-61002629D01*
X129458127Y-60960000D01*
X129561043Y-60917371D01*
X129787886Y-60765799D01*
X129980799Y-60572886D01*
X130132371Y-60346043D01*
X130236775Y-60093989D01*
X130290000Y-59826411D01*
X130290000Y-59553589D01*
X130236775Y-59286011D01*
X130132371Y-59033957D01*
X129980799Y-58807114D01*
X129787886Y-58614201D01*
X129561043Y-58462629D01*
X129308989Y-58358225D01*
X129041411Y-58305000D01*
X128768589Y-58305000D01*
X128501011Y-58358225D01*
X128248957Y-58462629D01*
X128022114Y-58614201D01*
X127829201Y-58807114D01*
X127677629Y-59033957D01*
X127573225Y-59286011D01*
X127520000Y-59553589D01*
X127520000Y-59826411D01*
X127573225Y-60093989D01*
X127677629Y-60346043D01*
X127829201Y-60572886D01*
X128022114Y-60765799D01*
X128248957Y-60917371D01*
X128351873Y-60960000D01*
X128248957Y-61002629D01*
X128022114Y-61154201D01*
X127829201Y-61347114D01*
X127677629Y-61573957D01*
X127573225Y-61826011D01*
X127520000Y-62093589D01*
X127520000Y-62366411D01*
X127573225Y-62633989D01*
X127677629Y-62886043D01*
X127829201Y-63112886D01*
X128022114Y-63305799D01*
X128248957Y-63457371D01*
X128351873Y-63500000D01*
X128248957Y-63542629D01*
X128022114Y-63694201D01*
X127829201Y-63887114D01*
X127677629Y-64113957D01*
X127573225Y-64366011D01*
X127520000Y-64633589D01*
X127520000Y-64906411D01*
X127573225Y-65173989D01*
X127677629Y-65426043D01*
X127829201Y-65652886D01*
X128022114Y-65845799D01*
X128248957Y-65997371D01*
X128351873Y-66040000D01*
X128248957Y-66082629D01*
X128022114Y-66234201D01*
X127829201Y-66427114D01*
X127677629Y-66653957D01*
X127573225Y-66906011D01*
X127520000Y-67173589D01*
X127520000Y-67446411D01*
X127548833Y-67591365D01*
X125576168Y-69564031D01*
X125396898Y-69489774D01*
X125196939Y-69450000D01*
X124993061Y-69450000D01*
X124793102Y-69489774D01*
X124604744Y-69567795D01*
X124435226Y-69681063D01*
X124291063Y-69825226D01*
X124177795Y-69994744D01*
X124099774Y-70183102D01*
X124060000Y-70383061D01*
X124060000Y-70586939D01*
X124099774Y-70786898D01*
X124177795Y-70975256D01*
X124291063Y-71144774D01*
X124435226Y-71288937D01*
X124604744Y-71402205D01*
X124793102Y-71480226D01*
X124993061Y-71520000D01*
X125196939Y-71520000D01*
X125396898Y-71480226D01*
X125585256Y-71402205D01*
X125754774Y-71288937D01*
X125802139Y-71241572D01*
X125878986Y-71234003D01*
X126022247Y-71190546D01*
X126154276Y-71119974D01*
X126270001Y-71025001D01*
X126293804Y-70995997D01*
X128623635Y-68666167D01*
X128768589Y-68695000D01*
X129041411Y-68695000D01*
X129308989Y-68641775D01*
X129561043Y-68537371D01*
X129787886Y-68385799D01*
X129980799Y-68192886D01*
X130058559Y-68076510D01*
X130060000Y-68294250D01*
X130218750Y-68453000D01*
X131318000Y-68453000D01*
X131318000Y-68433000D01*
X131572000Y-68433000D01*
X131572000Y-68453000D01*
X131592000Y-68453000D01*
X131592000Y-68707000D01*
X131572000Y-68707000D01*
X131572000Y-68727000D01*
X131318000Y-68727000D01*
X131318000Y-68707000D01*
X130218750Y-68707000D01*
X130060000Y-68865750D01*
X130056928Y-69330000D01*
X130069188Y-69454482D01*
X130105498Y-69574180D01*
X130164463Y-69684494D01*
X130243815Y-69781185D01*
X130340506Y-69860537D01*
X130450820Y-69919502D01*
X130570518Y-69955812D01*
X130695000Y-69968072D01*
X131069607Y-69965593D01*
X124235200Y-76800001D01*
X109620000Y-76800001D01*
X109620000Y-76733061D01*
X109580226Y-76533102D01*
X109502205Y-76344744D01*
X109388937Y-76175226D01*
X109244774Y-76031063D01*
X109075256Y-75917795D01*
X108886898Y-75839774D01*
X108686939Y-75800000D01*
X108483061Y-75800000D01*
X108283102Y-75839774D01*
X108094744Y-75917795D01*
X107925226Y-76031063D01*
X107881289Y-76075000D01*
X107629802Y-76075000D01*
X102000000Y-70445199D01*
X102000000Y-70383061D01*
X101960226Y-70183102D01*
X101882205Y-69994744D01*
X101768937Y-69825226D01*
X101725000Y-69781289D01*
X101725000Y-65004320D01*
X101728676Y-64966997D01*
X101725000Y-64929674D01*
X101725000Y-64929665D01*
X101714003Y-64818012D01*
X101670546Y-64674751D01*
X101624297Y-64588226D01*
X101599974Y-64542721D01*
X101528799Y-64455995D01*
X101505001Y-64426997D01*
X101476004Y-64403200D01*
X99426806Y-62354003D01*
X99403003Y-62324999D01*
X99287278Y-62230026D01*
X99155249Y-62159454D01*
X99011988Y-62115997D01*
X98900335Y-62105000D01*
X98900324Y-62105000D01*
X98863002Y-62101324D01*
X98825680Y-62105000D01*
X98493711Y-62105000D01*
X98449774Y-62061063D01*
X98280256Y-61947795D01*
X98091898Y-61869774D01*
X97891939Y-61830000D01*
X97688061Y-61830000D01*
X97488102Y-61869774D01*
X97347168Y-61928151D01*
X97329927Y-61910910D01*
X97160409Y-61797642D01*
X96972051Y-61719621D01*
X96772092Y-61679847D01*
X96568214Y-61679847D01*
X96368255Y-61719621D01*
X96179897Y-61797642D01*
X96010379Y-61910910D01*
X95966442Y-61954847D01*
X94820542Y-61954847D01*
X96552328Y-60223061D01*
X105010000Y-60223061D01*
X105010000Y-60426939D01*
X105049774Y-60626898D01*
X105127795Y-60815256D01*
X105241063Y-60984774D01*
X105285001Y-61028712D01*
X105285000Y-69812678D01*
X105281324Y-69850000D01*
X105285000Y-69887322D01*
X105285000Y-69887332D01*
X105295997Y-69998985D01*
X105317129Y-70068648D01*
X105339454Y-70142246D01*
X105410026Y-70274276D01*
X105427483Y-70295547D01*
X105504999Y-70390001D01*
X105534003Y-70413804D01*
X106280000Y-71159802D01*
X106280000Y-71221939D01*
X106319774Y-71421898D01*
X106397795Y-71610256D01*
X106511063Y-71779774D01*
X106655226Y-71923937D01*
X106824744Y-72037205D01*
X107013102Y-72115226D01*
X107213061Y-72155000D01*
X107416939Y-72155000D01*
X107616898Y-72115226D01*
X107805256Y-72037205D01*
X107974774Y-71923937D01*
X108118937Y-71779774D01*
X108232205Y-71610256D01*
X108310226Y-71421898D01*
X108350000Y-71221939D01*
X108350000Y-71018061D01*
X108310226Y-70818102D01*
X108232205Y-70629744D01*
X108118937Y-70460226D01*
X107974774Y-70316063D01*
X107805256Y-70202795D01*
X107616898Y-70124774D01*
X107416939Y-70085000D01*
X107354802Y-70085000D01*
X106805000Y-69535199D01*
X106805000Y-61028711D01*
X106848937Y-60984774D01*
X106962205Y-60815256D01*
X107040226Y-60626898D01*
X107080000Y-60426939D01*
X107080000Y-60223061D01*
X107040226Y-60023102D01*
X106962205Y-59834744D01*
X106848937Y-59665226D01*
X106704774Y-59521063D01*
X106535256Y-59407795D01*
X106346898Y-59329774D01*
X106146939Y-59290000D01*
X105943061Y-59290000D01*
X105743102Y-59329774D01*
X105554744Y-59407795D01*
X105385226Y-59521063D01*
X105241063Y-59665226D01*
X105127795Y-59834744D01*
X105049774Y-60023102D01*
X105010000Y-60223061D01*
X96552328Y-60223061D01*
X97595389Y-59180000D01*
X107881289Y-59180000D01*
X107925226Y-59223937D01*
X108094744Y-59337205D01*
X108283102Y-59415226D01*
X108483061Y-59455000D01*
X108686939Y-59455000D01*
X108886898Y-59415226D01*
X109075256Y-59337205D01*
X109244774Y-59223937D01*
X109388937Y-59079774D01*
X109502205Y-58910256D01*
X109580226Y-58721898D01*
X109620000Y-58521939D01*
X109620000Y-58318061D01*
X109596491Y-58199872D01*
X135560000Y-58199872D01*
X135560000Y-58640128D01*
X135645890Y-59071925D01*
X135814369Y-59478669D01*
X136058962Y-59844729D01*
X136370271Y-60156038D01*
X136736331Y-60400631D01*
X137143075Y-60569110D01*
X137574872Y-60655000D01*
X138015128Y-60655000D01*
X138446925Y-60569110D01*
X138853669Y-60400631D01*
X139219729Y-60156038D01*
X139531038Y-59844729D01*
X139775631Y-59478669D01*
X139944110Y-59071925D01*
X140030000Y-58640128D01*
X140030000Y-58199872D01*
X139944110Y-57768075D01*
X139775631Y-57361331D01*
X139531038Y-56995271D01*
X139219729Y-56683962D01*
X138853669Y-56439369D01*
X138446925Y-56270890D01*
X138015128Y-56185000D01*
X137574872Y-56185000D01*
X137143075Y-56270890D01*
X136736331Y-56439369D01*
X136370271Y-56683962D01*
X136058962Y-56995271D01*
X135814369Y-57361331D01*
X135645890Y-57768075D01*
X135560000Y-58199872D01*
X109596491Y-58199872D01*
X109580226Y-58118102D01*
X109502205Y-57929744D01*
X109388937Y-57760226D01*
X109244774Y-57616063D01*
X109075256Y-57502795D01*
X108886898Y-57424774D01*
X108686939Y-57385000D01*
X108483061Y-57385000D01*
X108283102Y-57424774D01*
X108094744Y-57502795D01*
X107925226Y-57616063D01*
X107881289Y-57660000D01*
X97317910Y-57660000D01*
X97280587Y-57656324D01*
X97243264Y-57660000D01*
X97243254Y-57660000D01*
X97131601Y-57670997D01*
X96988340Y-57714454D01*
X96856310Y-57785026D01*
X96772670Y-57853668D01*
X96740586Y-57879999D01*
X96716788Y-57908997D01*
X84980785Y-69645001D01*
X83155803Y-69645001D01*
X83040256Y-69567795D01*
X82851898Y-69489774D01*
X82651939Y-69450000D01*
X82448061Y-69450000D01*
X82248102Y-69489774D01*
X82059744Y-69567795D01*
X81944197Y-69645001D01*
X69143179Y-69645001D01*
X69018476Y-69458369D01*
X68811633Y-69251526D01*
X68637241Y-69135001D01*
X68811633Y-69018476D01*
X69018476Y-68811633D01*
X69180991Y-68568412D01*
X69292933Y-68298159D01*
X69350001Y-68011261D01*
X69350001Y-67718741D01*
X69292933Y-67431843D01*
X69180991Y-67161590D01*
X69018476Y-66918369D01*
X68811633Y-66711526D01*
X68568412Y-66549011D01*
X68531910Y-66533891D01*
X69293301Y-65772501D01*
X76993179Y-65772501D01*
X77030501Y-65776177D01*
X77067823Y-65772501D01*
X77067834Y-65772501D01*
X77179487Y-65761504D01*
X77322748Y-65718047D01*
X77454777Y-65647475D01*
X77570502Y-65552502D01*
X77594305Y-65523498D01*
X81791004Y-61326800D01*
X81820001Y-61303003D01*
X81869897Y-61242205D01*
X81914974Y-61187279D01*
X81985546Y-61055249D01*
X82006924Y-60984774D01*
X82029003Y-60911988D01*
X82040000Y-60800335D01*
X82040000Y-60800326D01*
X82043676Y-60763003D01*
X82040000Y-60725680D01*
X82040000Y-57218711D01*
X82083937Y-57174774D01*
X82197205Y-57005256D01*
X82275226Y-56816898D01*
X82315000Y-56616939D01*
X82315000Y-56413061D01*
X82275226Y-56213102D01*
X82197205Y-56024744D01*
X82083937Y-55855226D01*
X81939774Y-55711063D01*
X81770256Y-55597795D01*
X81581898Y-55519774D01*
X81381939Y-55480000D01*
X81178061Y-55480000D01*
X80978102Y-55519774D01*
X80789744Y-55597795D01*
X80620226Y-55711063D01*
X80476063Y-55855226D01*
X80362795Y-56024744D01*
X80284774Y-56213102D01*
X80245000Y-56413061D01*
X80245000Y-56616939D01*
X80284774Y-56816898D01*
X80362795Y-57005256D01*
X80476063Y-57174774D01*
X80520001Y-57218712D01*
X80520000Y-60448200D01*
X78835956Y-62132245D01*
X78764774Y-62061063D01*
X78595256Y-61947795D01*
X78406898Y-61869774D01*
X78206939Y-61830000D01*
X78003061Y-61830000D01*
X77803102Y-61869774D01*
X77614744Y-61947795D01*
X77445226Y-62061063D01*
X77401289Y-62105000D01*
X73093711Y-62105000D01*
X73049774Y-62061063D01*
X72880256Y-61947795D01*
X72691898Y-61869774D01*
X72491939Y-61830000D01*
X72288061Y-61830000D01*
X72088102Y-61869774D01*
X71899744Y-61947795D01*
X71730226Y-62061063D01*
X71586063Y-62205226D01*
X71472795Y-62374744D01*
X71394774Y-62563102D01*
X71355000Y-62763061D01*
X71355000Y-62966939D01*
X71394774Y-63166898D01*
X71472795Y-63355256D01*
X71586063Y-63524774D01*
X71730226Y-63668937D01*
X71899744Y-63782205D01*
X72088102Y-63860226D01*
X72288061Y-63900000D01*
X72491939Y-63900000D01*
X72691898Y-63860226D01*
X72880256Y-63782205D01*
X73049774Y-63668937D01*
X73093711Y-63625000D01*
X77343201Y-63625000D01*
X76715700Y-64252501D01*
X69015821Y-64252501D01*
X68978498Y-64248825D01*
X68941175Y-64252501D01*
X68941166Y-64252501D01*
X68829513Y-64263498D01*
X68686252Y-64306955D01*
X68554223Y-64377527D01*
X68438498Y-64472500D01*
X68414700Y-64501498D01*
X66465788Y-66450411D01*
X66419181Y-66425499D01*
X66299483Y-66389189D01*
X66175001Y-66376929D01*
X64475001Y-66376929D01*
X64350519Y-66389189D01*
X64230821Y-66425499D01*
X64120507Y-66484464D01*
X64023816Y-66563816D01*
X63944464Y-66660507D01*
X63885499Y-66770821D01*
X63849189Y-66890519D01*
X63836929Y-67015001D01*
X63836929Y-68715001D01*
X63849189Y-68839483D01*
X63885499Y-68959181D01*
X63944464Y-69069495D01*
X64023816Y-69166186D01*
X64120507Y-69245538D01*
X64230821Y-69304503D01*
X64303381Y-69326514D01*
X64171526Y-69458369D01*
X64009011Y-69701590D01*
X63897069Y-69971843D01*
X63840001Y-70258741D01*
X63840001Y-70551261D01*
X63883792Y-70771409D01*
X63639003Y-71016198D01*
X63609999Y-71040001D01*
X63554871Y-71107176D01*
X63515026Y-71155726D01*
X63473186Y-71234003D01*
X63444454Y-71287756D01*
X63400997Y-71431017D01*
X63390000Y-71542670D01*
X63390000Y-71542680D01*
X63386324Y-71580002D01*
X63390000Y-71617325D01*
X63390001Y-76011670D01*
X63386324Y-76049002D01*
X63390001Y-76086335D01*
X63400998Y-76197988D01*
X63414180Y-76241444D01*
X63444454Y-76341248D01*
X63515026Y-76473278D01*
X63586201Y-76560004D01*
X63610000Y-76589003D01*
X63638997Y-76612800D01*
X64144705Y-77118510D01*
X64009011Y-77321590D01*
X63897069Y-77591843D01*
X63840001Y-77878741D01*
X63840001Y-78171261D01*
X63897069Y-78458159D01*
X64009011Y-78728412D01*
X64171526Y-78971633D01*
X64378369Y-79178476D01*
X64552761Y-79295001D01*
X64378369Y-79411526D01*
X64171526Y-79618369D01*
X64009011Y-79861590D01*
X63897069Y-80131843D01*
X63840001Y-80418741D01*
X63840001Y-80711261D01*
X63897069Y-80998159D01*
X64009011Y-81268412D01*
X64171526Y-81511633D01*
X64378369Y-81718476D01*
X64552761Y-81835001D01*
X64378369Y-81951526D01*
X64171526Y-82158369D01*
X64009011Y-82401590D01*
X63897069Y-82671843D01*
X63840001Y-82958741D01*
X63840001Y-83251261D01*
X63897069Y-83538159D01*
X64009011Y-83808412D01*
X64171526Y-84051633D01*
X64378369Y-84258476D01*
X64552761Y-84375001D01*
X64378369Y-84491526D01*
X64171526Y-84698369D01*
X64009011Y-84941590D01*
X63897069Y-85211843D01*
X63840001Y-85498741D01*
X63840001Y-85791261D01*
X63897069Y-86078159D01*
X64009011Y-86348412D01*
X64171526Y-86591633D01*
X64378369Y-86798476D01*
X64560535Y-86920196D01*
X64443646Y-86989823D01*
X64227413Y-87184732D01*
X64053360Y-87418081D01*
X63928176Y-87680902D01*
X63883525Y-87828111D01*
X64004846Y-88058001D01*
X65198001Y-88058001D01*
X65198001Y-88038001D01*
X65452001Y-88038001D01*
X65452001Y-88058001D01*
X67738001Y-88058001D01*
X67738001Y-88038001D01*
X67992001Y-88038001D01*
X67992001Y-88058001D01*
X69185156Y-88058001D01*
X69306477Y-87828111D01*
X69261826Y-87680902D01*
X69136642Y-87418081D01*
X68962589Y-87184732D01*
X68746356Y-86989823D01*
X68629467Y-86920196D01*
X68811633Y-86798476D01*
X69018476Y-86591633D01*
X69180991Y-86348412D01*
X69292933Y-86078159D01*
X69350001Y-85791261D01*
X69350001Y-85498741D01*
X69292933Y-85211843D01*
X69180991Y-84941590D01*
X69018476Y-84698369D01*
X68811633Y-84491526D01*
X68637241Y-84375001D01*
X68811633Y-84258476D01*
X69018476Y-84051633D01*
X69143179Y-83865001D01*
X79810788Y-83865001D01*
X101203967Y-105258181D01*
X101250598Y-105315001D01*
X101366323Y-105409974D01*
X101498352Y-105480546D01*
X101641613Y-105524003D01*
X101753266Y-105535000D01*
X126093324Y-105535000D01*
X126204977Y-105524003D01*
X126348238Y-105480546D01*
X126480267Y-105409974D01*
X126595992Y-105315001D01*
X126642627Y-105258176D01*
X130173802Y-101727002D01*
X130218748Y-101727002D01*
X130060000Y-101885750D01*
X130056928Y-102350000D01*
X130069188Y-102474482D01*
X130105498Y-102594180D01*
X130164463Y-102704494D01*
X130243815Y-102801185D01*
X130340506Y-102880537D01*
X130450820Y-102939502D01*
X130570518Y-102975812D01*
X130695000Y-102988072D01*
X131159250Y-102985000D01*
X131318000Y-102826250D01*
X131318000Y-101727000D01*
X131572000Y-101727000D01*
X131572000Y-102826250D01*
X131730750Y-102985000D01*
X132195000Y-102988072D01*
X132319482Y-102975812D01*
X132439180Y-102939502D01*
X132549494Y-102880537D01*
X132646185Y-102801185D01*
X132725537Y-102704494D01*
X132784502Y-102594180D01*
X132820812Y-102474482D01*
X132833072Y-102350000D01*
X132830000Y-101885750D01*
X132671250Y-101727000D01*
X131572000Y-101727000D01*
X131318000Y-101727000D01*
X131298000Y-101727000D01*
X131298000Y-101473000D01*
X131318000Y-101473000D01*
X131318000Y-101453000D01*
X131572000Y-101453000D01*
X131572000Y-101473000D01*
X132671250Y-101473000D01*
X132830000Y-101314250D01*
X132833072Y-100850000D01*
X132820812Y-100725518D01*
X132784502Y-100605820D01*
X132725537Y-100495506D01*
X132646185Y-100398815D01*
X132549494Y-100319463D01*
X132439180Y-100260498D01*
X132319482Y-100224188D01*
X132211517Y-100213555D01*
X132327886Y-100135799D01*
X132520799Y-99942886D01*
X132672371Y-99716043D01*
X132776775Y-99463989D01*
X132830000Y-99196411D01*
X132830000Y-98979803D01*
X133225001Y-99374804D01*
X133225000Y-102555198D01*
X125960198Y-109820001D01*
X83945000Y-109820001D01*
X83945000Y-102938711D01*
X83988937Y-102894774D01*
X84102205Y-102725256D01*
X84180226Y-102536898D01*
X84220000Y-102336939D01*
X84220000Y-102133061D01*
X84180226Y-101933102D01*
X84102205Y-101744744D01*
X83988937Y-101575226D01*
X83844774Y-101431063D01*
X83675256Y-101317795D01*
X83486898Y-101239774D01*
X83286939Y-101200000D01*
X83220000Y-101200000D01*
X83220000Y-94384801D01*
X85129802Y-92475000D01*
X85191939Y-92475000D01*
X85391898Y-92435226D01*
X85580256Y-92357205D01*
X85749774Y-92243937D01*
X85893937Y-92099774D01*
X86007205Y-91930256D01*
X86085226Y-91741898D01*
X86125000Y-91541939D01*
X86125000Y-91338061D01*
X86085226Y-91138102D01*
X86007205Y-90949744D01*
X85893937Y-90780226D01*
X85749774Y-90636063D01*
X85580256Y-90522795D01*
X85391898Y-90444774D01*
X85191939Y-90405000D01*
X84988061Y-90405000D01*
X84788102Y-90444774D01*
X84599744Y-90522795D01*
X84430226Y-90636063D01*
X84286063Y-90780226D01*
X84172795Y-90949744D01*
X84094774Y-91138102D01*
X84055000Y-91338061D01*
X84055000Y-91400198D01*
X81948998Y-93506201D01*
X81920000Y-93529999D01*
X81896202Y-93558997D01*
X81896201Y-93558998D01*
X81825026Y-93645724D01*
X81754454Y-93777754D01*
X81710998Y-93921015D01*
X81696324Y-94070000D01*
X81700001Y-94107332D01*
X81700000Y-105341289D01*
X81656063Y-105385226D01*
X81542795Y-105554744D01*
X81464774Y-105743102D01*
X81425000Y-105943061D01*
X81425000Y-106146939D01*
X81464774Y-106346898D01*
X81542795Y-106535256D01*
X81656063Y-106704774D01*
X81800226Y-106848937D01*
X81969744Y-106962205D01*
X82158102Y-107040226D01*
X82358061Y-107080000D01*
X82425001Y-107080000D01*
X82425001Y-109820001D01*
X79140000Y-109820001D01*
X79140000Y-109753061D01*
X79100226Y-109553102D01*
X79022205Y-109364744D01*
X78908937Y-109195226D01*
X78764774Y-109051063D01*
X78595256Y-108937795D01*
X78406898Y-108859774D01*
X78206939Y-108820000D01*
X78003061Y-108820000D01*
X77803102Y-108859774D01*
X77614744Y-108937795D01*
X77445226Y-109051063D01*
X77401289Y-109095000D01*
X73093711Y-109095000D01*
X73049774Y-109051063D01*
X72880256Y-108937795D01*
X72691898Y-108859774D01*
X72491939Y-108820000D01*
X72288061Y-108820000D01*
X72088102Y-108859774D01*
X71899744Y-108937795D01*
X71730226Y-109051063D01*
X71586063Y-109195226D01*
X71472795Y-109364744D01*
X71394774Y-109553102D01*
X71355000Y-109753061D01*
X71355000Y-109820001D01*
X70889803Y-109820001D01*
X67012863Y-105943061D01*
X71355000Y-105943061D01*
X71355000Y-106146939D01*
X71394774Y-106346898D01*
X71472795Y-106535256D01*
X71586063Y-106704774D01*
X71730226Y-106848937D01*
X71899744Y-106962205D01*
X72088102Y-107040226D01*
X72288061Y-107080000D01*
X72491939Y-107080000D01*
X72691898Y-107040226D01*
X72880256Y-106962205D01*
X73049774Y-106848937D01*
X73093711Y-106805000D01*
X77401289Y-106805000D01*
X77445226Y-106848937D01*
X77614744Y-106962205D01*
X77803102Y-107040226D01*
X78003061Y-107080000D01*
X78206939Y-107080000D01*
X78406898Y-107040226D01*
X78595256Y-106962205D01*
X78764774Y-106848937D01*
X78908937Y-106704774D01*
X79022205Y-106535256D01*
X79100226Y-106346898D01*
X79140000Y-106146939D01*
X79140000Y-105943061D01*
X79100226Y-105743102D01*
X79022205Y-105554744D01*
X78908937Y-105385226D01*
X78764774Y-105241063D01*
X78595256Y-105127795D01*
X78406898Y-105049774D01*
X78206939Y-105010000D01*
X78003061Y-105010000D01*
X77803102Y-105049774D01*
X77614744Y-105127795D01*
X77445226Y-105241063D01*
X77401289Y-105285000D01*
X73093711Y-105285000D01*
X73049774Y-105241063D01*
X72880256Y-105127795D01*
X72691898Y-105049774D01*
X72491939Y-105010000D01*
X72288061Y-105010000D01*
X72088102Y-105049774D01*
X71899744Y-105127795D01*
X71730226Y-105241063D01*
X71586063Y-105385226D01*
X71472795Y-105554744D01*
X71394774Y-105743102D01*
X71355000Y-105943061D01*
X67012863Y-105943061D01*
X65399180Y-104329379D01*
X65429774Y-104308937D01*
X65573937Y-104164774D01*
X65687205Y-103995256D01*
X65765226Y-103806898D01*
X65805000Y-103606939D01*
X65805000Y-103403061D01*
X65765226Y-103203102D01*
X65687205Y-103014744D01*
X65573937Y-102845226D01*
X65429774Y-102701063D01*
X65260256Y-102587795D01*
X65071898Y-102509774D01*
X64871939Y-102470000D01*
X64809802Y-102470000D01*
X63202863Y-100863061D01*
X71355000Y-100863061D01*
X71355000Y-101066939D01*
X71394774Y-101266898D01*
X71472795Y-101455256D01*
X71586063Y-101624774D01*
X71730226Y-101768937D01*
X71899744Y-101882205D01*
X72088102Y-101960226D01*
X72288061Y-102000000D01*
X72491939Y-102000000D01*
X72691898Y-101960226D01*
X72880256Y-101882205D01*
X73049774Y-101768937D01*
X73093711Y-101725000D01*
X77401289Y-101725000D01*
X77445226Y-101768937D01*
X77614744Y-101882205D01*
X77803102Y-101960226D01*
X78003061Y-102000000D01*
X78206939Y-102000000D01*
X78406898Y-101960226D01*
X78595256Y-101882205D01*
X78764774Y-101768937D01*
X78908937Y-101624774D01*
X79022205Y-101455256D01*
X79100226Y-101266898D01*
X79140000Y-101066939D01*
X79140000Y-100863061D01*
X79100226Y-100663102D01*
X79022205Y-100474744D01*
X78908937Y-100305226D01*
X78764774Y-100161063D01*
X78595256Y-100047795D01*
X78406898Y-99969774D01*
X78206939Y-99930000D01*
X78003061Y-99930000D01*
X77803102Y-99969774D01*
X77614744Y-100047795D01*
X77445226Y-100161063D01*
X77401289Y-100205000D01*
X73093711Y-100205000D01*
X73049774Y-100161063D01*
X72880256Y-100047795D01*
X72691898Y-99969774D01*
X72491939Y-99930000D01*
X72288061Y-99930000D01*
X72088102Y-99969774D01*
X71899744Y-100047795D01*
X71730226Y-100161063D01*
X71586063Y-100305226D01*
X71472795Y-100474744D01*
X71394774Y-100663102D01*
X71355000Y-100863061D01*
X63202863Y-100863061D01*
X62265000Y-99925199D01*
X62265000Y-97053061D01*
X71355000Y-97053061D01*
X71355000Y-97256939D01*
X71394774Y-97456898D01*
X71472795Y-97645256D01*
X71586063Y-97814774D01*
X71730226Y-97958937D01*
X71899744Y-98072205D01*
X72088102Y-98150226D01*
X72288061Y-98190000D01*
X72491939Y-98190000D01*
X72691898Y-98150226D01*
X72880256Y-98072205D01*
X73049774Y-97958937D01*
X73093711Y-97915000D01*
X77401289Y-97915000D01*
X77445226Y-97958937D01*
X77614744Y-98072205D01*
X77803102Y-98150226D01*
X78003061Y-98190000D01*
X78206939Y-98190000D01*
X78406898Y-98150226D01*
X78595256Y-98072205D01*
X78764774Y-97958937D01*
X78908937Y-97814774D01*
X79022205Y-97645256D01*
X79100226Y-97456898D01*
X79140000Y-97256939D01*
X79140000Y-97053061D01*
X79100226Y-96853102D01*
X79022205Y-96664744D01*
X78908937Y-96495226D01*
X78764774Y-96351063D01*
X78595256Y-96237795D01*
X78406898Y-96159774D01*
X78206939Y-96120000D01*
X78003061Y-96120000D01*
X77803102Y-96159774D01*
X77614744Y-96237795D01*
X77445226Y-96351063D01*
X77401289Y-96395000D01*
X73093711Y-96395000D01*
X73049774Y-96351063D01*
X72880256Y-96237795D01*
X72691898Y-96159774D01*
X72491939Y-96120000D01*
X72288061Y-96120000D01*
X72088102Y-96159774D01*
X71899744Y-96237795D01*
X71730226Y-96351063D01*
X71586063Y-96495226D01*
X71472795Y-96664744D01*
X71394774Y-96853102D01*
X71355000Y-97053061D01*
X62265000Y-97053061D01*
X62265000Y-91081891D01*
X63883525Y-91081891D01*
X63928176Y-91229100D01*
X64053360Y-91491921D01*
X64227413Y-91725270D01*
X64443646Y-91920179D01*
X64693749Y-92069158D01*
X64968110Y-92166482D01*
X65198001Y-92045815D01*
X65198001Y-90852001D01*
X65452001Y-90852001D01*
X65452001Y-92045815D01*
X65681892Y-92166482D01*
X65956253Y-92069158D01*
X66206356Y-91920179D01*
X66422589Y-91725270D01*
X66595001Y-91494121D01*
X66767413Y-91725270D01*
X66983646Y-91920179D01*
X67233749Y-92069158D01*
X67508110Y-92166482D01*
X67738001Y-92045815D01*
X67738001Y-90852001D01*
X67992001Y-90852001D01*
X67992001Y-92045815D01*
X68221892Y-92166482D01*
X68496253Y-92069158D01*
X68746356Y-91920179D01*
X68962589Y-91725270D01*
X69136642Y-91491921D01*
X69261826Y-91229100D01*
X69306477Y-91081891D01*
X69185156Y-90852001D01*
X67992001Y-90852001D01*
X67738001Y-90852001D01*
X65452001Y-90852001D01*
X65198001Y-90852001D01*
X64004846Y-90852001D01*
X63883525Y-91081891D01*
X62265000Y-91081891D01*
X62265000Y-88541891D01*
X63883525Y-88541891D01*
X63928176Y-88689100D01*
X64053360Y-88951921D01*
X64227413Y-89185270D01*
X64443646Y-89380179D01*
X64569256Y-89455001D01*
X64443646Y-89529823D01*
X64227413Y-89724732D01*
X64053360Y-89958081D01*
X63928176Y-90220902D01*
X63883525Y-90368111D01*
X64004846Y-90598001D01*
X65198001Y-90598001D01*
X65198001Y-88312001D01*
X65452001Y-88312001D01*
X65452001Y-90598001D01*
X67738001Y-90598001D01*
X67738001Y-88312001D01*
X67992001Y-88312001D01*
X67992001Y-90598001D01*
X69185156Y-90598001D01*
X69306477Y-90368111D01*
X69261826Y-90220902D01*
X69136642Y-89958081D01*
X68962589Y-89724732D01*
X68746356Y-89529823D01*
X68620746Y-89455001D01*
X68746356Y-89380179D01*
X68962589Y-89185270D01*
X69136642Y-88951921D01*
X69261826Y-88689100D01*
X69306477Y-88541891D01*
X69185156Y-88312001D01*
X67992001Y-88312001D01*
X67738001Y-88312001D01*
X65452001Y-88312001D01*
X65198001Y-88312001D01*
X64004846Y-88312001D01*
X63883525Y-88541891D01*
X62265000Y-88541891D01*
X62265000Y-73728711D01*
X62308937Y-73684774D01*
X62422205Y-73515256D01*
X62500226Y-73326898D01*
X62540000Y-73126939D01*
X62540000Y-72923061D01*
X62500226Y-72723102D01*
X62422205Y-72534744D01*
X62308937Y-72365226D01*
X62164774Y-72221063D01*
X61995256Y-72107795D01*
X61806898Y-72029774D01*
X61606939Y-71990000D01*
X61403061Y-71990000D01*
X61203102Y-72029774D01*
X61014744Y-72107795D01*
X60845226Y-72221063D01*
X60701063Y-72365226D01*
X60587795Y-72534744D01*
X60509774Y-72723102D01*
X60470000Y-72923061D01*
X60470000Y-73126939D01*
X60509774Y-73326898D01*
X60587795Y-73515256D01*
X60701063Y-73684774D01*
X60745001Y-73728712D01*
X60745000Y-99675199D01*
X60450000Y-99380199D01*
X60450000Y-76268711D01*
X60493937Y-76224774D01*
X60607205Y-76055256D01*
X60685226Y-75866898D01*
X60725000Y-75666939D01*
X60725000Y-75463061D01*
X60685226Y-75263102D01*
X60607205Y-75074744D01*
X60493937Y-74905226D01*
X60349774Y-74761063D01*
X60180256Y-74647795D01*
X59991898Y-74569774D01*
X59791939Y-74530000D01*
X59588061Y-74530000D01*
X59388102Y-74569774D01*
X59199744Y-74647795D01*
X59030226Y-74761063D01*
X58886063Y-74905226D01*
X58772795Y-75074744D01*
X58694774Y-75263102D01*
X58655000Y-75463061D01*
X57912000Y-75463061D01*
X57912000Y-58953061D01*
X71355000Y-58953061D01*
X71355000Y-59156939D01*
X71394774Y-59356898D01*
X71472795Y-59545256D01*
X71586063Y-59714774D01*
X71730226Y-59858937D01*
X71899744Y-59972205D01*
X72088102Y-60050226D01*
X72288061Y-60090000D01*
X72491939Y-60090000D01*
X72691898Y-60050226D01*
X72880256Y-59972205D01*
X73049774Y-59858937D01*
X73093711Y-59815000D01*
X77401289Y-59815000D01*
X77445226Y-59858937D01*
X77614744Y-59972205D01*
X77803102Y-60050226D01*
X78003061Y-60090000D01*
X78206939Y-60090000D01*
X78406898Y-60050226D01*
X78595256Y-59972205D01*
X78764774Y-59858937D01*
X78908937Y-59714774D01*
X79022205Y-59545256D01*
X79100226Y-59356898D01*
X79140000Y-59156939D01*
X79140000Y-58953061D01*
X79100226Y-58753102D01*
X79022205Y-58564744D01*
X78908937Y-58395226D01*
X78764774Y-58251063D01*
X78595256Y-58137795D01*
X78406898Y-58059774D01*
X78206939Y-58020000D01*
X78003061Y-58020000D01*
X77803102Y-58059774D01*
X77614744Y-58137795D01*
X77445226Y-58251063D01*
X77401289Y-58295000D01*
X73093711Y-58295000D01*
X73049774Y-58251063D01*
X72880256Y-58137795D01*
X72691898Y-58059774D01*
X72491939Y-58020000D01*
X72288061Y-58020000D01*
X72088102Y-58059774D01*
X71899744Y-58137795D01*
X71730226Y-58251063D01*
X71586063Y-58395226D01*
X71472795Y-58564744D01*
X71394774Y-58753102D01*
X71355000Y-58953061D01*
X57912000Y-58953061D01*
X57912000Y-54508061D01*
X71355000Y-54508061D01*
X71355000Y-54711939D01*
X71394774Y-54911898D01*
X71472795Y-55100256D01*
X71586063Y-55269774D01*
X71730226Y-55413937D01*
X71899744Y-55527205D01*
X72088102Y-55605226D01*
X72288061Y-55645000D01*
X72491939Y-55645000D01*
X72691898Y-55605226D01*
X72880256Y-55527205D01*
X73049774Y-55413937D01*
X73093711Y-55370000D01*
X77401289Y-55370000D01*
X77445226Y-55413937D01*
X77614744Y-55527205D01*
X77803102Y-55605226D01*
X78003061Y-55645000D01*
X78206939Y-55645000D01*
X78406898Y-55605226D01*
X78595256Y-55527205D01*
X78764774Y-55413937D01*
X78908937Y-55269774D01*
X79022205Y-55100256D01*
X79100226Y-54911898D01*
X79140000Y-54711939D01*
X79140000Y-54508061D01*
X79100226Y-54308102D01*
X79022205Y-54119744D01*
X78908937Y-53950226D01*
X78764774Y-53806063D01*
X78595256Y-53692795D01*
X78406898Y-53614774D01*
X78206939Y-53575000D01*
X78003061Y-53575000D01*
X77803102Y-53614774D01*
X77614744Y-53692795D01*
X77445226Y-53806063D01*
X77401289Y-53850000D01*
X73093711Y-53850000D01*
X73049774Y-53806063D01*
X72880256Y-53692795D01*
X72691898Y-53614774D01*
X72491939Y-53575000D01*
X72288061Y-53575000D01*
X72088102Y-53614774D01*
X71899744Y-53692795D01*
X71730226Y-53806063D01*
X71586063Y-53950226D01*
X71472795Y-54119744D01*
X71394774Y-54308102D01*
X71355000Y-54508061D01*
X57912000Y-54508061D01*
X57912000Y-49757738D01*
X58730000Y-49757738D01*
X58730000Y-50572262D01*
X58888906Y-51371135D01*
X59200611Y-52123657D01*
X59653136Y-52800909D01*
X60229091Y-53376864D01*
X60906343Y-53829389D01*
X61658865Y-54141094D01*
X62457738Y-54300000D01*
X63272262Y-54300000D01*
X64071135Y-54141094D01*
X64823657Y-53829389D01*
X65500909Y-53376864D01*
X66076864Y-52800909D01*
X66529389Y-52123657D01*
X66841094Y-51371135D01*
X66974976Y-50698061D01*
X71355000Y-50698061D01*
X71355000Y-50901939D01*
X71394774Y-51101898D01*
X71472795Y-51290256D01*
X71586063Y-51459774D01*
X71730226Y-51603937D01*
X71899744Y-51717205D01*
X72088102Y-51795226D01*
X72288061Y-51835000D01*
X72491939Y-51835000D01*
X72691898Y-51795226D01*
X72880256Y-51717205D01*
X73049774Y-51603937D01*
X73093711Y-51560000D01*
X77401289Y-51560000D01*
X77445226Y-51603937D01*
X77614744Y-51717205D01*
X77803102Y-51795226D01*
X78003061Y-51835000D01*
X78206939Y-51835000D01*
X78406898Y-51795226D01*
X78595256Y-51717205D01*
X78764774Y-51603937D01*
X78908937Y-51459774D01*
X79022205Y-51290256D01*
X79100226Y-51101898D01*
X79140000Y-50901939D01*
X79140000Y-50698061D01*
X79100226Y-50498102D01*
X79022205Y-50309744D01*
X78908937Y-50140226D01*
X78764774Y-49996063D01*
X78595256Y-49882795D01*
X78406898Y-49804774D01*
X78206939Y-49765000D01*
X78003061Y-49765000D01*
X77803102Y-49804774D01*
X77614744Y-49882795D01*
X77445226Y-49996063D01*
X77401289Y-50040000D01*
X73093711Y-50040000D01*
X73049774Y-49996063D01*
X72880256Y-49882795D01*
X72691898Y-49804774D01*
X72491939Y-49765000D01*
X72288061Y-49765000D01*
X72088102Y-49804774D01*
X71899744Y-49882795D01*
X71730226Y-49996063D01*
X71586063Y-50140226D01*
X71472795Y-50309744D01*
X71394774Y-50498102D01*
X71355000Y-50698061D01*
X66974976Y-50698061D01*
X67000000Y-50572262D01*
X67000000Y-49757738D01*
X136200000Y-49757738D01*
X136200000Y-50572262D01*
X136358906Y-51371135D01*
X136670611Y-52123657D01*
X137123136Y-52800909D01*
X137699091Y-53376864D01*
X138376343Y-53829389D01*
X139128865Y-54141094D01*
X139927738Y-54300000D01*
X140742262Y-54300000D01*
X141541135Y-54141094D01*
X142293657Y-53829389D01*
X142970909Y-53376864D01*
X143546864Y-52800909D01*
X143999389Y-52123657D01*
X144311094Y-51371135D01*
X144470000Y-50572262D01*
X144470000Y-49757738D01*
X144311094Y-48958865D01*
X143999389Y-48206343D01*
X143546864Y-47529091D01*
X142970909Y-46953136D01*
X142293657Y-46500611D01*
X141541135Y-46188906D01*
X140742262Y-46030000D01*
X139927738Y-46030000D01*
X139128865Y-46188906D01*
X138376343Y-46500611D01*
X137699091Y-46953136D01*
X137123136Y-47529091D01*
X136670611Y-48206343D01*
X136358906Y-48958865D01*
X136200000Y-49757738D01*
X67000000Y-49757738D01*
X66841094Y-48958865D01*
X66529389Y-48206343D01*
X66076864Y-47529091D01*
X65500909Y-46953136D01*
X64823657Y-46500611D01*
X64071135Y-46188906D01*
X63272262Y-46030000D01*
X62457738Y-46030000D01*
X61658865Y-46188906D01*
X60906343Y-46500611D01*
X60229091Y-46953136D01*
X59653136Y-47529091D01*
X59200611Y-48206343D01*
X58888906Y-48958865D01*
X58730000Y-49757738D01*
X57912000Y-49757738D01*
X57912000Y-48163766D01*
X58106782Y-47499809D01*
X58433537Y-46865377D01*
X58874369Y-46304173D01*
X59413363Y-45836459D01*
X60031080Y-45479100D01*
X60705225Y-45244997D01*
X60932802Y-45212000D01*
X142336234Y-45212000D01*
X143000191Y-45406782D01*
M02*
