M48
; DRILL file {KiCad 5.1.5-52549c5~84~ubuntu19.10.1} date Tue 18 Feb 2020 09:14:34 AM EST
; FORMAT={-:-/ absolute / inch / decimal}
; #@! TF.CreationDate,2020-02-18T09:14:34-05:00
; #@! TF.GenerationSoftware,Kicad,Pcbnew,5.1.5-52549c5~84~ubuntu19.10.1
; #@! TF.FileFunction,Plated,1,2,PTH
FMAT,2
INCH
T1C0.0157
T2C0.0197
T3C0.0299
T4C0.0394
T5C0.1378
%
G90
G05
T1
X2.35Y-2.175
X2.35Y-2.975
X2.35Y-4.15
X2.4215Y-2.875
X2.525Y-2.175
X2.55Y-4.075
X2.65Y-1.825
X2.65Y-2.1
X2.65Y-4.1
X2.65Y-4.45
X2.7Y-1.95
X2.775Y-2.825
X2.775Y-4.225
X2.7781Y-3.0719
X2.85Y-2.0
X2.85Y-2.15
X2.85Y-2.325
X2.85Y-2.475
X2.85Y-3.825
X2.85Y-3.975
X2.85Y-4.175
X2.85Y-4.325
X2.9Y-2.825
X3.075Y-2.0
X3.075Y-2.15
X3.075Y-2.325
X3.075Y-2.475
X3.075Y-3.825
X3.075Y-3.975
X3.075Y-4.175
X3.075Y-4.325
X3.125Y-3.225
X3.2Y-2.225
X3.2Y-2.875
X3.2465Y-4.175
X3.25Y-2.775
X3.275Y-4.025
X3.325Y-4.4
X3.325Y-4.525
X3.35Y-3.6
X3.55Y-4.4
X3.55Y-4.525
X3.6309Y-3.3191
X3.65Y-3.45
X3.6722Y-2.525
X3.775Y-3.525
X3.775Y-4.4
X3.775Y-4.525
X3.8Y-3.65
X3.8059Y-2.4691
X3.8499Y-3.5381
X3.85Y-2.475
X3.875Y-3.4776
X3.9Y-2.525
X3.9Y-3.65
X3.9469Y-3.8281
X3.975Y-2.775
X3.975Y-4.4
X3.975Y-4.525
X4.15Y-3.45
X4.175Y-2.375
X4.2Y-4.4
X4.2Y-4.525
X4.225Y-2.8
X4.275Y-2.3
X4.275Y-3.025
X4.325Y-3.975
X4.425Y-4.4
X4.425Y-4.525
X4.525Y-2.7
X4.55Y-4.275
X4.575Y-3.975
X4.6Y-2.85
X4.625Y-4.2
X4.7Y-2.7
X4.725Y-3.975
X4.775Y-2.85
X4.875Y-2.7
X4.925Y-2.775
X4.925Y-2.875
X4.925Y-4.05
X5.175Y-2.875
X5.175Y-3.025
X5.175Y-3.175
X5.175Y-3.325
X5.175Y-3.475
X5.3Y-1.975
X5.3Y-4.35
X5.35Y-1.85
X5.35Y-2.1
X5.35Y-4.225
X5.35Y-4.475
X5.475Y-2.175
X5.475Y-4.15
X5.625Y-2.175
X5.625Y-4.15
T2
X2.3717Y-1.975
X2.4019Y-1.9019
X2.4019Y-2.0481
X2.475Y-1.8717
X2.475Y-2.0783
X2.5481Y-1.9019
X2.5481Y-2.0481
X2.5783Y-1.975
X5.4217Y-4.35
X5.4519Y-4.2769
X5.4519Y-4.4231
X5.525Y-4.2467
X5.525Y-4.4533
X5.5981Y-4.2769
X5.5981Y-4.4231
X5.6283Y-4.35
X2.3717Y-4.325
X2.4019Y-4.2519
X2.4019Y-4.3981
X2.475Y-4.2217
X2.475Y-4.4283
X2.5481Y-4.2519
X2.5481Y-4.3981
X2.5783Y-4.325
X5.4217Y-1.975
X5.4519Y-1.9019
X5.4519Y-2.0481
X5.525Y-1.8717
X5.525Y-2.0783
X5.5981Y-1.9019
X5.5981Y-2.0481
X5.6283Y-1.975
T3
X5.075Y-3.65
X5.075Y-3.75
X5.075Y-3.85
X5.075Y-3.95
X5.175Y-3.7
X5.175Y-3.8
X5.175Y-3.9
X5.175Y-4.0
X5.075Y-2.35
X5.075Y-2.45
X5.075Y-2.55
X5.075Y-2.65
X5.175Y-2.4
X5.175Y-2.5
X5.175Y-2.6
X5.175Y-2.7
T4
X2.5719Y-2.6719
X2.5719Y-2.7719
X2.5719Y-2.8719
X2.5719Y-2.9719
X2.5719Y-3.0719
X2.5719Y-3.1719
X2.5719Y-3.2719
X2.5719Y-3.3719
X2.5719Y-3.4719
X2.5719Y-3.5719
X2.6719Y-2.6719
X2.6719Y-2.7719
X2.6719Y-2.8719
X2.6719Y-2.9719
X2.6719Y-3.0719
X2.6719Y-3.1719
X2.6719Y-3.2719
X2.6719Y-3.3719
X2.6719Y-3.4719
X2.6719Y-3.5719
T5
X5.525Y-1.975
X2.475Y-1.975
X5.525Y-4.35
X2.475Y-4.325
T0
M30
