%FSLAX45Y45*%
G04 Gerber Fmt 4.5, Leading zero omitted, Abs format (unit mm)*
G04 Created by KiCad (PCBNEW 5.1.5-52549c5~84~ubuntu19.10.1) date 2020-02-18 09:14:37*
%MOMM*%
%LPD*%
G04 APERTURE LIST*
%TA.AperFunction,Profile*%
%ADD10C,0.100000*%
%TD*%
%TA.AperFunction,Profile*%
%ADD11C,0.150000*%
%TD*%
%ADD12C,0.200000*%
%ADD13C,0.300000*%
G04 APERTURE END LIST*
D10*
X5715000Y-11176000D02*
X5715000Y-4889500D01*
X14160500Y-11620500D02*
X6159500Y-11620500D01*
X14605000Y-4889500D02*
X14600565Y-11238631D01*
X6159500Y-4445000D02*
X14160500Y-4445000D01*
X5715000Y-4889500D02*
G75*
G02X6159500Y-4445000I444500J0D01*
G01*
X14160500Y-4445000D02*
G75*
G02X14605000Y-4889500I0J-444500D01*
G01*
X6159500Y-11620500D02*
G75*
G02X5715000Y-11176000I0J444500D01*
G01*
D11*
X14600565Y-11238631D02*
G75*
G02X14160500Y-11620500I-440066J62631D01*
G01*
D12*
X13619500Y-8984000D02*
X13939500Y-9304000D01*
X13939500Y-8984000D02*
X13619500Y-9304000D01*
X13619500Y-10127000D02*
X13939500Y-10447000D01*
X13939500Y-10127000D02*
X13619500Y-10447000D01*
X13619500Y-5682000D02*
X13939500Y-6002000D01*
X13939500Y-5682000D02*
X13619500Y-6002000D01*
X13619500Y-6825000D02*
X13939500Y-7145000D01*
X13939500Y-6825000D02*
X13619500Y-7145000D01*
D13*
X5996428Y-12093714D02*
X5996428Y-11793714D01*
X6067857Y-11793714D01*
X6110714Y-11808000D01*
X6139286Y-11836571D01*
X6153571Y-11865143D01*
X6167857Y-11922286D01*
X6167857Y-11965143D01*
X6153571Y-12022286D01*
X6139286Y-12050857D01*
X6110714Y-12079429D01*
X6067857Y-12093714D01*
X5996428Y-12093714D01*
X6296428Y-12093714D02*
X6296428Y-11893714D01*
X6296428Y-11950857D02*
X6310714Y-11922286D01*
X6325000Y-11908000D01*
X6353571Y-11893714D01*
X6382143Y-11893714D01*
X6482143Y-12093714D02*
X6482143Y-11893714D01*
X6482143Y-11793714D02*
X6467857Y-11808000D01*
X6482143Y-11822286D01*
X6496428Y-11808000D01*
X6482143Y-11793714D01*
X6482143Y-11822286D01*
X6667857Y-12093714D02*
X6639286Y-12079429D01*
X6625000Y-12050857D01*
X6625000Y-11793714D01*
X6825000Y-12093714D02*
X6796428Y-12079429D01*
X6782143Y-12050857D01*
X6782143Y-11793714D01*
X7167857Y-12093714D02*
X7167857Y-11793714D01*
X7267857Y-12008000D01*
X7367857Y-11793714D01*
X7367857Y-12093714D01*
X7639286Y-12093714D02*
X7639286Y-11936571D01*
X7625000Y-11908000D01*
X7596428Y-11893714D01*
X7539286Y-11893714D01*
X7510714Y-11908000D01*
X7639286Y-12079429D02*
X7610714Y-12093714D01*
X7539286Y-12093714D01*
X7510714Y-12079429D01*
X7496428Y-12050857D01*
X7496428Y-12022286D01*
X7510714Y-11993714D01*
X7539286Y-11979429D01*
X7610714Y-11979429D01*
X7639286Y-11965143D01*
X7782143Y-11893714D02*
X7782143Y-12193714D01*
X7782143Y-11908000D02*
X7810714Y-11893714D01*
X7867857Y-11893714D01*
X7896428Y-11908000D01*
X7910714Y-11922286D01*
X7925000Y-11950857D01*
X7925000Y-12036571D01*
X7910714Y-12065143D01*
X7896428Y-12079429D01*
X7867857Y-12093714D01*
X7810714Y-12093714D01*
X7782143Y-12079429D01*
X8053571Y-12065143D02*
X8067857Y-12079429D01*
X8053571Y-12093714D01*
X8039286Y-12079429D01*
X8053571Y-12065143D01*
X8053571Y-12093714D01*
X8053571Y-11908000D02*
X8067857Y-11922286D01*
X8053571Y-11936571D01*
X8039286Y-11922286D01*
X8053571Y-11908000D01*
X8053571Y-11936571D01*
X5390000Y-12428000D02*
X5710000Y-12748000D01*
X5710000Y-12428000D02*
X5390000Y-12748000D01*
X5967857Y-12423714D02*
X6153571Y-12423714D01*
X6053571Y-12538000D01*
X6096428Y-12538000D01*
X6125000Y-12552286D01*
X6139286Y-12566571D01*
X6153571Y-12595143D01*
X6153571Y-12666571D01*
X6139286Y-12695143D01*
X6125000Y-12709429D01*
X6096428Y-12723714D01*
X6010714Y-12723714D01*
X5982143Y-12709429D01*
X5967857Y-12695143D01*
X6282143Y-12695143D02*
X6296428Y-12709429D01*
X6282143Y-12723714D01*
X6267857Y-12709429D01*
X6282143Y-12695143D01*
X6282143Y-12723714D01*
X6410714Y-12452286D02*
X6425000Y-12438000D01*
X6453571Y-12423714D01*
X6525000Y-12423714D01*
X6553571Y-12438000D01*
X6567857Y-12452286D01*
X6582143Y-12480857D01*
X6582143Y-12509429D01*
X6567857Y-12552286D01*
X6396428Y-12723714D01*
X6582143Y-12723714D01*
X6767857Y-12423714D02*
X6796428Y-12423714D01*
X6825000Y-12438000D01*
X6839286Y-12452286D01*
X6853571Y-12480857D01*
X6867857Y-12538000D01*
X6867857Y-12609429D01*
X6853571Y-12666571D01*
X6839286Y-12695143D01*
X6825000Y-12709429D01*
X6796428Y-12723714D01*
X6767857Y-12723714D01*
X6739286Y-12709429D01*
X6725000Y-12695143D01*
X6710714Y-12666571D01*
X6696428Y-12609429D01*
X6696428Y-12538000D01*
X6710714Y-12480857D01*
X6725000Y-12452286D01*
X6739286Y-12438000D01*
X6767857Y-12423714D01*
X6996428Y-12723714D02*
X6996428Y-12523714D01*
X6996428Y-12552286D02*
X7010714Y-12538000D01*
X7039286Y-12523714D01*
X7082143Y-12523714D01*
X7110714Y-12538000D01*
X7125000Y-12566571D01*
X7125000Y-12723714D01*
X7125000Y-12566571D02*
X7139286Y-12538000D01*
X7167857Y-12523714D01*
X7210714Y-12523714D01*
X7239286Y-12538000D01*
X7253571Y-12566571D01*
X7253571Y-12723714D01*
X7396428Y-12723714D02*
X7396428Y-12523714D01*
X7396428Y-12552286D02*
X7410714Y-12538000D01*
X7439286Y-12523714D01*
X7482143Y-12523714D01*
X7510714Y-12538000D01*
X7525000Y-12566571D01*
X7525000Y-12723714D01*
X7525000Y-12566571D02*
X7539286Y-12538000D01*
X7567857Y-12523714D01*
X7610714Y-12523714D01*
X7639286Y-12538000D01*
X7653571Y-12566571D01*
X7653571Y-12723714D01*
X8239286Y-12409429D02*
X7982143Y-12795143D01*
X8625000Y-12423714D02*
X8653571Y-12423714D01*
X8682143Y-12438000D01*
X8696428Y-12452286D01*
X8710714Y-12480857D01*
X8725000Y-12538000D01*
X8725000Y-12609429D01*
X8710714Y-12666571D01*
X8696428Y-12695143D01*
X8682143Y-12709429D01*
X8653571Y-12723714D01*
X8625000Y-12723714D01*
X8596428Y-12709429D01*
X8582143Y-12695143D01*
X8567857Y-12666571D01*
X8553571Y-12609429D01*
X8553571Y-12538000D01*
X8567857Y-12480857D01*
X8582143Y-12452286D01*
X8596428Y-12438000D01*
X8625000Y-12423714D01*
X8853571Y-12695143D02*
X8867857Y-12709429D01*
X8853571Y-12723714D01*
X8839286Y-12709429D01*
X8853571Y-12695143D01*
X8853571Y-12723714D01*
X9153571Y-12723714D02*
X8982143Y-12723714D01*
X9067857Y-12723714D02*
X9067857Y-12423714D01*
X9039286Y-12466571D01*
X9010714Y-12495143D01*
X8982143Y-12509429D01*
X9267857Y-12452286D02*
X9282143Y-12438000D01*
X9310714Y-12423714D01*
X9382143Y-12423714D01*
X9410714Y-12438000D01*
X9425000Y-12452286D01*
X9439286Y-12480857D01*
X9439286Y-12509429D01*
X9425000Y-12552286D01*
X9253571Y-12723714D01*
X9439286Y-12723714D01*
X9696428Y-12423714D02*
X9639286Y-12423714D01*
X9610714Y-12438000D01*
X9596428Y-12452286D01*
X9567857Y-12495143D01*
X9553571Y-12552286D01*
X9553571Y-12666571D01*
X9567857Y-12695143D01*
X9582143Y-12709429D01*
X9610714Y-12723714D01*
X9667857Y-12723714D01*
X9696428Y-12709429D01*
X9710714Y-12695143D01*
X9725000Y-12666571D01*
X9725000Y-12595143D01*
X9710714Y-12566571D01*
X9696428Y-12552286D01*
X9667857Y-12538000D01*
X9610714Y-12538000D01*
X9582143Y-12552286D01*
X9567857Y-12566571D01*
X9553571Y-12595143D01*
X9839286Y-12423714D02*
X9839286Y-12480857D01*
X9953571Y-12423714D02*
X9953571Y-12480857D01*
X10396428Y-12838000D02*
X10382143Y-12823714D01*
X10353571Y-12780857D01*
X10339286Y-12752286D01*
X10325000Y-12709429D01*
X10310714Y-12638000D01*
X10310714Y-12580857D01*
X10325000Y-12509429D01*
X10339286Y-12466571D01*
X10353571Y-12438000D01*
X10382143Y-12395143D01*
X10396428Y-12380857D01*
X10639286Y-12523714D02*
X10639286Y-12723714D01*
X10567857Y-12409429D02*
X10496428Y-12623714D01*
X10682143Y-12623714D01*
X11025000Y-12723714D02*
X11025000Y-12423714D01*
X11153571Y-12723714D02*
X11153571Y-12566571D01*
X11139286Y-12538000D01*
X11110714Y-12523714D01*
X11067857Y-12523714D01*
X11039286Y-12538000D01*
X11025000Y-12552286D01*
X11339286Y-12723714D02*
X11310714Y-12709429D01*
X11296428Y-12695143D01*
X11282143Y-12666571D01*
X11282143Y-12580857D01*
X11296428Y-12552286D01*
X11310714Y-12538000D01*
X11339286Y-12523714D01*
X11382143Y-12523714D01*
X11410714Y-12538000D01*
X11425000Y-12552286D01*
X11439286Y-12580857D01*
X11439286Y-12666571D01*
X11425000Y-12695143D01*
X11410714Y-12709429D01*
X11382143Y-12723714D01*
X11339286Y-12723714D01*
X11610714Y-12723714D02*
X11582143Y-12709429D01*
X11567857Y-12680857D01*
X11567857Y-12423714D01*
X11839286Y-12709429D02*
X11810714Y-12723714D01*
X11753571Y-12723714D01*
X11725000Y-12709429D01*
X11710714Y-12680857D01*
X11710714Y-12566571D01*
X11725000Y-12538000D01*
X11753571Y-12523714D01*
X11810714Y-12523714D01*
X11839286Y-12538000D01*
X11853571Y-12566571D01*
X11853571Y-12595143D01*
X11710714Y-12623714D01*
X11967857Y-12709429D02*
X11996428Y-12723714D01*
X12053571Y-12723714D01*
X12082143Y-12709429D01*
X12096428Y-12680857D01*
X12096428Y-12666571D01*
X12082143Y-12638000D01*
X12053571Y-12623714D01*
X12010714Y-12623714D01*
X11982143Y-12609429D01*
X11967857Y-12580857D01*
X11967857Y-12566571D01*
X11982143Y-12538000D01*
X12010714Y-12523714D01*
X12053571Y-12523714D01*
X12082143Y-12538000D01*
X12196428Y-12838000D02*
X12210714Y-12823714D01*
X12239286Y-12780857D01*
X12253571Y-12752286D01*
X12267857Y-12709429D01*
X12282143Y-12638000D01*
X12282143Y-12580857D01*
X12267857Y-12509429D01*
X12253571Y-12466571D01*
X12239286Y-12438000D01*
X12210714Y-12395143D01*
X12196428Y-12380857D01*
X12739286Y-12838000D02*
X12725000Y-12823714D01*
X12696428Y-12780857D01*
X12682143Y-12752286D01*
X12667857Y-12709429D01*
X12653571Y-12638000D01*
X12653571Y-12580857D01*
X12667857Y-12509429D01*
X12682143Y-12466571D01*
X12696428Y-12438000D01*
X12725000Y-12395143D01*
X12739286Y-12380857D01*
X12853571Y-12523714D02*
X12853571Y-12723714D01*
X12853571Y-12552286D02*
X12867857Y-12538000D01*
X12896428Y-12523714D01*
X12939286Y-12523714D01*
X12967857Y-12538000D01*
X12982143Y-12566571D01*
X12982143Y-12723714D01*
X13167857Y-12723714D02*
X13139286Y-12709429D01*
X13125000Y-12695143D01*
X13110714Y-12666571D01*
X13110714Y-12580857D01*
X13125000Y-12552286D01*
X13139286Y-12538000D01*
X13167857Y-12523714D01*
X13210714Y-12523714D01*
X13239286Y-12538000D01*
X13253571Y-12552286D01*
X13267857Y-12580857D01*
X13267857Y-12666571D01*
X13253571Y-12695143D01*
X13239286Y-12709429D01*
X13210714Y-12723714D01*
X13167857Y-12723714D01*
X13353571Y-12523714D02*
X13467857Y-12523714D01*
X13396428Y-12423714D02*
X13396428Y-12680857D01*
X13410714Y-12709429D01*
X13439286Y-12723714D01*
X13467857Y-12723714D01*
X13796428Y-12523714D02*
X13796428Y-12823714D01*
X13796428Y-12538000D02*
X13825000Y-12523714D01*
X13882143Y-12523714D01*
X13910714Y-12538000D01*
X13925000Y-12552286D01*
X13939286Y-12580857D01*
X13939286Y-12666571D01*
X13925000Y-12695143D01*
X13910714Y-12709429D01*
X13882143Y-12723714D01*
X13825000Y-12723714D01*
X13796428Y-12709429D01*
X14110714Y-12723714D02*
X14082143Y-12709429D01*
X14067857Y-12680857D01*
X14067857Y-12423714D01*
X14353571Y-12723714D02*
X14353571Y-12566571D01*
X14339286Y-12538000D01*
X14310714Y-12523714D01*
X14253571Y-12523714D01*
X14225000Y-12538000D01*
X14353571Y-12709429D02*
X14325000Y-12723714D01*
X14253571Y-12723714D01*
X14225000Y-12709429D01*
X14210714Y-12680857D01*
X14210714Y-12652286D01*
X14225000Y-12623714D01*
X14253571Y-12609429D01*
X14325000Y-12609429D01*
X14353571Y-12595143D01*
X14453571Y-12523714D02*
X14567857Y-12523714D01*
X14496428Y-12423714D02*
X14496428Y-12680857D01*
X14510714Y-12709429D01*
X14539286Y-12723714D01*
X14567857Y-12723714D01*
X14782143Y-12709429D02*
X14753571Y-12723714D01*
X14696428Y-12723714D01*
X14667857Y-12709429D01*
X14653571Y-12680857D01*
X14653571Y-12566571D01*
X14667857Y-12538000D01*
X14696428Y-12523714D01*
X14753571Y-12523714D01*
X14782143Y-12538000D01*
X14796428Y-12566571D01*
X14796428Y-12595143D01*
X14653571Y-12623714D01*
X15053571Y-12723714D02*
X15053571Y-12423714D01*
X15053571Y-12709429D02*
X15025000Y-12723714D01*
X14967857Y-12723714D01*
X14939286Y-12709429D01*
X14925000Y-12695143D01*
X14910714Y-12666571D01*
X14910714Y-12580857D01*
X14925000Y-12552286D01*
X14939286Y-12538000D01*
X14967857Y-12523714D01*
X15025000Y-12523714D01*
X15053571Y-12538000D01*
X15167857Y-12838000D02*
X15182143Y-12823714D01*
X15210714Y-12780857D01*
X15225000Y-12752286D01*
X15239286Y-12709429D01*
X15253571Y-12638000D01*
X15253571Y-12580857D01*
X15239286Y-12509429D01*
X15225000Y-12466571D01*
X15210714Y-12438000D01*
X15182143Y-12395143D01*
X15167857Y-12380857D01*
M02*
